<?xml version="1.0" encoding="UTF-8" standalone="no"?>
<svg width="18px" height="18px" viewBox="0 0 18 18" version="1.1" xmlns="http://www.w3.org/2000/svg" xmlns:xlink="http://www.w3.org/1999/xlink">
    <!-- Generator: sketchtool 41 (35326) - http://www.bohemiancoding.com/sketch -->
    <title>80410BAD-B707-40F4-8CCC-4A6700ED6381</title>
    <desc>Created with sketchtool.</desc>
    <defs></defs>
    <g id="App-iOS" stroke="none" stroke-width="1" fill="none" fill-rule="evenodd">
        <g id="Cuenta" transform="translate(-19.000000, -161.000000)">
            <g id="Table-Cells-with-Icons" transform="translate(0.000000, 106.000000)">
                <g id="Table-Cell-Copy" transform="translate(0.000000, 44.000000)">
                    <g id="mail" transform="translate(15.000000, 7.000000)">
                        <rect id="Bounds" fill-opacity="0" fill="#D8D8D8" x="0" y="0" width="25" height="25"></rect>
                        <path d="M16.789,14.5849 C16.789,15.3409 17.0041,15.6424 17.5666,15.6424 C18.8203,15.6424 19.6186,14.0449 19.6186,11.3881 C19.6186,7.3273 16.6594,5.3833 12.9649,5.3833 C9.1642,5.3833 5.7073,7.9321 5.7073,12.7489 C5.7073,17.3497 8.7313,19.8553 13.3753,19.8553 C14.9521,19.8553 16.0105,19.6825 17.6296,19.1425 L17.977,20.5888 C16.3786,21.1081 14.6704,21.2584 13.3537,21.2584 C7.2625,21.2584 4,17.9104 4,12.748 C4,7.5424 7.7809,4 12.9865,4 C18.4081,4 21.28,7.24 21.28,11.2144 C21.28,14.584 20.2225,17.1544 16.8961,17.1544 C15.3832,17.1544 14.3905,16.5496 14.2609,15.2095 C13.8721,16.6999 12.8353,17.1544 11.4304,17.1544 C9.5512,17.1544 7.9744,15.7063 7.9744,12.7912 C7.9744,9.8536 9.3577,8.0392 11.8417,8.0392 C13.1593,8.0392 13.9801,8.5576 14.3455,9.3784 L14.9728,8.2336 L16.7872,8.2336 L16.7872,14.5849 L16.789,14.5849 L16.789,14.5849 Z M14.1331,11.7337 C14.1331,10.5466 13.2466,10.0489 12.5122,10.0489 C11.713,10.0489 10.8283,10.696 10.8283,12.5977 C10.8283,14.1097 11.4979,14.9521 12.5122,14.9521 C13.225,14.9521 14.1331,14.4985 14.1331,13.2457 L14.1331,11.7337 Z" id="Shape" fill="#2D6CA9"></path>
                    </g>
                </g>
            </g>
        </g>
    </g>
</svg>