<?xml version="1.0" encoding="UTF-8" standalone="no"?>
<svg width="34px" height="34px" viewBox="0 0 34 34" version="1.1" xmlns="http://www.w3.org/2000/svg" xmlns:xlink="http://www.w3.org/1999/xlink">
    <!-- Generator: sketchtool 40.3 (33839) - http://www.bohemiancoding.com/sketch -->
    <title>484E0DBA-9DD1-4111-B045-90FC1ECEDDDE</title>
    <desc>Created with sketchtool.</desc>
    <defs></defs>
    <g id="App-iOS" stroke="none" stroke-width="1" fill="none" fill-rule="evenodd">
        <g id="Iniciar-viaje---favorito" transform="translate(-171.000000, -239.000000)" fill="#FFCA28">
            <g id="Dialog-(SM-Avatar-+-Title-+-Content-+-2-CTA)" transform="translate(43.000000, 213.000000)">
                <path d="M162,39.1758032 C162,39.4900232 161.822917,39.8328082 161.46875,40.2041593 L154.051682,47.7882797 L155.808894,58.5003151 C155.822516,58.6002941 155.829326,58.743121 155.829326,58.9287959 C155.829326,59.2287329 155.757813,59.4822515 155.614783,59.6893504 C155.471755,59.8964493 155.264023,60 154.991586,60 C154.732773,60 154.460337,59.9143028 154.174278,59.742911 L144.999999,54.6868303 L135.825721,59.742911 C135.526042,59.9143028 135.253605,60 135.008414,60 C134.722355,60 134.507812,59.8964493 134.364784,59.6893504 C134.221754,59.4822515 134.15024,59.2287329 134.15024,58.9287959 C134.15024,58.8431 134.163862,58.7002731 134.191106,58.5003151 L135.948318,47.7882797 L128.510818,40.2041593 C128.170273,39.8185251 128,39.4757402 128,39.1758032 C128,38.6473433 128.38141,38.3188402 129.144231,38.1902963 L139.401442,36.6263395 L143.998798,26.878387 C144.257611,26.2927961 144.591346,26 144.999999,26 C145.408654,26 145.742387,26.2927961 146.001202,26.878387 L150.598558,36.6263395 L160.855769,38.1902963 C161.61859,38.3188402 162,38.6473433 162,39.1758032 L162,39.1758032 Z" id="favorite-filled"></path>
            </g>
        </g>
    </g>
</svg>