<?xml version="1.0" encoding="UTF-8" standalone="no"?>
<svg width="25px" height="27px" viewBox="0 0 25 27" version="1.1" xmlns="http://www.w3.org/2000/svg" xmlns:xlink="http://www.w3.org/1999/xlink">
    <!-- Generator: sketchtool 41.2 (35397) - http://www.bohemiancoding.com/sketch -->
    <title>E4E02DE9-99B4-4B08-A025-E803FEDF203D</title>
    <desc>Created with sketchtool.</desc>
    <defs></defs>
    <g id="App-iOS" stroke="none" stroke-width="1" fill="none" fill-rule="evenodd">
        <g id="Home" transform="translate(-16.000000, -29.000000)" fill="#F59100">
            <path d="M41,35.5489404 L41,52.577029 C41,53.3615996 40.3498818,53.9718212 39.5815603,53.9718212 L21.3486998,53.9718212 L21.3486998,55.628137 C21.3486998,55.9187187 21.0236407,56.0930678 20.7576832,55.9477769 L16.177305,52.8676107 C15.9408983,52.7223198 15.9408983,52.40268 16.177305,52.2573891 L20.787234,49.2062811 C21.0531915,49.031932 21.3782506,49.2062811 21.3782506,49.525921 L21.3782506,51.1822367 L38.1631206,51.1822367 L38.1631206,37.350547 C38.1631206,37.1471398 38.251773,36.9727908 38.429078,36.8565581 L40.6749409,35.3745913 C40.7931442,35.2583587 41,35.3745913 41,35.5489404 Z M40.822695,32.1200761 L36.2423168,29.0689681 C35.9763593,28.8946191 35.6513002,29.0689681 35.6513002,29.388608 L35.6513002,31.0449238 L17.4184397,31.0449238 C16.6205674,31.0449238 16,31.6842035 16,32.439716 L16,49.4678046 C16,49.6421536 16.2068558,49.7293282 16.3250591,49.6421536 L18.570922,48.1601869 C18.748227,48.0439542 18.8368794,47.8696052 18.8368794,47.666198 L18.8368794,33.8345082 L35.6217494,33.8345082 L35.6217494,35.490824 C35.6217494,35.7814058 35.9468085,35.9557548 36.212766,35.8104639 L40.822695,32.7593559 C41.0591017,32.5850069 41.0591017,32.265367 40.822695,32.1200761 Z M34.321513,47.0160664 L22.501182,47.0160664 L22.501182,41.9102146 L24.0981331,40.0543164 L25.6950841,41.9102146 L27.2912573,40.0543164 L28.8882084,41.9102146 L30.4850038,40.0543164 L32.0819549,41.9102146 L32.0819549,37.1362881 L34.321513,37.1362881 L34.321513,47.0160664 Z" id="change-client"></path>
        </g>
    </g>
</svg>