<?xml version="1.0" encoding="UTF-8" standalone="no"?>
<svg width="20px" height="13px" viewBox="0 0 20 13" version="1.1" xmlns="http://www.w3.org/2000/svg" xmlns:xlink="http://www.w3.org/1999/xlink">
    <!-- Generator: sketchtool 41.2 (35397) - http://www.bohemiancoding.com/sketch -->
    <title>4D4D5A54-87B2-4B37-889A-8BFEBD24CD5A</title>
    <desc>Created with sketchtool.</desc>
    <defs></defs>
    <g id="App-iOS" stroke="none" stroke-width="1" fill="none" fill-rule="evenodd">
        <g id="Home" transform="translate(-72.000000, -145.000000)" fill="#999999">
            <g id="Group-4" transform="translate(72.000000, 142.000000)">
                <g id="credit-card-white" transform="translate(0.000000, 3.000000)">
                    <path d="M0,12.2777778 C0,12.6766501 0.344396346,13 0.769230769,13 L19.2307692,13 C19.6556037,13 20,12.6766501 20,12.2777778 L20,5.05555556 L0,5.05555556 L0,12.2777778 Z M13.8461538,9.02777778 C13.8461538,8.82834162 14.018352,8.66666667 14.2307692,8.66666667 L18.0769231,8.66666667 C18.2893403,8.66666667 18.4615385,8.82834162 18.4615385,9.02777778 L18.4615385,10.4722222 C18.4615385,10.6716584 18.2893403,10.8333333 18.0769231,10.8333333 L14.2307692,10.8333333 C14.018352,10.8333333 13.8461538,10.6716584 13.8461538,10.4722222 L13.8461538,9.02777778 Z M20,0.722222222 L20,2.88888889 L0,2.88888889 L0,0.722222222 C0,0.323349903 0.344396346,0 0.769230769,0 L19.2307692,0 C19.6556037,0 20,0.323349903 20,0.722222222 Z" id="Shape"></path>
                </g>
            </g>
        </g>
    </g>
</svg>