<?xml version="1.0" encoding="UTF-8" standalone="no"?>
<svg width="12px" height="8px" viewBox="0 0 12 8" version="1.1" xmlns="http://www.w3.org/2000/svg" xmlns:xlink="http://www.w3.org/1999/xlink">
    <!-- Generator: sketchtool 41 (35326) - http://www.bohemiancoding.com/sketch -->
    <title>8CA7429C-E6AA-4E95-B76B-9D7C35A815EF</title>
    <desc>Created with sketchtool.</desc>
    <defs></defs>
    <g id="App-iOS" stroke="none" stroke-width="1" fill="none" fill-rule="evenodd">
        <g id="Compra" transform="translate(-16.000000, -347.000000)" fill="#757575">
            <g id="Group-4-Copy-3" transform="translate(16.000000, 344.000000)">
                <g id="Group-3">
                    <g id="credit-card" transform="translate(0.000000, 3.000000)">
                        <path d="M0,7.55555556 C0,7.80101544 0.206637808,8 0.461538462,8 L11.5384615,8 C11.7933622,8 12,7.80101544 12,7.55555556 L12,3.11111111 L0,3.11111111 L0,7.55555556 Z M8.30769231,5.55555556 C8.30769231,5.43282561 8.41101121,5.33333333 8.53846154,5.33333333 L10.8461538,5.33333333 C10.9736042,5.33333333 11.0769231,5.43282561 11.0769231,5.55555556 L11.0769231,6.44444444 C11.0769231,6.56717439 10.9736042,6.66666667 10.8461538,6.66666667 L8.53846154,6.66666667 C8.41101121,6.66666667 8.30769231,6.56717439 8.30769231,6.44444444 L8.30769231,5.55555556 Z M12,0.444444444 L12,1.77777778 L0,1.77777778 L0,0.444444444 C0,0.198984556 0.206637808,0 0.461538462,0 L11.5384615,0 C11.7933622,0 12,0.198984556 12,0.444444444 Z" id="Shape"></path>
                    </g>
                </g>
            </g>
        </g>
    </g>
</svg>