<?xml version="1.0" encoding="UTF-8" standalone="no"?>
<svg width="20px" height="13px" viewBox="0 0 20 13" version="1.1" xmlns="http://www.w3.org/2000/svg" xmlns:xlink="http://www.w3.org/1999/xlink">
    <!-- Generator: sketchtool 41.2 (35397) - http://www.bohemiancoding.com/sketch -->
    <title>8288AFAE-5FDA-4B29-B355-5564903002CE</title>
    <desc>Created with sketchtool.</desc>
    <defs></defs>
    <g id="App-iOS" stroke="none" stroke-width="1" fill="none" fill-rule="evenodd">
        <g id="Cuenta" transform="translate(-18.000000, -248.000000)">
            <g id="Table-Cells-with-Icons" transform="translate(0.000000, 103.000000)">
                <g id="Table-Cell-Copy-4" transform="translate(0.000000, 132.000000)">
                    <g id="credit-card-blue" transform="translate(15.000000, 7.000000)">
                        <rect id="Bounds" fill-opacity="0" fill="#D8D8D8" x="0" y="0" width="25" height="25"></rect>
                        <path d="M3,18.2777778 C3,18.6766501 3.34439635,19 3.76923077,19 L22.2307692,19 C22.6556037,19 23,18.6766501 23,18.2777778 L23,11.0555556 L3,11.0555556 L3,18.2777778 Z M16.8461538,15.0277778 C16.8461538,14.8283416 17.018352,14.6666667 17.2307692,14.6666667 L21.0769231,14.6666667 C21.2893403,14.6666667 21.4615385,14.8283416 21.4615385,15.0277778 L21.4615385,16.4722222 C21.4615385,16.6716584 21.2893403,16.8333333 21.0769231,16.8333333 L17.2307692,16.8333333 C17.018352,16.8333333 16.8461538,16.6716584 16.8461538,16.4722222 L16.8461538,15.0277778 Z M23,6.72222222 L23,8.88888889 L3,8.88888889 L3,6.72222222 C3,6.3233499 3.34439635,6 3.76923077,6 L22.2307692,6 C22.6556037,6 23,6.3233499 23,6.72222222 Z" id="Shape" fill="#2D6CA9"></path>
                    </g>
                </g>
            </g>
        </g>
    </g>
</svg>