<?xml version="1.0" encoding="UTF-8" standalone="no"?>
<svg width="15px" height="10px" viewBox="0 0 15 10" version="1.1" xmlns="http://www.w3.org/2000/svg" xmlns:xlink="http://www.w3.org/1999/xlink">
    <!-- Generator: sketchtool 41.2 (35397) - http://www.bohemiancoding.com/sketch -->
    <title>2BAB87CD-1EDD-4C29-B091-FE64131AC4D4</title>
    <desc>Created with sketchtool.</desc>
    <defs></defs>
    <g id="App-iOS" stroke="none" stroke-width="1" fill="none" fill-rule="evenodd">
        <g id="Seleccion-destino" transform="translate(-154.000000, -221.000000)" fill="#FFFFFF">
            <g id="Group-4" transform="translate(110.000000, 168.000000)">
                <g id="Group-6" transform="translate(28.000000, 49.000000)">
                    <g id="Group-5" transform="translate(16.000000, 0.000000)">
                        <g id="credit-card-white" transform="translate(0.000000, 4.000000)">
                            <path d="M0,9.44444444 C0,9.75126931 0.25829726,10 0.576923077,10 L14.4230769,10 C14.7417027,10 15,9.75126931 15,9.44444444 L15,3.88888889 L0,3.88888889 L0,9.44444444 Z M10.3846154,6.94444444 C10.3846154,6.79103201 10.513764,6.66666667 10.6730769,6.66666667 L13.5576923,6.66666667 C13.7170052,6.66666667 13.8461538,6.79103201 13.8461538,6.94444444 L13.8461538,8.05555556 C13.8461538,8.20896799 13.7170052,8.33333333 13.5576923,8.33333333 L10.6730769,8.33333333 C10.513764,8.33333333 10.3846154,8.20896799 10.3846154,8.05555556 L10.3846154,6.94444444 Z M15,0.555555556 L15,2.22222222 L0,2.22222222 L0,0.555555556 C0,0.248730695 0.25829726,0 0.576923077,0 L14.4230769,0 C14.7417027,0 15,0.248730695 15,0.555555556 Z" id="Shape"></path>
                        </g>
                    </g>
                </g>
            </g>
        </g>
    </g>
</svg>