<?xml version="1.0" encoding="UTF-8" standalone="no"?>
<svg width="18px" height="18px" viewBox="0 0 18 18" version="1.1" xmlns="http://www.w3.org/2000/svg" xmlns:xlink="http://www.w3.org/1999/xlink">
    <!-- Generator: sketchtool 41.2 (35397) - http://www.bohemiancoding.com/sketch -->
    <title>0229E3DC-DBE6-40E3-88E9-BAEEB05A2330</title>
    <desc>Created with sketchtool.</desc>
    <defs></defs>
    <g id="App-iOS" stroke="none" stroke-width="1" fill="none" fill-rule="evenodd">
        <g id="Estaciones" transform="translate(-348.000000, -262.000000)" fill="#757575">
            <g id="Group-2" transform="translate(344.000000, 258.000000)">
                <g id="ic-my-location-24-px" transform="translate(4.000000, 4.000000)">
                    <path d="M9,5.72727273 C7.19181818,5.72727273 5.72727273,7.19181818 5.72727273,9 C5.72727273,10.8081818 7.19181818,12.2727273 9,12.2727273 C10.8081818,12.2727273 12.2727273,10.8081818 12.2727273,9 C12.2727273,7.19181818 10.8081818,5.72727273 9,5.72727273 Z M16.3145455,8.18181818 C15.9381818,4.77 13.23,2.06181818 9.81818182,1.68545455 L9.81818182,0 L8.18181818,0 L8.18181818,1.68545455 C4.77,2.06181818 2.06181818,4.77 1.68545455,8.18181818 L0,8.18181818 L0,9.81818182 L1.68545455,9.81818182 C2.06181818,13.23 4.77,15.9381818 8.18181818,16.3145455 L8.18181818,18 L9.81818182,18 L9.81818182,16.3145455 C13.23,15.9381818 15.9381818,13.23 16.3145455,9.81818182 L18,9.81818182 L18,8.18181818 L16.3145455,8.18181818 L16.3145455,8.18181818 Z M9,14.7272727 C5.83363636,14.7272727 3.27272727,12.1663636 3.27272727,9 C3.27272727,5.83363636 5.83363636,3.27272727 9,3.27272727 C12.1663636,3.27272727 14.7272727,5.83363636 14.7272727,9 C14.7272727,12.1663636 12.1663636,14.7272727 9,14.7272727 Z" id="Shape"></path>
                </g>
            </g>
        </g>
    </g>
</svg>