<?xml version="1.0" encoding="UTF-8" standalone="no"?>
<svg width="66px" height="66px" viewBox="0 0 66 66" version="1.1" xmlns="http://www.w3.org/2000/svg" xmlns:xlink="http://www.w3.org/1999/xlink">
    <!-- Generator: sketchtool 40.3 (33839) - http://www.bohemiancoding.com/sketch -->
    <title>628D5361-2F3C-4ED7-85CC-10767EEF8E39</title>
    <desc>Created with sketchtool.</desc>
    <defs>
        <circle id="path-1" cx="26" cy="26" r="26"></circle>
        <filter x="-50%" y="-50%" width="200%" height="200%" filterUnits="objectBoundingBox" id="filter-2">
            <feOffset dx="0" dy="0" in="SourceAlpha" result="shadowOffsetOuter1"></feOffset>
            <feGaussianBlur stdDeviation="3.5" in="shadowOffsetOuter1" result="shadowBlurOuter1"></feGaussianBlur>
            <feColorMatrix values="0 0 0 0 0   0 0 0 0 0   0 0 0 0 0  0 0 0 0.12 0" type="matrix" in="shadowBlurOuter1"></feColorMatrix>
        </filter>
    </defs>
    <g id="App-iOS" stroke="none" stroke-width="1" fill="none" fill-rule="evenodd">
        <g id="Iniciar-viaje" transform="translate(-300.000000, -352.000000)">
            <g id="Group-6-Copy-2" transform="translate(0.000000, 359.000000)">
                <g id="direction" transform="translate(307.000000, 0.000000)">
                    <g id="bg">
                        <use fill="black" fill-opacity="1" filter="url(#filter-2)" xlink:href="#path-1"></use>
                        <use fill="#4688F1" fill-rule="evenodd" xlink:href="#path-1"></use>
                    </g>
                    <g transform="translate(14.000000, 14.000000)" id="Group">
                        <g>
                            <path d="M21.71,11.29 L12.71,2.29 C12.32,1.9 11.69,1.9 11.3,2.29 L2.3,11.29 C1.91,11.68 1.91,12.31 2.3,12.7 L11.3,21.7 C11.69,22.09 12.32,22.09 12.71,21.7 L21.71,12.7 C22.1,12.32 22.1,11.69 21.71,11.29 L21.71,11.29 Z M14,14.5 L14,12 L10,12 L10,15 L8,15 L8,11 C8,10.45 8.45,10 9,10 L14,10 L14,7.5 L17.5,11 L14,14.5 L14,14.5 Z" id="Shape" fill="#FFFFFF"></path>
                            <polygon id="Shape" points="0 0 24 0 24 24 0 24"></polygon>
                        </g>
                    </g>
                </g>
            </g>
        </g>
    </g>
</svg>