<?xml version="1.0" encoding="UTF-8" standalone="no"?>
<svg width="12px" height="10px" viewBox="0 0 12 10" version="1.1" xmlns="http://www.w3.org/2000/svg" xmlns:xlink="http://www.w3.org/1999/xlink">
    <!-- Generator: sketchtool 41.2 (35397) - http://www.bohemiancoding.com/sketch -->
    <title>CA00FDA2-0E51-4F01-9FB9-01436685202B</title>
    <desc>Created with sketchtool.</desc>
    <defs></defs>
    <g id="App-iOS" stroke="none" stroke-width="1" fill="none" fill-rule="evenodd">
        <g id="Home---Error" transform="translate(-32.000000, -155.000000)">
            <g id="Group-6" transform="translate(16.000000, 134.000000)">
                <g id="Group-4" transform="translate(16.000000, 16.000000)">
                    <g id="Group-3" transform="translate(0.000000, 4.000000)">
                        <g id="Error" transform="translate(0.000000, 1.000000)">
                            <g id="Group">
                                <path d="M11.027027,10 L0.648648649,10 C0.416108108,10 0.202054054,9.8803125 0.0862702703,9.68625 C-0.0291891892,9.4921875 -0.0285405405,9.2534375 0.0885405405,9.06 L5.27772973,0.31 C5.39383784,0.118125 5.60724324,0 5.83783784,0 C6.06843243,0 6.28183784,0.118125 6.39827027,0.31 L11.5874595,9.06 C11.7045405,9.2534375 11.7051892,9.4921875 11.5897297,9.68625 C11.4742703,9.8803125 11.2592432,10 11.027027,10 Z" id="Shape" fill="#FFC107"></path>
                                <path d="M5.18918919,8.169375 C5.18918919,8.0853125 5.20443243,8.0084375 5.23556757,7.93625 C5.26605405,7.865 5.30983784,7.803125 5.36627027,7.75125 C5.42172973,7.69875 5.49016216,7.6578125 5.56864865,7.6284375 C5.64778378,7.5996875 5.73664865,7.584375 5.83589189,7.584375 C5.93513514,7.584375 6.02464865,7.5996875 6.10443243,7.6284375 C6.18551351,7.6578125 6.25394595,7.69875 6.30940541,7.75125 C6.36616216,7.803125 6.40994595,7.865 6.44010811,7.93625 C6.47124324,8.0084375 6.48648649,8.0853125 6.48648649,8.169375 C6.48648649,8.25375 6.47124324,8.330625 6.44010811,8.400625 C6.40962162,8.4709375 6.36583784,8.5315625 6.30940541,8.584375 C6.25394595,8.63625 6.18551351,8.676875 6.10443243,8.706875 C6.02464865,8.735625 5.93513514,8.75 5.83589189,8.75 C5.73632432,8.75 5.64778378,8.735625 5.56864865,8.7065625 C5.49016216,8.6765625 5.42172973,8.6359375 5.36627027,8.5840625 C5.30951351,8.53125 5.26572973,8.470625 5.23556757,8.4003125 C5.20443243,8.3303125 5.18918919,8.2534375 5.18918919,8.169375 L5.18918919,8.169375 Z M6.31783784,6.875 L5.35362162,6.875 L5.21708108,3.125 L6.45405405,3.125 L6.31783784,6.875 Z" id="Shape" fill="#5D4037"></path>
                            </g>
                        </g>
                    </g>
                </g>
            </g>
        </g>
    </g>
</svg>