<svg xmlns="http://www.w3.org/2000/svg" width="20" height="20" viewBox="0 0 20 20">
    <path fill="#7EB69F" fill-rule="evenodd" d="M7.803 12.612l7.23-7.279.967.968-8.197 8.196L4 10.694l.918-.967 2.885 2.885zM10 18.029a7.814 7.814 0 0 0 4.038-1.106 7.785 7.785 0 0 0 2.885-2.885A7.814 7.814 0 0 0 18.03 10a7.814 7.814 0 0 0-1.106-4.038 7.785 7.785 0 0 0-2.885-2.885A7.814 7.814 0 0 0 10 1.97a7.814 7.814 0 0 0-4.038 1.106 7.785 7.785 0 0 0-2.885 2.885A7.814 7.814 0 0 0 1.97 10c0 1.442.369 2.788 1.106 4.038a7.785 7.785 0 0 0 2.885 2.885A7.814 7.814 0 0 0 10 18.03zM10 0c1.827 0 3.518.457 5.072 1.37a9.478 9.478 0 0 1 3.558 3.558A9.835 9.835 0 0 1 20 10a9.835 9.835 0 0 1-1.37 5.072 9.478 9.478 0 0 1-3.558 3.558A9.835 9.835 0 0 1 10 20a9.835 9.835 0 0 1-5.072-1.37 9.657 9.657 0 0 1-3.558-3.582A9.79 9.79 0 0 1 0 10a9.79 9.79 0 0 1 1.37-5.048A9.842 9.842 0 0 1 4.952 1.37 9.79 9.79 0 0 1 10 0z"/>
</svg>
