<?xml version="1.0" encoding="UTF-8" standalone="no"?>
<svg width="18px" height="18px" viewBox="0 0 18 18" version="1.1" xmlns="http://www.w3.org/2000/svg" xmlns:xlink="http://www.w3.org/1999/xlink">
    <!-- Generator: sketchtool 40.3 (33839) - http://www.bohemiancoding.com/sketch -->
    <title>B5883A51-630A-4D91-A7C5-C1F02E4E782C</title>
    <desc>Created with sketchtool.</desc>
    <defs></defs>
    <g id="Symbols" stroke="none" stroke-width="1" fill="none" fill-rule="evenodd">
        <g id="BottomNav-Active" transform="translate(-226.000000, -11.000000)">
            <g id="Bottom-Navigation">
                <g id="tab-Item-3" transform="translate(190.000000, 0.000000)">
                    <g id="favoritos-inactivo" transform="translate(33.000000, 8.000000)">
                        <polygon id="bounds" points="0 0 24 0 24 24 0 24"></polygon>
                        <path d="M21,9.97542521 C21,10.141777 20.9062502,10.3232514 20.7187499,10.519849 L16.7920672,14.5349716 L17.7223556,20.2060492 C17.7295673,20.2589792 17.7331728,20.3345935 17.7331728,20.432892 C17.7331728,20.5916821 17.6953127,20.7258979 17.6195912,20.8355384 C17.5438704,20.945179 17.4338944,21 17.2896632,21 C17.1526443,21 17.0084137,20.9546309 16.8569708,20.863894 L11.9999997,18.1871454 L7.14302859,20.863894 C6.98437521,20.9546309 6.84014398,21 6.71033684,21 C6.55889389,21 6.44531232,20.945179 6.36959149,20.8355384 C6.29387001,20.7258979 6.25600928,20.5916821 6.25600928,20.432892 C6.25600928,20.3875235 6.263221,20.3119093 6.27764444,20.2060492 L7.20793281,14.5349716 L3.27043283,10.519849 C3.09014428,10.3156898 3,10.1342154 3,9.97542521 C3,9.69565235 3.20192308,9.52173892 3.60576923,9.45368629 L9.03605775,8.62570914 L11.4699519,3.46502839 C11.6069708,3.15500969 11.7836538,3 11.9999997,3 C12.2163462,3 12.3930286,3.15500969 12.5300481,3.46502839 L14.9639422,8.62570914 L20.3942308,9.45368629 C20.7980769,9.52173892 21,9.69565235 21,9.97542521 L21,9.97542521 Z" id="Shape" fill="#F59100"></path>
                    </g>
                </g>
            </g>
        </g>
    </g>
</svg>