<?xml version="1.0" encoding="UTF-8" standalone="no"?>
<svg width="16px" height="16px" viewBox="0 0 16 16" version="1.1" xmlns="http://www.w3.org/2000/svg" xmlns:xlink="http://www.w3.org/1999/xlink">
    <!-- Generator: sketchtool 40.3 (33839) - http://www.bohemiancoding.com/sketch -->
    <title>88B9675C-3535-4C8D-9980-E4E3DAB51C02</title>
    <desc>Created with sketchtool.</desc>
    <defs></defs>
    <g id="App-iOS" stroke="none" stroke-width="1" fill="none" fill-rule="evenodd">
        <g id="Buscar-destino" transform="translate(-26.000000, -153.000000)" fill="#FFCA28">
            <g id="Group-6-Copy" transform="translate(16.000000, 134.000000)">
                <g id="Group-5" transform="translate(10.000000, 10.000000)">
                    <path d="M15.7499999,15.6843102 L12.2596153,19.2533081 L13.0865383,24.2942659 C13.0929487,24.3413149 13.0961536,24.4085275 13.0961536,24.495904 C13.0961536,24.6370508 13.0625002,24.7563536 12.9951922,24.8538119 C12.9278848,24.9512702 12.8301283,25 12.7019228,25 C12.5801283,25 12.4519233,24.9596719 12.3173073,24.8790169 L7.99999971,22.4996848 L3.68269208,24.8790169 C3.54166685,24.9596719 3.41346132,25 3.29807719,25 C3.16346124,25 3.06249984,24.9512702 2.99519244,24.8538119 C2.92788446,24.7563536 2.89423047,24.6370508 2.89423047,24.495904 C2.89423047,24.4555765 2.90064089,24.3883638 2.91346173,24.2942659 L3.74038472,19.2533081 L0.240384737,15.6843102 C0.0801282457,15.5028353 0,15.3415248 0,15.200378 C0,14.951691 0.179487179,14.7971013 0.538461536,14.73661 L5.36538467,14.0006303 L7.52884616,9.41335857 C7.6506407,9.13778639 7.80769227,9 7.99999971,9 C8.19230773,9 8.34935873,9.13778639 8.47115384,9.41335857 L10.6346153,14.0006303 L15.4615385,14.73661 C15.8205128,14.7971013 16,14.951691 16,15.200378 C16,15.3482462 15.9166668,15.5095568 15.7499999,15.6843102 Z" id="favorite-filled"></path>
                </g>
            </g>
        </g>
    </g>
</svg>