<?xml version="1.0" encoding="UTF-8" standalone="no"?>
<svg width="12px" height="12px" viewBox="0 0 12 12" version="1.1" xmlns="http://www.w3.org/2000/svg" xmlns:xlink="http://www.w3.org/1999/xlink">
    <!-- Generator: sketchtool 40.3 (33839) - http://www.bohemiancoding.com/sketch -->
    <title>D633D17E-10B3-4F35-AA3C-52AAB622CC9F</title>
    <desc>Created with sketchtool.</desc>
    <defs></defs>
    <g id="Symbols" stroke="none" stroke-width="1" fill="none" fill-rule="evenodd">
        <g id="destino-favorito" transform="translate(0.000000, -11.000000)" fill="#FFCA28">
            <g id="favorite-filled">
                <path d="M11.7522321,15.933036 L9.14779971,18.5669644 L9.76482771,22.2872027 C9.769611,22.3219249 9.77200243,22.371528 9.77200243,22.436012 C9.77200243,22.5401787 9.74689114,22.6282244 9.69666771,22.7001489 C9.64644471,22.7720733 9.57350143,22.808036 9.47783786,22.808036 C9.386958,22.808036 9.29129486,22.7782738 9.190848,22.7187502 L5.96938757,20.9627978 L2.74792714,22.7187502 C2.64269786,22.7782738 2.54703429,22.808036 2.46093771,22.808036 C2.36049086,22.808036 2.28515614,22.7720733 2.23493314,22.7001489 C2.18470971,22.6282244 2.159598,22.5401787 2.159598,22.436012 C2.159598,22.4062502 2.16438129,22.3566471 2.17394786,22.2872027 L2.79097586,18.5669644 L0.179368714,15.933036 C0.0597895714,15.7991071 0,15.6800596 0,15.5758929 C0,15.3923613 0.133928571,15.2782738 0.401785714,15.2336311 L4.00350771,14.6904764 L5.61782529,11.3050596 C5.70870514,11.1016867 5.82589286,11 5.96938757,11 C6.11288271,11 6.23007,11.1016867 6.32095029,11.3050596 L7.93526786,14.6904764 L11.5369899,15.2336311 C11.804847,15.2782738 11.9387756,15.3923613 11.9387756,15.5758929 C11.9387756,15.68502 11.8765946,15.8040676 11.7522321,15.933036 Z"></path>
            </g>
        </g>
    </g>
</svg>