<?xml version="1.0" encoding="UTF-8" standalone="no"?>
<svg width="18px" height="18px" viewBox="0 0 18 18" version="1.1" xmlns="http://www.w3.org/2000/svg" xmlns:xlink="http://www.w3.org/1999/xlink">
    <!-- Generator: sketchtool 41.1 (35376) - http://www.bohemiancoding.com/sketch -->
    <title>90716761-527A-4B56-8322-534E2E276F57</title>
    <desc>Created with sketchtool.</desc>
    <defs>
        <path d="M305,11.9754252 C305,12.141777 304.90625,12.3232514 304.71875,12.519849 L300.792067,16.5349716 L301.722356,22.2060492 C301.729567,22.2589792 301.733173,22.3345935 301.733173,22.432892 C301.733173,22.5916821 301.695313,22.7258979 301.619591,22.8355384 C301.54387,22.945179 301.433894,23 301.289663,23 C301.152644,23 301.008414,22.9546309 300.856971,22.863894 L296,20.1871454 L291.143029,22.863894 C290.984375,22.9546309 290.840144,23 290.710337,23 C290.558894,23 290.445312,22.945179 290.369591,22.8355384 C290.29387,22.7258979 290.256009,22.5916821 290.256009,22.432892 C290.256009,22.3875235 290.263221,22.3119093 290.277644,22.2060492 L291.207933,16.5349716 L287.270433,12.519849 C287.090144,12.3156898 287,12.1342154 287,11.9754252 C287,11.6956524 287.201923,11.5217389 287.605769,11.4536863 L293.036058,10.6257091 L295.469952,5.46502839 C295.606971,5.15500969 295.783654,5 296,5 C296.216346,5 296.393029,5.15500969 296.530048,5.46502839 L298.963942,10.6257091 L304.394231,11.4536863 C304.798077,11.5217389 305,11.6956524 305,11.9754252 L305,11.9754252 Z" id="path-1"></path>
        <mask id="mask-2" maskContentUnits="userSpaceOnUse" maskUnits="objectBoundingBox" x="0" y="0" width="18" height="18" fill="white">
            <use xlink:href="#path-1"></use>
        </mask>
    </defs>
    <g id="App-iOS" stroke="none" stroke-width="1" fill="none" fill-rule="evenodd">
        <g id="Agregar-parada---En-curso" transform="translate(-323.000000, -140.000000)" stroke="#FFFFFF" stroke-width="2">
            <g id="search-copy" transform="translate(16.000000, 127.000000)">
                <g id="Group-4" transform="translate(20.000000, 8.000000)">
                    <use id="favorite" mask="url(#mask-2)" xlink:href="#path-1"></use>
                </g>
            </g>
        </g>
    </g>
</svg>