<?xml version="1.0" encoding="UTF-8" standalone="no"?>
<svg width="13px" height="14px" viewBox="0 0 13 14" version="1.1" xmlns="http://www.w3.org/2000/svg" xmlns:xlink="http://www.w3.org/1999/xlink">
    <!-- Generator: sketchtool 40.3 (33839) - http://www.bohemiancoding.com/sketch -->
    <title>63F99B91-A433-4CBE-8F62-EF8F604A3BFC</title>
    <desc>Created with sketchtool.</desc>
    <defs></defs>
    <g id="App-iOS" stroke="none" stroke-width="1" fill="none" fill-rule="evenodd">
        <g id="Favoritos" transform="translate(-16.000000, -398.000000)" fill="#757575">
            <g id="Group-2" transform="translate(16.000000, 398.000000)">
                <g id="Gas-Pump">
                    <path d="M11.578125,0 C10.9714585,0 10.4725407,0.3214326 10.1359375,0.666666667 L8.8359375,2 L9.75,2.9375 L11.0296875,1.625 L11.05,1.60416667 C11.2333969,1.4160674 11.4047914,1.33333333 11.578125,1.33333333 L13,1.33333333 L13,0 L11.578125,0 L11.578125,0 Z M6.5609375,1.72916667 L4.671875,3.66666667 L4.9765625,3.97916667 L1.3609375,7.66666667 L4.1640625,10.5416667 C4.6190625,11.0083333 5.395,11.0083333 5.85,10.5416667 L8.6125,7.70833333 L9.1609375,8.27083333 L9.75,7.66666667 L9.75,5.0625 L9.1,4.33333333 L9.3640625,3.45833333 L8.246875,2.33333333 L7.4140625,2.60416667 L6.5609375,1.72916667 L6.5609375,1.72916667 Z M4.9359375,6.85416667 C5.2446875,6.85416667 5.5615625,6.975 5.7890625,7.20833333 L6.8859375,8.33333333 L5.5859375,9.66666667 C5.2609375,10 4.81,10 4.55,9.66666667 L3.128125,8.20833333 L4.103125,7.20833333 C4.330625,6.975 4.6271875,6.85416667 4.9359375,6.85416667 L4.9359375,6.85416667 Z M5.3828125,7.64583333 C5.2771875,7.64583333 5.175625,7.69166667 5.078125,7.79166667 C4.623125,8.25833333 4.103125,8.79583333 4.103125,8.72916667 C4.883125,8.4625 5.533125,8.20833333 6.053125,8.20833333 L5.646875,7.79166667 C5.581875,7.69166667 5.4884375,7.64583333 5.3828125,7.64583333 L5.3828125,7.64583333 Z M1.1578125,8.33333333 C0.47067488,9.03809 0,10.0011907 0,11.125 C0,11.925 0.2273375,12.7345 0.7109375,13.3958333 L1.746875,12.6041667 C1.450475,12.1988333 1.3,11.6583333 1.3,11.125 C1.3,10.3821427 1.60932512,9.76607667 2.0921875,9.27083333 L1.1578125,8.33333333 L1.1578125,8.33333333 Z" id="Shape"></path>
                </g>
            </g>
        </g>
    </g>
</svg>