<?xml version="1.0" encoding="UTF-8" standalone="no"?>
<svg width="16px" height="17px" viewBox="0 0 16 17" version="1.1" xmlns="http://www.w3.org/2000/svg" xmlns:xlink="http://www.w3.org/1999/xlink">
    <!-- Generator: sketchtool 40.3 (33839) - http://www.bohemiancoding.com/sketch -->
    <title>709FB09C-E451-4512-80FF-2E0122F9CDF8</title>
    <desc>Created with sketchtool.</desc>
    <defs></defs>
    <g id="Symbols" stroke="none" stroke-width="1" fill="none" fill-rule="evenodd">
        <g id="BottomNav-Inactive" transform="translate(-132.000000, -11.000000)">
            <g id="Bottom-Navigation">
                <g id="tab-Item-2" transform="translate(95.000000, 0.000000)">
                    <g id="estaciones-inactivo" transform="translate(33.000000, 8.000000)">
                        <rect id="bounds" x="0" y="0" width="24" height="24"></rect>
                        <path d="M6.4375,3 C5.44683333,3 4.66666667,3.79577 4.66666667,4.80625 L4.66666667,17.28 L15,17.28 L15,4.80625 C15,3.79577 14.2198333,3 13.2291667,3 L6.4375,3 L6.4375,3 Z M6.96875,4.7 L12.6979167,4.7 C13.03125,4.7 13.3333333,5.008125 13.3333333,5.348125 L13.3333333,8.811875 C13.3333333,9.151875 13.03125,9.46 12.6979167,9.46 L6.96875,9.46 C6.63541667,9.46 6.33333333,9.151875 6.33333333,8.811875 L6.33333333,5.348125 C6.33333333,5.008125 6.63541667,4.7 6.96875,4.7 L6.96875,4.7 Z M15.90625,4.795625 L15.4270833,5.284375 L17.3333333,7.218125 L17.3333333,10.001875 C17.3333333,10.387775 17.4904167,10.788975 17.7604167,11.064375 L19.3333333,12.658125 L19.3333333,15.24 C19.3333333,16.00262 18.7476667,16.6 18,16.6 C17.2523333,16.6 16.6666667,16.00262 16.6666667,15.24 L16.6666667,13.54 C16.6666667,12.63628 16.117,11.891595 15.3333333,11.616875 L15.3333333,12.360625 C15.733,12.593185 16,13.02796 16,13.54 L16,15.24 C16,16.38376 16.8786667,17.28 18,17.28 C19.1213333,17.28 20,16.38376 20,15.24 L20,9.598125 C20,9.212225 19.8429167,8.811025 19.5729167,8.535625 L15.90625,4.795625 L15.90625,4.795625 Z M4.33333333,17.96 C4.14933333,17.96 4,18.11198 4,18.3 L4,19.66 C4,19.84802 4.14933333,20 4.33333333,20 L15.3333333,20 C15.5176667,20 15.6666667,19.84802 15.6666667,19.66 L15.6666667,18.3 C15.6666667,18.11198 15.5176667,17.96 15.3333333,17.96 L4.33333333,17.96 L4.33333333,17.96 Z" id="Shape" fill="#757575"></path>
                    </g>
                </g>
            </g>
        </g>
    </g>
</svg>