<?xml version="1.0" encoding="UTF-8" standalone="no"?>
<svg width="15px" height="15px" viewBox="0 0 15 15" version="1.1" xmlns="http://www.w3.org/2000/svg" xmlns:xlink="http://www.w3.org/1999/xlink">
    <!-- Generator: sketchtool 41.1 (35376) - http://www.bohemiancoding.com/sketch -->
    <title>61E0C8B9-74FC-47FF-A95E-472C06659CAE</title>
    <desc>Created with sketchtool.</desc>
    <defs></defs>
    <g id="App-iOS" stroke="none" stroke-width="1" fill="none" fill-rule="evenodd">
        <g id="Agregar-parada" transform="translate(-324.000000, -272.000000)" fill="#757575">
            <g id="location-copy" transform="translate(313.000000, 262.000000)">
                <g id="location" transform="translate(11.285714, 10.285714)">
                    <g id="gas-station">
                        <path d="M2.12452254,0.038961039 C1.2768933,0.038961039 0.609371021,0.719833766 0.609371021,1.58441558 L0.609371021,12.2571429 L9.45072574,12.2571429 L9.45072574,1.58441558 C9.45072574,0.719833766 8.78320346,0.038961039 7.93557423,0.038961039 L2.12452254,0.038961039 L2.12452254,0.038961039 Z M2.57906799,1.49350649 L7.48102878,1.49350649 C7.76623377,1.49350649 8.02470079,1.75714286 8.02470079,2.04805195 L8.02470079,5.01168831 C8.02470079,5.3025974 7.76623377,5.56623377 7.48102878,5.56623377 L2.57906799,5.56623377 C2.293863,5.56623377 2.03539598,5.3025974 2.03539598,5.01168831 L2.03539598,2.04805195 C2.03539598,1.75714286 2.293863,1.49350649 2.57906799,1.49350649 L2.57906799,1.49350649 Z M10.2261268,1.57532468 L9.81614464,1.99350649 L11.4471607,3.64805195 L11.4471607,6.02987013 C11.4471607,6.36005195 11.5815635,6.70332468 11.8125796,6.93896104 L13.1583906,8.3025974 L13.1583906,10.5116883 C13.1583906,11.1641974 12.6572855,11.6753247 12.0175707,11.6753247 C11.3778559,11.6753247 10.8767507,11.1641974 10.8767507,10.5116883 L10.8767507,9.05714286 C10.8767507,8.28390649 10.4064477,7.64674286 9.73593074,7.41168831 L9.73593074,8.04805195 C10.0778915,8.24703377 10.3063407,8.61903377 10.3063407,9.05714286 L10.3063407,10.5116883 C10.3063407,11.4903065 11.0581411,12.2571429 12.0175707,12.2571429 C12.9770003,12.2571429 13.7288006,11.4903065 13.7288006,10.5116883 L13.7288006,5.68441558 C13.7288006,5.35423377 13.5943978,5.01096104 13.3633817,4.77532468 L10.2261268,1.57532468 L10.2261268,1.57532468 Z M0.32416603,12.838961 C0.166732875,12.838961 0.038961039,12.9689974 0.038961039,13.1298701 L0.038961039,14.2935065 C0.038961039,14.4543792 0.166732875,14.5844156 0.32416603,14.5844156 L9.73593074,14.5844156 C9.8936491,14.5844156 10.0211357,14.4543792 10.0211357,14.2935065 L10.0211357,13.1298701 C10.0211357,12.9689974 9.8936491,12.838961 9.73593074,12.838961 L0.32416603,12.838961 L0.32416603,12.838961 Z" id="Shape"></path>
                    </g>
                </g>
            </g>
        </g>
    </g>
</svg>