<?xml version="1.0" encoding="UTF-8" standalone="no"?>
<svg width="15px" height="17px" viewBox="0 0 15 17" version="1.1" xmlns="http://www.w3.org/2000/svg" xmlns:xlink="http://www.w3.org/1999/xlink">
    <!-- Generator: sketchtool 41.2 (35397) - http://www.bohemiancoding.com/sketch -->
    <title>C46C7F77-7016-4A0F-90D5-BBCFD90A54EF</title>
    <desc>Created with sketchtool.</desc>
    <defs></defs>
    <g id="App-iOS" stroke="none" stroke-width="1" fill="none" fill-rule="evenodd">
        <g id="Cuenta" transform="translate(-20.000000, -564.000000)">
            <g id="Table-Cells-with-Icons-Copy" transform="translate(0.000000, 377.000000)">
                <g id="Table-Cell" transform="translate(0.000000, 176.000000)">
                    <g id="gender" transform="translate(15.000000, 7.000000)">
                        <rect id="Bounds" fill-opacity="0" fill="#D8D8D8" x="0" y="0" width="25" height="25"></rect>
                        <path d="M12.5,4 C9.609389,4 7.25,6.4308851 7.25,9.40909091 C7.25,11.2704696 8.17337,12.9266382 9.5703125,13.9005682 C6.89495982,15.0827119 5,17.8173388 5,21 L6.5,21 C6.5,17.5763035 9.1770005,14.8181818 12.5,14.8181818 C15.8229995,14.8181818 18.5,17.5763035 18.5,21 L20,21 C20,17.8173388 18.1050402,15.0827119 15.4296875,13.9005682 C16.82663,12.9266382 17.75,11.2704696 17.75,9.40909091 C17.75,6.4308851 15.390611,4 12.5,4 Z M12.5,5.54545455 C14.579951,5.54545455 16.25,7.26611086 16.25,9.40909091 C16.25,11.5520707 14.579951,13.2727273 12.5,13.2727273 C10.420049,13.2727273 8.75,11.5520707 8.75,9.40909091 C8.75,7.26611086 10.420049,5.54545455 12.5,5.54545455 Z" id="Shape" fill="#2D6CA9"></path>
                    </g>
                </g>
            </g>
        </g>
    </g>
</svg>