<?xml version="1.0" encoding="UTF-8" standalone="no"?>
<svg width="10px" height="10px" viewBox="0 0 10 10" version="1.1" xmlns="http://www.w3.org/2000/svg" xmlns:xlink="http://www.w3.org/1999/xlink">
    <!-- Generator: sketchtool 41.2 (35397) - http://www.bohemiancoding.com/sketch -->
    <title>064D6B49-92A8-44AA-8A81-613A17C86574</title>
    <desc>Created with sketchtool.</desc>
    <defs></defs>
    <g id="App-iOS" stroke="none" stroke-width="1" fill="none" fill-rule="evenodd">
        <g id="Home---Error" transform="translate(-33.000000, -211.000000)" fill="#4C9B00">
            <g id="Group-6" transform="translate(16.000000, 134.000000)">
                <g id="Group-5" transform="translate(16.000000, 72.000000)">
                    <g id="Group-2" transform="translate(0.000000, 4.000000)">
                        <g id="checkmark" transform="translate(1.000000, 1.000000)">
                            <path d="M9.76220191,0.728210772 L8.86413136,0.0962671841 C8.61647403,-0.0768822485 8.27725853,-0.0100071682 8.11015236,0.245051277 L3.71385941,6.96314558 L1.69307561,4.86928163 C1.48194147,4.65154881 1.13772279,4.65154881 0.926088342,4.86928163 L0.159101077,5.66556166 C-0.0530336922,5.88484971 -0.0530336922,6.2409984 0.159101077,6.46080486 L3.26557461,9.68117694 C3.44018554,9.86106572 3.71335909,10 3.95951547,10 C4.20567185,10 4.45382951,9.83929244 4.6134309,9.59874952 L9.90679377,1.50842004 C10.0744002,1.2533616 10.0098592,0.902397028 9.76220191,0.728210772 Z" id="Shape"></path>
                        </g>
                    </g>
                </g>
            </g>
        </g>
    </g>
</svg>