<?xml version="1.0" encoding="UTF-8" standalone="no"?>
<svg width="12px" height="13px" viewBox="0 0 12 13" version="1.1" xmlns="http://www.w3.org/2000/svg" xmlns:xlink="http://www.w3.org/1999/xlink">
    <!-- Generator: sketchtool 41 (35326) - http://www.bohemiancoding.com/sketch -->
    <title>1300CD39-7192-480D-A4C7-148823F3C9BB</title>
    <desc>Created with sketchtool.</desc>
    <defs></defs>
    <g id="App-iOS" stroke="none" stroke-width="1" fill="none" fill-rule="evenodd">
        <g id="Compra" transform="translate(-16.000000, -250.000000)" fill="#757575">
            <g id="Group-4-Copy" transform="translate(16.000000, 249.000000)">
                <g id="Group-3">
                    <g id="load" transform="translate(0.000000, 1.000000)">
                        <path d="M3.73125,0 L2.86875,0.870535714 L4.5375,2.5922619 L1.0875,6.05505952 L1.06875,6.05505952 C0.37661796,6.76916376 0.37661796,7.95256243 1.06875,8.66666667 L1.10625,8.70535714 L4.14375,11.8199405 C4.8358818,12.5340447 5.9375634,12.5807878 6.6,11.8973214 L9.65625,8.72470238 C10.3483818,8.01059814 10.3483818,6.84654471 9.65625,6.13244048 L8.45625,4.89434524 L5.83125,2.16666667 L5.4,1.72172619 L3.73125,0 Z M5.38125,3.46279762 L7.6125,5.76488095 L8.8125,7.00297619 C8.9464338,7.14116186 9.01875,7.28486695 9.01875,7.42857143 L1.74375,7.42857143 C1.72263756,7.26508962 1.77877134,7.10225967 1.93125,6.94494048 L5.38125,3.46279762 Z M10.8,8.66666667 C10.8,8.66666667 9.6,10.4619048 9.6,11.1428571 C9.6,11.8238095 10.14,12.3809524 10.8,12.3809524 C11.46,12.3809524 12,11.8238095 12,11.1428571 C12,10.4619048 10.8,8.66666667 10.8,8.66666667 Z" id="Shape"></path>
                    </g>
                </g>
            </g>
        </g>
    </g>
</svg>