<?xml version="1.0" encoding="UTF-8" standalone="no"?>
<svg width="16px" height="19px" viewBox="0 0 16 19" version="1.1" xmlns="http://www.w3.org/2000/svg" xmlns:xlink="http://www.w3.org/1999/xlink">
    <!-- Generator: sketchtool 41 (35326) - http://www.bohemiancoding.com/sketch -->
    <title>54D818C0-603C-4517-BC74-C47440987CC0</title>
    <desc>Created with sketchtool.</desc>
    <defs></defs>
    <g id="App-iOS" stroke="none" stroke-width="1" fill="none" fill-rule="evenodd">
        <g id="Cuenta" transform="translate(-20.000000, -248.000000)">
            <g id="Table-Cells-with-Icons" transform="translate(0.000000, 106.000000)">
                <g id="Table-Cell-Copy-2" transform="translate(0.000000, 132.000000)">
                    <g id="password" transform="translate(15.000000, 7.000000)">
                        <rect id="Bounds" fill-opacity="0" fill="#D8D8D8" x="0" y="0" width="25" height="25"></rect>
                        <path d="M13,3 C11.0511215,3 9.50630335,3.60933185 8.52272727,4.71274038 C7.5391512,5.81614894 7.18181818,7.26892526 7.18181818,8.77764423 L7.18181818,9.57692308 L9.36363636,9.57692308 L9.36363636,8.77764423 C9.36363636,7.61174782 9.62593971,6.74688952 10.1363636,6.17427885 C10.6467876,5.60166817 11.4703331,5.19230769 13,5.19230769 C14.5317956,5.19230769 15.3547265,5.5822729 15.8636364,6.15144231 C16.3725462,6.72061172 16.6363636,7.60021569 16.6363636,8.77764423 L16.6363636,9.57692308 L18.8181818,9.57692308 L18.8181818,8.77764423 C18.8181818,7.25999585 18.4623629,5.79163828 17.4772727,4.68990385 C16.4921825,3.58816938 14.9467498,3 13,3 Z M7.18181818,10.3076923 C5.97745455,10.3076923 5,11.2898462 5,12.5 L5,19.8076923 C5,21.0178462 5.97745455,22 7.18181818,22 L18.8181818,22 C20.0225455,22 21,21.0178462 21,19.8076923 L21,12.5 C21,11.2898462 20.0225455,10.3076923 18.8181818,10.3076923 L7.18181818,10.3076923 Z M8.63636364,14.6923077 C9.43927273,14.6923077 10.0909091,15.3463462 10.0909091,16.1538462 C10.0909091,16.9606154 9.43927273,17.6153846 8.63636364,17.6153846 C7.83345455,17.6153846 7.18181818,16.9606154 7.18181818,16.1538462 C7.18181818,15.3463462 7.83345455,14.6923077 8.63636364,14.6923077 Z M13,14.6923077 C13.8029091,14.6923077 14.4545455,15.3463462 14.4545455,16.1538462 C14.4545455,16.9606154 13.8029091,17.6153846 13,17.6153846 C12.1970909,17.6153846 11.5454545,16.9606154 11.5454545,16.1538462 C11.5454545,15.3463462 12.1970909,14.6923077 13,14.6923077 Z M17.3636364,14.6923077 C18.1665455,14.6923077 18.8181818,15.3463462 18.8181818,16.1538462 C18.8181818,16.9606154 18.1665455,17.6153846 17.3636364,17.6153846 C16.5607273,17.6153846 15.9090909,16.9606154 15.9090909,16.1538462 C15.9090909,15.3463462 16.5607273,14.6923077 17.3636364,14.6923077 Z" id="Shape" fill="#2D6CA9"></path>
                    </g>
                </g>
            </g>
        </g>
    </g>
</svg>