<?xml version="1.0" encoding="UTF-8" standalone="no"?>
<svg width="18px" height="18px" viewBox="0 0 18 18" version="1.1" xmlns="http://www.w3.org/2000/svg" xmlns:xlink="http://www.w3.org/1999/xlink">
    <!-- Generator: sketchtool 41 (35326) - http://www.bohemiancoding.com/sketch -->
    <title>54D818C0-603C-4517-BC74-C47440987CC0</title>
    <desc>Created with sketchtool.</desc>
    <defs></defs>
    <g id="App-iOS" stroke="none" stroke-width="1" fill="none" fill-rule="evenodd">
        <g id="Cuenta" transform="translate(-19.000000, -293.000000)">
            <g id="Table-Cells-with-Icons" transform="translate(0.000000, 106.000000)">
                <g id="Table-Cell-Copy-2" transform="translate(0.000000, 176.000000)">
                    <g id="password" transform="translate(15.000000, 7.000000)">
                        <rect id="Bounds" fill-opacity="0" fill="#D8D8D8" x="0" y="0" width="25" height="25"></rect>
                        <g id="logout" transform="translate(4.000000, 4.000000)" fill="#2D6CA9">
                            <path d="M9.02781962,0 C6.51138692,0 4.18110643,1.0125 2.45994902,2.859375 C2.17734293,3.162375 2.19188607,3.64340625 2.49513404,3.92578125 C2.79838201,4.20740625 3.27980693,4.194 3.56241301,3.890625 C4.99608534,2.352 6.93285655,1.5 9.02781962,1.5 C13.1453115,1.5 16.4987724,4.8645 16.4987724,9 C16.4987724,13.1355 13.1453115,16.5 9.02781962,16.5 C6.92047143,16.5 4.97412989,15.6395625 3.53895633,14.0859375 C3.25747617,13.7818125 2.77680186,13.7695312 2.47167736,14.0507812 C2.16730347,14.3316562 2.15538748,14.8009688 2.43649234,15.1054688 C4.13400541,16.9429687 6.53353002,18 9.02781962,18 C13.9732385,18 18,13.96275 18,9 C18,4.037625 13.9732385,0 9.02781962,0 Z M3.37475957,5.625 C3.18260244,5.625 2.99372925,5.70103125 2.84698425,5.84765625 L0.219836012,8.47265625 C-0.0732786706,8.76553125 -0.0732786706,9.23446875 0.219836012,9.52734375 L2.84698425,12.1523438 C3.14009894,12.4452188 3.60979551,12.4452188 3.90253489,12.1523438 C4.19564957,11.8594688 4.19564957,11.3905312 3.90253489,11.0976562 L2.55377574,9.75 L8.9926346,9.75 C9.40697341,9.75 9.74324839,9.414 9.74324839,9 C9.74324839,8.586 9.40697341,8.25 8.9926346,8.25 L2.55377574,8.25 L3.90253489,6.90234375 C4.19564957,6.60946875 4.19564957,6.14053125 3.90253489,5.84765625 C3.7561652,5.70103125 3.5669167,5.625 3.37475957,5.625 Z" id="Shape"></path>
                        </g>
                    </g>
                </g>
            </g>
        </g>
    </g>
</svg>