<?xml version="1.0" encoding="UTF-8" standalone="no"?>
<svg width="8px" height="12px" viewBox="0 0 8 12" version="1.1" xmlns="http://www.w3.org/2000/svg" xmlns:xlink="http://www.w3.org/1999/xlink">
    <!-- Generator: sketchtool 40.3 (33839) - http://www.bohemiancoding.com/sketch -->
    <title>BB5077C6-7B10-41A3-B7A5-99A891411418</title>
    <desc>Created with sketchtool.</desc>
    <defs></defs>
    <g id="App-iOS" stroke="none" stroke-width="1" fill="none" fill-rule="evenodd">
        <g id="Buscar-destino" transform="translate(-29.000000, -316.000000)" fill="#C0C0C0">
            <g id="Group-6-Copy" transform="translate(16.000000, 134.000000)">
                <g id="Group-5-Copy" transform="translate(12.000000, 171.000000)">
                    <g id="pin-list" transform="translate(0.000000, 9.000000)">
                        <path d="M5,2 C2.7945,2 1,3.7945 1,6 C1,9.5285 4.65675,13.7365625 4.8125,13.9140625 C4.86,13.9683125 4.928,14 5,14 C5.0775,13.99475 5.14,13.9690625 5.1875,13.9140625 C5.34325,13.7335625 9,9.45325 9,6 C9,3.7945 7.2055,2 5,2 L5,2 Z M5,4.75 C5.82825,4.75 6.5,5.42175 6.5,6.25 C6.5,7.07825 5.82825,7.75 5,7.75 C4.17175,7.75 3.5,7.07825 3.5,6.25 C3.5,5.42175 4.17175,4.75 5,4.75 L5,4.75 Z" id="Shape"></path>
                    </g>
                </g>
            </g>
        </g>
    </g>
</svg>