<?xml version="1.0" encoding="UTF-8" standalone="no"?>
<svg width="17px" height="17px" viewBox="0 0 17 17" version="1.1" xmlns="http://www.w3.org/2000/svg" xmlns:xlink="http://www.w3.org/1999/xlink">
    <!-- Generator: sketchtool 40.3 (33839) - http://www.bohemiancoding.com/sketch -->
    <title>E6CDD843-1292-402D-B101-DEDAA9BAD408</title>
    <desc>Created with sketchtool.</desc>
    <defs></defs>
    <g id="Symbols" stroke="none" stroke-width="1" fill="none" fill-rule="evenodd">
        <g id="BottomNav-Inactive" transform="translate(-37.000000, -12.000000)">
            <g id="Bottom-Navigation">
                <g id="tab-Item-1">
                    <g id="viajar-activo" transform="translate(33.000000, 8.000000)">
                        <rect id="bounds" x="0" y="0" width="24" height="24"></rect>
                        <path d="M13.52,4 C11.64524,4 10.12,5.52487403 10.12,7.3991842 C10.12,10.3303007 13.13682,13.9287621 13.265,14.0807056 C13.32994,14.1568474 13.42004,14.1975526 13.52,14.1975526 C13.6203,14.1972127 13.721025,14.1472447 13.785625,14.0700832 C13.913465,13.9157602 16.92,10.2633368 16.92,7.3991842 C16.92,5.52487403 15.39476,4 13.52,4 L13.52,4 Z M4.329375,6.03951052 C4.272425,6.04205991 4.209695,6.06169019 4.159375,6.09262277 C4.059415,6.15482784 4,6.26147725 4,6.37942894 L4,18.616492 C4,18.7453211 4.07599,18.866757 4.19125,18.9245431 L8.27125,20.9640536 C8.36679,21.0119821 8.47287,21.0119821 8.56875,20.9640536 L12.510625,18.9989003 L16.781875,20.9640536 C16.826755,20.9847887 16.87138,20.995921 16.92,20.995921 C16.9761,20.995921 17.028715,20.9809646 17.079375,20.9534312 L20.819375,18.9139207 C20.928515,18.8544349 21,18.7409022 21,18.616492 L21,6.37942894 C21,6.25943773 20.93268,6.14318564 20.83,6.08200032 C20.72664,6.02047509 20.605685,6.02455411 20.500625,6.08200032 L17.589375,7.66474546 C17.426515,10.6594267 14.63401,14.1106185 14.30625,14.5056037 C14.11177,14.7384478 13.826,14.8763697 13.52,14.8773894 C13.21978,14.8773894 12.939535,14.746011 12.744375,14.5162261 C12.412875,14.1239602 9.558405,10.6567074 9.450625,7.57976586 L8.430625,8.04715368 L4.48875,6.07137787 C4.43605,6.04520415 4.386325,6.03696113 4.329375,6.03951052 L4.329375,6.03951052 Z M13.52,6.37942894 C14.27106,6.37942894 14.88,6.98822283 14.88,7.73910262 C14.88,8.4899824 14.27106,9.09877629 13.52,9.09877629 C12.76894,9.09877629 12.16,8.4899824 12.16,7.73910262 C12.16,6.98822283 12.76894,6.37942894 13.52,6.37942894 L13.52,6.37942894 Z" id="Shape" fill="#757575"></path>
                    </g>
                </g>
            </g>
        </g>
    </g>
</svg>