<?xml version="1.0" encoding="UTF-8" standalone="no"?>
<svg width="17px" height="18px" viewBox="0 0 17 18" version="1.1" xmlns="http://www.w3.org/2000/svg" xmlns:xlink="http://www.w3.org/1999/xlink">
    <!-- Generator: sketchtool 41 (35326) - http://www.bohemiancoding.com/sketch -->
    <title>8065F5E5-32E9-4BA1-B0FE-1490124C5D59</title>
    <desc>Created with sketchtool.</desc>
    <defs></defs>
    <g id="App-iOS" stroke="none" stroke-width="1" fill="none" fill-rule="evenodd">
        <g id="Cuenta" transform="translate(-19.000000, -117.000000)">
            <g id="Table-Cells-with-Icons" transform="translate(0.000000, 106.000000)">
                <g id="Table-Cell">
                    <g id="name" transform="translate(15.000000, 7.000000)">
                        <rect id="Bounds" fill-opacity="0" fill="#D8D8D8" x="0" y="0" width="25" height="25"></rect>
                        <path d="M16.665,16.8930233 C15.9425,16.6 15.05,16.2232558 15.05,15.9302326 L15.05,14.0465116 C16.1125,13.2511628 16.75,11.9953488 16.75,10.6976744 L16.75,8.18604651 C16.75,5.88372093 14.8375,4 12.5,4 C10.1625,4 8.25,5.88372093 8.25,8.18604651 L8.25,10.6976744 C8.25,11.9953488 8.8875,13.2930233 9.95,14.0465116 L9.95,15.9302326 C9.95,16.1813953 9.0575,16.5581395 8.335,16.8930233 C6.5925,17.6046512 4,18.6930233 4,21.5813953 L4,22 L21,22 L21,21.5813953 C21,18.6930233 18.4075,17.6046512 16.665,16.8930233 Z" id="Shape" fill="#2D6CA9"></path>
                    </g>
                </g>
            </g>
        </g>
    </g>
</svg>