<?xml version="1.0" encoding="UTF-8" standalone="no"?>
<svg width="18px" height="18px" viewBox="0 0 18 18" version="1.1" xmlns="http://www.w3.org/2000/svg" xmlns:xlink="http://www.w3.org/1999/xlink">
    <!-- Generator: sketchtool 40.3 (33839) - http://www.bohemiancoding.com/sketch -->
    <title>DD315B9F-DFC3-4B00-9566-5F6B90C61F0D</title>
    <desc>Created with sketchtool.</desc>
    <defs>
        <path d="M325,21.9754252 C325,22.141777 324.90625,22.3232514 324.71875,22.519849 L320.792067,26.5349716 L321.722356,32.2060492 C321.729567,32.2589792 321.733173,32.3345935 321.733173,32.432892 C321.733173,32.5916821 321.695313,32.7258979 321.619591,32.8355384 C321.54387,32.945179 321.433894,33 321.289663,33 C321.152644,33 321.008414,32.9546309 320.856971,32.863894 L316,30.1871454 L311.143029,32.863894 C310.984375,32.9546309 310.840144,33 310.710337,33 C310.558894,33 310.445312,32.945179 310.369591,32.8355384 C310.29387,32.7258979 310.256009,32.5916821 310.256009,32.432892 C310.256009,32.3875235 310.263221,32.3119093 310.277644,32.2060492 L311.207933,26.5349716 L307.270433,22.519849 C307.090144,22.3156898 307,22.1342154 307,21.9754252 C307,21.6956524 307.201923,21.5217389 307.605769,21.4536863 L313.036058,20.6257091 L315.469952,15.4650284 C315.606971,15.1550097 315.783654,15 316,15 C316.216346,15 316.393029,15.1550097 316.530048,15.4650284 L318.963942,20.6257091 L324.394231,21.4536863 C324.798077,21.5217389 325,21.6956524 325,21.9754252 L325,21.9754252 Z" id="path-1"></path>
        <mask id="mask-2" maskContentUnits="userSpaceOnUse" maskUnits="objectBoundingBox" x="0" y="0" width="18" height="18" fill="white">
            <use xlink:href="#path-1"></use>
        </mask>
    </defs>
    <g id="App-iOS" stroke="none" stroke-width="1" fill="none" fill-rule="evenodd">
        <g id="Iniciar-viaje---No-favorito" transform="translate(-323.000000, -89.000000)" stroke="#757575" stroke-width="2">
            <g id="search" transform="translate(16.000000, 74.000000)">
                <use id="favorite" mask="url(#mask-2)" xlink:href="#path-1"></use>
            </g>
        </g>
    </g>
</svg>