<?xml version="1.0" encoding="UTF-8" standalone="no"?>
<svg width="12px" height="12px" viewBox="0 0 12 12" version="1.1" xmlns="http://www.w3.org/2000/svg" xmlns:xlink="http://www.w3.org/1999/xlink">
    <!-- Generator: sketchtool 40.3 (33839) - http://www.bohemiancoding.com/sketch -->
    <title>E70035D0-2F44-409D-8A9C-44E70EDF3E8F</title>
    <desc>Created with sketchtool.</desc>
    <defs></defs>
    <g id="Symbols" stroke="none" stroke-width="1" fill="none" fill-rule="evenodd">
        <g id="Listing-viaje" transform="translate(-595.000000, -22.000000)" fill="#999999">
            <g id="Group-10">
                <g transform="translate(595.000000, 20.000000)">
                    <g id="Group">
                        <g id="nota" transform="translate(0.000000, 2.000000)">
                            <path d="M1.84615385,0 C0.828461538,0 0,0.828461538 0,1.84615385 L0,10.1538462 C0,11.1715385 0.828461538,12 1.84615385,12 L7.84615385,12 C8.33676923,12 9.018,11.2914231 9.80769231,10.4855769 C9.91846154,10.3729615 10.0249615,10.2673846 10.1394231,10.1538462 C10.2529615,10.0393846 10.3729615,9.91846154 10.4855769,9.80769231 C11.2918846,9.01753846 12,8.33676923 12,7.84615385 L12,1.84615385 C12,0.828461538 11.1715385,0 10.1538462,0 L1.84615385,0 L1.84615385,0 Z M1.84615385,0.923076923 L10.1538462,0.923076923 C10.6633846,0.923076923 11.0769231,1.33661538 11.0769231,1.84615385 L11.0769231,7.84615385 C11.0769231,8.30538462 10.6144615,8.30769231 10.1538462,8.30769231 L8.76923077,8.30769231 C8.51492308,8.30769231 8.30769231,8.51492308 8.30769231,8.76923077 L8.30769231,10.1826923 C8.30769231,10.5920769 8.30873077,10.992 7.97596154,11.0769231 L1.84615385,11.0769231 C1.33661538,11.0769231 0.923076923,10.6633846 0.923076923,10.1538462 L0.923076923,1.84615385 C0.923076923,1.33661538 1.33661538,0.923076923 1.84615385,0.923076923 L1.84615385,0.923076923 Z M3.14423077,3.69230769 C2.88933012,3.71620463 2.70206461,3.94221473 2.72596155,4.19711538 C2.74985848,4.45201604 2.97586858,4.63928155 3.23076923,4.61538462 L8.76923077,4.61538462 C8.93567812,4.6177386 9.09049909,4.53028832 9.17440972,4.38652022 C9.25832034,4.24275212 9.25832034,4.06494019 9.17440972,3.92117208 C9.09049909,3.77740398 8.93567812,3.68995371 8.76923077,3.69230769 L3.23076923,3.69230769 C3.21635408,3.69163131 3.20191515,3.69163131 3.1875,3.69230769 C3.17308484,3.69163198 3.15864593,3.69163198 3.14423077,3.69230769 L3.14423077,3.69230769 Z M3.14423077,6 C2.88933012,6.02389694 2.7020646,6.24990704 2.72596154,6.50480769 C2.74985847,6.75970835 2.97586858,6.94697386 3.23076923,6.92307692 L7.84615385,6.92307692 C8.01260119,6.9254309 8.16742217,6.83798063 8.25133279,6.69421253 C8.33524342,6.55044443 8.33524342,6.37263249 8.25133279,6.22886439 C8.16742217,6.08509629 8.01260119,5.99764602 7.84615385,6 L3.23076923,6 C3.21635408,5.99932361 3.20191515,5.99932361 3.1875,6 C3.17308484,5.99932429 3.15864593,5.99932429 3.14423077,6 L3.14423077,6 Z" id="Shape"></path>
                        </g>
                    </g>
                </g>
            </g>
        </g>
    </g>
</svg>