<?xml version="1.0" encoding="UTF-8" standalone="no"?>
<svg width="12px" height="10px" viewBox="0 0 12 10" version="1.1" xmlns="http://www.w3.org/2000/svg" xmlns:xlink="http://www.w3.org/1999/xlink">
    <!-- Generator: sketchtool 40.3 (33839) - http://www.bohemiancoding.com/sketch -->
    <title>201CA252-F629-4CB8-9BF3-3A349B36A138</title>
    <desc>Created with sketchtool.</desc>
    <defs></defs>
    <g id="App-iOS" stroke="none" stroke-width="1" fill="none" fill-rule="evenodd">
        <g id="Iniciar-Viaje---2" transform="translate(-16.000000, -194.000000)" fill="#757575">
            <g id="nota-hashtag" transform="translate(0.000000, 192.000000)">
                <g id="Group-3" transform="translate(16.000000, 0.000000)">
                    <path d="M6,2 C2.68000002,2 0,4.58833 0,7.79476861 C0,8.96659947 0.41137974,10.0444745 0.99375,10.9818913 L2.00625,10.4024145 C1.9990209,10.390778 1.99464894,10.3778719 1.9875,10.3661972 L2.7375,9.94969819 L2.4375,9.46076459 L1.70625,9.85915493 C1.43110668,9.29441416 1.26158946,8.69704306 1.21875,8.08450704 L2.1,8.08450704 L2.1,7.50503018 L1.21875,7.50503018 C1.25915262,6.86850614 1.4129478,6.26749244 1.6875,5.73038229 L2.4375,6.12877264 L2.7375,5.63983903 L1.9875,5.22334004 C2.3397729,4.71018355 2.80476588,4.27672907 3.3375,3.93762575 L3.76875,4.64386318 L4.275,4.35412475 L3.8625,3.64788732 C4.42219884,3.38237821 5.037927,3.21611755 5.7,3.17706237 L5.7,4.02816901 L6.3,4.02816901 L6.3,3.17706237 C6.962073,3.21611755 7.5778014,3.38237821 8.1375,3.64788732 L7.725,4.35412475 L8.23125,4.64386318 L8.6625,3.93762575 C9.195234,4.27672907 9.6602268,4.71018355 10.0125,5.22334004 L9.80625,5.3501006 L10.10625,5.83903421 L10.3125,5.73038229 C10.5870522,6.26749244 10.7408472,6.86850614 10.78125,7.50503018 L9.9,7.50503018 L9.9,8.08450704 L10.78125,8.08450704 C10.7382552,8.72846577 10.5648552,9.32467155 10.29375,9.85915493 L9.5625,9.46076459 L9.2625,9.94969819 L10.0125,10.3661972 C10.008021,10.372995 9.9982578,10.3775335 9.99375,10.3843058 L11.00625,11 C11.6001306,10.1077853 12,9.01776959 12,7.79476861 C12,4.58833 9.3199998,2 6,2 L6,2 Z M9.92481203,6 L6.95488722,7.12087912 C6.74907248,6.97668079 6.48535158,6.89010989 6.20300752,6.89010989 C5.54135338,6.89010989 5,7.36483516 5,7.94505495 C5,8.52527473 5.54135338,9 6.20300752,9 C6.86466165,9 7.40601504,8.52527473 7.40601504,7.94505495 C7.40601504,7.88361969 7.39885654,7.82236747 7.38721805,7.76373626 L10,6.04945055 L9.92481203,6 L9.92481203,6 Z M4,11 L4,12 L9,12 L9,11 L4,11 L4,11 Z" id="kilometraje"></path>
                </g>
            </g>
        </g>
    </g>
</svg>