<?xml version="1.0" encoding="UTF-8" standalone="no"?>
<svg width="17px" height="17px" viewBox="0 0 17 17" version="1.1" xmlns="http://www.w3.org/2000/svg" xmlns:xlink="http://www.w3.org/1999/xlink">
    <!-- Generator: sketchtool 41.2 (35397) - http://www.bohemiancoding.com/sketch -->
    <title>7E0AB14B-E890-44E5-974C-862A31AFD566</title>
    <desc>Created with sketchtool.</desc>
    <defs></defs>
    <g id="App-iOS" stroke="none" stroke-width="1" fill="none" fill-rule="evenodd">
        <g id="Cuenta" transform="translate(-19.000000, -608.000000)">
            <g id="Table-Cells-with-Icons-Copy" transform="translate(0.000000, 377.000000)">
                <g id="Table-Cell-Copy-3" transform="translate(0.000000, 220.000000)">
                    <g id="phone" transform="translate(15.000000, 7.000000)">
                        <rect id="Bounds" fill-opacity="0" fill="#D8D8D8" x="0" y="0" width="25" height="25"></rect>
                        <path d="M9.12562814,4 C9.21105528,4 9.21105528,4 9.29648241,4.08673469 C9.38190955,4.17346939 9.63819095,4.43367347 9.63819095,4.60714286 C9.63819095,4.78061224 9.63819095,5.21428571 9.72361809,5.56122449 C9.89447236,5.99489796 10.0653266,7.12244898 10.321608,7.72959184 C10.5778894,8.33673469 10.6633166,8.68367347 10.4070352,9.03061224 C10.1507538,9.46428571 8.52763819,11.1122449 8.52763819,11.1122449 C8.52763819,11.1122449 8.95477387,11.9795918 9.46733668,12.5 C9.89447236,13.1071429 10.5778894,13.9744898 11.4321608,14.6683673 C12.2864322,15.4489796 13.2261307,16.1428571 14.1658291,16.5765306 C15.1055276,15.622449 15.8743719,14.8418367 16.1306533,14.6683673 C16.3869347,14.494898 16.3869347,14.4081633 16.8140704,14.5816327 C17.241206,14.755102 17.839196,15.0153061 18.5226131,15.1020408 C19.120603,15.1887755 19.8040201,15.2755102 20.2311558,15.3622449 C20.6582915,15.4489796 20.6582915,15.4489796 20.7437186,15.622449 C20.9145729,15.7959184 21,16.0561224 21,16.1428571 L21,17.3571429 L21,19.6989796 C21,19.9591837 21,19.9591837 20.9145729,20.1326531 C20.8291457,20.3061224 20.7437186,20.7397959 20.7437186,20.7397959 C20.7437186,20.8265306 20.3165829,21 20.0603015,21 C19.8040201,21 18.8643216,21 18.2663317,20.9132653 C17.6683417,20.8265306 16.0452261,20.4795918 15.4472362,20.2193878 C14.8492462,20.0459184 12.8844221,19.3520408 10.4924623,17.5306122 C8.27135678,15.7959184 6.64824121,13.4540816 5.70854271,11.5459184 C4.76884422,9.6377551 4.25628141,7.55612245 4.17085427,6.51530612 C4,5.4744898 4,5.04081633 4,4.78061224 C4.08542714,4.52040816 4.34170854,4.26020408 4.51256281,4.17346939 C4.68341709,4.08673469 4.93969849,4 5.1959799,4 L7.07537688,4 C8.01507538,4 9.12562814,4 9.12562814,4 Z" id="Shape" fill="#2D6CA9"></path>
                    </g>
                </g>
            </g>
        </g>
    </g>
</svg>