<?xml version="1.0" encoding="UTF-8" standalone="no"?>
<svg width="14px" height="12px" viewBox="0 0 14 12" version="1.1" xmlns="http://www.w3.org/2000/svg" xmlns:xlink="http://www.w3.org/1999/xlink">
    <!-- Generator: sketchtool 41 (35326) - http://www.bohemiancoding.com/sketch -->
    <title>49FB0D2A-1267-413C-8B83-A76A93E35CC4</title>
    <desc>Created with sketchtool.</desc>
    <defs></defs>
    <g id="Symbols" stroke="none" stroke-width="1" fill="none" fill-rule="evenodd">
        <g id="ticket-upload" transform="translate(-47.000000, -55.000000)" fill="#757575">
            <g id="photo">
                <g transform="translate(47.000000, 55.000000)">
                    <path d="M4.9,0 L3.5,1.33333333 L1.4,1.33333333 C0.63,1.33333333 0,1.93333333 0,2.66666667 L0,10.6666667 C0,11.4 0.63,12 1.4,12 L12.6,12 C13.37,12 14,11.4 14,10.6666667 L14,2.66666667 C14,1.93333333 13.37,1.33333333 12.6,1.33333333 L10.5,1.33333333 L9.1,0 L4.9,0 Z M7,3.33333333 C8.96,3.33333333 10.5,4.8 10.5,6.66666667 C10.5,8.53333333 8.96,10 7,10 C5.04,10 3.5,8.53333333 3.5,6.66666667 C3.5,4.8 5.04,3.33333333 7,3.33333333 Z M7,4.33333333 C5.6469021,4.33333333 4.55,5.378002 4.55,6.66666667 C4.55,7.95533133 5.6469021,9 7,9 C8.3530979,9 9.45,7.95533133 9.45,6.66666667 C9.45,5.378002 8.3530979,4.33333333 7,4.33333333 Z" id="Shape"></path>
                </g>
            </g>
        </g>
    </g>
</svg>