<?xml version="1.0" encoding="UTF-8" standalone="no"?>
<svg width="12px" height="18px" viewBox="0 0 12 18" version="1.1" xmlns="http://www.w3.org/2000/svg" xmlns:xlink="http://www.w3.org/1999/xlink">
    <!-- Generator: sketchtool 40.3 (33839) - http://www.bohemiancoding.com/sketch -->
    <title>BB5077C6-7B10-41A3-B7A5-99A891411418</title>
    <desc>Created with sketchtool.</desc>
    <defs></defs>
    <g id="App-iOS" stroke="none" stroke-width="1" fill="none" fill-rule="evenodd">
        <g id="Buscar-destino" transform="translate(-28.000000, -315.000000)" fill="#C0C0C0">
            <g id="Group-6-Copy" transform="translate(16.000000, 134.000000)">
                <g id="Group-5-Copy" transform="translate(12.000000, 172.000000)">
                    <g id="pin-list" transform="translate(0.000000, 9.000000)">
                        <path d="M6,0 C2.69175,0 0,2.69175 0,6 C0,11.29275 5.485125,17.6048438 5.71875,17.8710938 C5.79,17.9524687 5.892,18 6,18 C6.11625,17.992125 6.21,17.9535937 6.28125,17.8710938 C6.514875,17.6003438 12,11.179875 12,6 C12,2.69175 9.30825,0 6,0 L6,0 Z M6,4.125 C7.242375,4.125 8.25,5.132625 8.25,6.375 C8.25,7.617375 7.242375,8.625 6,8.625 C4.757625,8.625 3.75,7.617375 3.75,6.375 C3.75,5.132625 4.757625,4.125 6,4.125 L6,4.125 Z" id="Shape"></path>
                    </g>
                </g>
            </g>
        </g>
    </g>
</svg>