<?xml version="1.0" encoding="UTF-8" standalone="no"?>
<svg width="10px" height="10px" viewBox="0 0 10 10" version="1.1" xmlns="http://www.w3.org/2000/svg" xmlns:xlink="http://www.w3.org/1999/xlink">
    <!-- Generator: sketchtool 41.2 (35397) - http://www.bohemiancoding.com/sketch -->
    <title>CFB97844-9CD9-4D93-8756-11670B21AA5B</title>
    <desc>Created with sketchtool.</desc>
    <defs></defs>
    <g id="App-iOS" stroke="none" stroke-width="1" fill="none" fill-rule="evenodd">
        <g id="Tarjetas-asociadas" transform="translate(-17.000000, -314.000000)" fill="#757575">
            <g id="Group-3" transform="translate(17.000000, 312.000000)">
                <g id="plus" transform="translate(0.000000, 2.000000)">
                    <path d="M4.5,0 C4.2,0 4,0.2 4,0.5 L4,4 L0.5,4 C0.2,4 0,4.2 0,4.5 L0,5.5 C0,5.8 0.2,6 0.5,6 L4,6 L4,9.5 C4,9.8 4.2,10 4.5,10 L5.5,10 C5.8,10 6,9.8 6,9.5 L6,6 L9.5,6 C9.8,6 10,5.8 10,5.5 L10,4.5 C10,4.2 9.8,4 9.5,4 L6,4 L6,0.5 C6,0.2 5.8,0 5.5,0 L4.5,0 Z" id="Shape"></path>
                </g>
            </g>
        </g>
    </g>
</svg>