<?xml version="1.0" encoding="UTF-8" standalone="no"?>
<svg width="12px" height="12px" viewBox="0 0 12 12" version="1.1" xmlns="http://www.w3.org/2000/svg" xmlns:xlink="http://www.w3.org/1999/xlink">
    <!-- Generator: sketchtool 41 (35326) - http://www.bohemiancoding.com/sketch -->
    <title>DA8BACB9-DB22-40A9-B5D1-F2820266D56C</title>
    <desc>Created with sketchtool.</desc>
    <defs></defs>
    <g id="App-iOS" stroke="none" stroke-width="1" fill="none" fill-rule="evenodd">
        <g id="Compra" transform="translate(-199.000000, -250.000000)">
            <g id="Group-4-Copy-2" transform="translate(199.000000, 249.000000)">
                <g id="Group-3">
                    <g id="price" transform="translate(0.000000, 1.000000)">
                        <g id="Group">
                            <circle id="Oval" fill="#757575" cx="6" cy="6" r="6"></circle>
                            <path d="M6.91578947,7.64084211 C6.91578947,7.38663158 6.84789474,7.18484211 6.71210526,7.03452632 C6.576,6.88389474 6.34547368,6.74526316 6.01989474,6.61831579 C5.69463158,6.49136842 4.96042105,6.07894737 4.64021053,5.78115789 C4.46842105,5.62136842 4.34021053,5.42684211 4.24578947,5.20705263 C4.15231579,4.98663158 4.10526316,4.72484211 4.10526316,4.42105263 C4.10526316,3.89747368 4.26252632,3.44463158 4.54926316,3.07894737 C4.944,2.57557895 5.68421053,2.52631579 5.68421053,2.52631579 L5.68421053,1.57894737 L6.31578947,1.57894737 L6.31578947,2.52631579 C6.684,2.52631579 7.41031579,2.64852632 7.83789474,3.30347368 C8.21589474,3.88168421 8.21052632,4.73684211 8.21052632,4.73684211 L6.94736842,4.73684211 C6.94736842,4.36484211 6.87347368,4.09926316 6.726,3.91484211 C6.57789474,3.73042105 6.34894737,3.63821053 6.10105263,3.63821053 C5.856,3.63821053 5.70442105,3.74368421 5.57021053,3.888 C5.43568421,4.03231579 5.36842105,4.23126316 5.36842105,4.48547368 C5.36842105,4.72105263 5.43410526,4.91021053 5.56547368,5.05263158 C5.69684211,5.19505263 5.90305263,5.30747368 6.25989474,5.45589474 C6.61673684,5.60494737 6.91010526,5.74515789 7.14,5.87652632 C7.37021053,6.00852632 7.56442105,6.15757895 7.72263158,6.32273684 C7.88084211,6.48884211 8.00178947,6.678 8.08547368,6.88989474 C8.16852632,7.10273684 8.21052632,7.34968421 8.21052632,7.63168421 C8.21052632,8.15842105 8.05231579,8.58631579 7.73557895,8.91473684 C7.41915789,9.24315789 6.87126316,9.43673684 6.31578947,9.49578947 L6.31578947,10.4210526 L5.68421053,10.4210526 L5.68421053,9.50052632 C5.07221053,9.43231579 4.62947368,9.20684211 4.29347368,8.82378947 C3.95747368,8.44136842 3.78947368,7.89852632 3.78947368,7.26315789 L5.05263158,7.26315789 C5.05263158,7.632 5.13694737,7.94873684 5.30557895,8.14515789 C5.47421053,8.34221053 5.68326316,8.44073684 6,8.44073684 C6.26305263,8.44073684 6.53526316,8.36842105 6.68778947,8.22473684 C6.84,8.08010526 6.91578947,7.88589474 6.91578947,7.64084211 Z" id="Shape" fill="#FFFFFF"></path>
                        </g>
                    </g>
                </g>
            </g>
        </g>
    </g>
</svg>