<?xml version="1.0" encoding="UTF-8" standalone="no"?>
<svg width="16px" height="16px" viewBox="0 0 16 16" version="1.1" xmlns="http://www.w3.org/2000/svg" xmlns:xlink="http://www.w3.org/1999/xlink">
    <!-- Generator: sketchtool 40.3 (33839) - http://www.bohemiancoding.com/sketch -->
    <title>0C1C4190-9329-49D5-9D76-941C6108EB34</title>
    <desc>Created with sketchtool.</desc>
    <defs></defs>
    <g id="App-iOS" stroke="none" stroke-width="1" fill="none" fill-rule="evenodd">
        <g id="Buscar-destino" transform="translate(-26.000000, -261.000000)" fill="#C0C0C0">
            <g id="Group-6-Copy" transform="translate(16.000000, 134.000000)">
                <g id="Group-5-Copy-3" transform="translate(10.000000, 118.000000)">
                    <path d="M8,9 C3.57333336,9 0,12.5733334 0,17 C0,21.4266664 3.57333336,25 8,25 C12.4266664,25 16,21.4266664 16,17 C16,12.5733334 12.4266664,9 8,9 L8,9 Z M8,10.6 C11.5733336,10.6 14.4,13.4266666 14.4,17 C14.4,20.5733336 11.5733336,23.4 8,23.4 C4.42666664,23.4 1.6,20.5733336 1.6,17 C1.6,13.4266666 4.42666664,10.6 8,10.6 L8,10.6 Z M7.2,13 L7.2,17 L7.2,17.325 L7.425,17.575 L9.825,19.975 L10.975,18.825 L8.8,16.65 L8.8,13 L7.2,13 L7.2,13 Z" id="recent"></path>
                </g>
            </g>
        </g>
    </g>
</svg>