<?xml version="1.0" encoding="UTF-8" standalone="no"?>
<svg width="12px" height="12px" viewBox="0 0 12 12" version="1.1" xmlns="http://www.w3.org/2000/svg" xmlns:xlink="http://www.w3.org/1999/xlink">
    <!-- Generator: sketchtool 40.3 (33839) - http://www.bohemiancoding.com/sketch -->
    <title>058737CB-41B8-42C9-96CC-1539498CCFE4</title>
    <desc>Created with sketchtool.</desc>
    <defs></defs>
    <g id="App-iOS" stroke="none" stroke-width="1" fill="none" fill-rule="evenodd">
        <g id="Buscar-destino" transform="translate(-27.000000, -208.000000)" fill="#C0C0C0">
            <g id="Group-6-Copy" transform="translate(16.000000, 134.000000)">
                <g id="Group-5-Copy-2" transform="translate(11.000000, 63.000000)">
                    <path d="M6,11 C2.68000002,11 0,13.68 0,17 C0,20.3199998 2.68000002,23 6,23 C9.3199998,23 12,20.3199998 12,17 C12,13.68 9.3199998,11 6,11 L6,11 Z M6,12.2 C8.6800002,12.2 10.8,14.32 10.8,17 C10.8,19.6800002 8.6800002,21.8 6,21.8 C3.31999998,21.8 1.2,19.6800002 1.2,17 C1.2,14.32 3.31999998,12.2 6,12.2 L6,12.2 Z M5.4,14 L5.4,17 L5.4,17.24375 L5.56875,17.43125 L7.36875,19.23125 L8.23125,18.36875 L6.6,16.7375 L6.6,14 L5.4,14 L5.4,14 Z" id="recent"></path>
                </g>
            </g>
        </g>
    </g>
</svg>