<?xml version="1.0" encoding="UTF-8" standalone="no"?>
<svg width="16px" height="16px" viewBox="0 0 16 16" version="1.1" xmlns="http://www.w3.org/2000/svg" xmlns:xlink="http://www.w3.org/1999/xlink">
    <!-- Generator: sketchtool 41.2 (35397) - http://www.bohemiancoding.com/sketch -->
    <title>1E3E9EE5-49F6-4F21-8ACC-D6C001A1578E</title>
    <desc>Created with sketchtool.</desc>
    <defs></defs>
    <g id="App-iOS" stroke="none" stroke-width="1" fill="none" fill-rule="evenodd">
        <g id="Estaciones" transform="translate(-349.000000, -118.000000)" fill="#757575">
            <g id="Group-2" transform="translate(344.000000, 113.000000)">
                <g id="ic-refresh-24-px" transform="translate(5.000000, 5.000000)">
                    <path d="M13.65,2.35 C12.2,0.9 10.21,0 8,0 C3.58,0 0.01,3.58 0.01,8 C0.01,12.42 3.58,16 8,16 C11.73,16 14.84,13.45 15.73,10 L13.65,10 C12.83,12.33 10.61,14 8,14 C4.69,14 2,11.31 2,8 C2,4.69 4.69,2 8,2 C9.66,2 11.14,2.69 12.22,3.78 L9,7 L16,7 L16,0 L13.65,2.35 Z" id="Shape"></path>
                </g>
            </g>
        </g>
    </g>
</svg>