<?xml version="1.0" encoding="UTF-8" standalone="no"?>
<svg width="17px" height="17px" viewBox="0 0 17 17" version="1.1" xmlns="http://www.w3.org/2000/svg" xmlns:xlink="http://www.w3.org/1999/xlink">
    <!-- Generator: sketchtool 40.3 (33839) - http://www.bohemiancoding.com/sketch -->
    <title>4BB14019-B8DA-4CB3-BD03-75C70F755BFC</title>
    <desc>Created with sketchtool.</desc>
    <defs></defs>
    <g id="Symbols" stroke="none" stroke-width="1" fill="none" fill-rule="evenodd">
        <g id="BottomNav-Inactive" transform="translate(-322.000000, -12.000000)">
            <g id="Bottom-Navigation">
                <g id="tab-Item-4" transform="translate(285.000000, 0.000000)">
                    <g id="cargar-inactivo" transform="translate(33.000000, 8.000000)">
                        <rect id="bounds" x="0" y="0" width="24" height="24"></rect>
                        <path d="M12.5,4 C7.81319444,4 4,7.81319444 4,12.5 C4,17.1868056 7.81319444,21 12.5,21 C17.1868056,21 21,17.1868056 21,12.5 C21,7.81319444 17.1868056,4 12.5,4 L12.5,4 Z M12.9722222,16.7972222 L12.9722222,17.6944444 L12.0277778,17.6944444 L12.0277778,16.7972222 C11.225,16.6555556 9.80833333,16.1833333 9.66666667,14.1527778 L10.6111111,14.1527778 C10.6111111,14.7666667 11.0361111,15.9 12.5,15.9 C13.9638889,15.9 14.2944444,15.1916667 14.2944444,14.4356389 C14.2944444,12.1689722 9.90277778,13.7273056 9.90277778,10.7055556 C9.90277778,9.1 11.2722222,8.43888889 12.0277778,8.34444444 L12.0277778,7.30555556 L12.9722222,7.30555556 L12.9722222,8.39166667 C14.3416667,8.62777778 14.8138889,9.57222222 15.0972222,10.6111111 L14.1527778,10.6111111 C14.0111111,9.85555556 13.5388889,9.24166667 12.5472222,9.24166667 C11.1305556,9.24166667 10.9416667,10.1861111 10.9416667,10.6111111 C10.9416667,11.6027778 11.8388889,11.8388889 12.8305556,12.075 C14.0583333,12.3583333 15.3333333,12.7833333 15.3333333,14.3416667 C15.3333333,16.2305556 13.6805556,16.75 12.9722222,16.7972222 L12.9722222,16.7972222 Z" id="Shape" fill="#757575"></path>
                    </g>
                </g>
            </g>
        </g>
    </g>
</svg>