<?xml version="1.0" encoding="UTF-8" standalone="no"?>
<svg width="17px" height="17px" viewBox="0 0 17 17" version="1.1" xmlns="http://www.w3.org/2000/svg" xmlns:xlink="http://www.w3.org/1999/xlink">
    <!-- Generator: sketchtool 41.1 (35376) - http://www.bohemiancoding.com/sketch -->
    <title>B4CD8AD8-D965-4A69-A598-0B100C593A8A</title>
    <desc>Created with sketchtool.</desc>
    <defs></defs>
    <g id="App-iOS" stroke="none" stroke-width="1" fill="none" fill-rule="evenodd">
        <g id="Agregar-parada" transform="translate(-323.000000, -220.000000)" fill="#757575">
            <g id="location" transform="translate(313.000000, 210.000000)">
                <g transform="translate(10.285714, 10.285714)" id="route">
                    <g>
                        <path d="M15.52,6.88 L9.12,0.48 C8.48,-0.16 7.52,-0.16 6.88,0.48 L0.48,6.88 C-0.16,7.52 -0.16,8.48 0.48,9.12 L6.88,15.52 C7.52,16.16 8.48,16.16 9.12,15.52 L15.52,9.12 C16.16,8.48 16.16,7.52 15.52,6.88 Z M9.6,10 L9.6,8 L6.4,8 L6.4,10.4 L4.8,10.4 L4.8,8 C4.8,7.12 5.52,6.4 6.4,6.4 L9.6,6.4 L9.6,4.4 L12.4,7.2 L9.6,10 Z" id="Shape"></path>
                    </g>
                </g>
            </g>
        </g>
    </g>
</svg>