<?xml version="1.0" encoding="UTF-8" standalone="no"?>
<svg width="18px" height="14px" viewBox="0 0 18 14" version="1.1" xmlns="http://www.w3.org/2000/svg" xmlns:xlink="http://www.w3.org/1999/xlink">
    <!-- Generator: sketchtool 41 (35326) - http://www.bohemiancoding.com/sketch -->
    <title>3E7E7A11-6605-4379-B6F4-EB2AAA6E9730</title>
    <desc>Created with sketchtool.</desc>
    <defs></defs>
    <g id="App-iOS" stroke="none" stroke-width="1" fill="none" fill-rule="evenodd">
        <g id="Cuenta" transform="translate(-19.000000, -207.000000)">
            <g id="Table-Cells-with-Icons" transform="translate(0.000000, 106.000000)">
                <g id="Table-Cell" transform="translate(0.000000, 88.000000)">
                    <g id="user" transform="translate(15.000000, 7.000000)">
                        <rect id="Bounds" fill-opacity="0" fill="#D8D8D8" x="0" y="0" width="25" height="25"></rect>
                        <path d="M20.2,6 L5.8,6 C4.81,6 4,6.7875 4,7.75 L4,18.25 C4,19.2125 4.81,20 5.8,20 L7.6,20 L7.6,19.125 L10.3,19.125 L10.3,20 L15.7,20 L15.7,19.125 L18.4,19.125 L18.4,20 L20.2,20 C21.19,20 22,19.2125 22,18.25 L22,7.75 C22,6.7875 21.19,6 20.2,6 Z M13,8.625 C13.99,8.625 14.8,9.4125 14.8,10.375 C14.8,11.3375 13.99,12.125 13,12.125 C12.01,12.125 11.2,11.3375 11.2,10.375 C11.2,9.4125 12.01,8.625 13,8.625 Z M16.6,15.625 L13.09,15.625 L13,15.625 L9.4,15.625 L9.4,14.75 C9.4,14.75 10.48,13 13,13 C15.52,13 16.6,14.75 16.6,14.75 L16.6,15.625 Z" id="Shape" fill="#2D6CA9"></path>
                    </g>
                </g>
            </g>
        </g>
    </g>
</svg>