<?xml version="1.0" encoding="UTF-8" standalone="no"?>
<svg width="16px" height="12px" viewBox="0 0 16 12" version="1.1" xmlns="http://www.w3.org/2000/svg" xmlns:xlink="http://www.w3.org/1999/xlink">
    <!-- Generator: sketchtool 41.2 (35397) - http://www.bohemiancoding.com/sketch -->
    <title>CF80F828-752D-46D3-967E-99F704C5D17B</title>
    <desc>Created with sketchtool.</desc>
    <defs></defs>
    <g id="App-iOS" stroke="none" stroke-width="1" fill="none" fill-rule="evenodd">
        <g id="Detalle-vehiculo---Cambiar-vehiculo" transform="translate(-26.000000, -364.000000)" fill="#999999">
            <g id="Group-6-Copy" transform="translate(16.000000, 164.000000)">
                <g id="Group-5-Copy" transform="translate(10.000000, 187.000000)">
                    <g id="truck" transform="translate(0.000000, 11.000000)">
                        <g id="Truck-Filled" transform="translate(0.000000, 2.000000)">
                            <path d="M0.91,0 C0.40792,0 -9.47390304e-17,0.414405405 0,0.922297297 L0,9.40540541 C0,9.9132973 0.4576,10.3783784 0.96,10.3783784 L2.27,10.3783784 C2.42296,11.2978378 3.21024,12 4.16,12 C5.10976,12 5.89704,11.2975135 6.05,10.3783784 L9.01,10.3783784 C9.51176,10.3783784 9.92,9.9642973 9.92,9.45608108 L9.92,0.942567568 C9.91968,0.423324324 9.51568,0 9.02,0 L0.91,0 Z M10.56,2.27027027 L10.56,10.3783784 C10.71328,11.2971892 11.53056,12 12.48,12 C13.42944,12 14.21704,11.2971892 14.37,10.3783784 L14.4,10.3783784 L15.04,10.3783784 C15.5424,10.3783784 16,9.91459459 16,9.40540541 L16,6.28378378 C16,5.63124324 15.53664,4.96556757 15.48,4.88513514 L14.15,3.08108108 C13.84504,2.70908108 13.36672,2.27027027 12.8,2.27027027 L10.56,2.27027027 Z M12.16,3.89189189 L13.95,3.89189189 L14.97,5.27027027 C15.0788,5.42562162 15.36,5.90367568 15.36,6.28378378 L15.36,6.48648649 L12.16,6.48648649 C11.84,6.48648649 11.52,6.16216216 11.52,5.83783784 L11.52,4.54054054 C11.52,4.18151351 11.84,3.89189189 12.16,3.89189189 Z M4.16,8.75675676 C4.86592,8.75675676 5.44,9.33859459 5.44,10.0540541 C5.44,10.7695135 4.86592,11.3513514 4.16,11.3513514 C3.45408,11.3513514 2.88,10.7695135 2.88,10.0540541 C2.88,9.33859459 3.45408,8.75675676 4.16,8.75675676 Z M12.48,8.75675676 C13.18592,8.75675676 13.76,9.33859459 13.76,10.0540541 C13.76,10.7695135 13.18592,11.3513514 12.48,11.3513514 C11.77408,11.3513514 11.2,10.7695135 11.2,10.0540541 C11.2,9.33859459 11.77408,8.75675676 12.48,8.75675676 Z" id="Shape"></path>
                        </g>
                    </g>
                </g>
            </g>
        </g>
    </g>
</svg>