<?xml version="1.0" encoding="UTF-8" standalone="no"?>
<svg width="16px" height="10px" viewBox="0 0 16 10" version="1.1" xmlns="http://www.w3.org/2000/svg" xmlns:xlink="http://www.w3.org/1999/xlink">
    <!-- Generator: Sketch 41.2 (35397) - http://www.bohemiancoding.com/sketch -->
    <title>motorcycle-white</title>
    <desc>Created with Sketch.</desc>
    <defs></defs>
    <g id="App-iOS" stroke="none" stroke-width="1" fill="none" fill-rule="evenodd">
        <g id="motorcycle-white" transform="translate(0.000000, -3.000000)" fill="#FFFFFF">
            <g id="Motorcycle-Filled" transform="translate(0.000000, 3.000000)">
                <path d="M10.0392157,-1.89814202e-13 C10.0392157,-1.89814202e-13 8.98346761,-0.0225946875 8.24509804,0.712890625 C8.16452964,0.793134129 8.13306097,0.910098257 8.16254685,1.0197205 C8.19203274,1.12934274 8.27799318,1.21496739 8.38804531,1.2443381 C8.49809744,1.2737088 8.61552025,1.24236306 8.69607843,1.16210937 C9.10741835,0.75237625 9.61162227,0.676186562 9.84313725,0.654296875 C9.9067978,0.788992187 9.97845114,0.937598125 10.0098039,1.09375 C10.0137215,1.1172022 10.0202996,1.14013553 10.0294118,1.16210937 C10.0065324,1.30509062 9.93327937,1.51633875 9.78431373,1.68945312 C9.65882353,1.81445312 9.5372549,1.875 9.41176471,1.875 C7.49803922,1.875 7.11960784,2.78320312 6.93137255,3.25195312 C6.9,3.31445312 6.87254902,3.375 6.87254902,3.4375 C5.86862745,3.4375 5.11568627,3.15625 4.99019608,2.96875 C4.55098039,2.21875 4.20392157,2.1875 2.82352941,2.1875 C0.658823529,2.1875 0.345098039,3.25390625 0.31372549,3.37890625 C0.282352941,3.47265625 0.309803922,3.55859375 0.37254902,3.65234375 C0.403921569,3.68359375 0.78627451,4.0625 1.53921569,4.0625 L1.69607843,4.0625 C2.13529412,3.875 2.60588235,3.75 3.10784314,3.75 C5.02156863,3.75 6.55882353,5.28125 6.55882353,7.1875 C6.55882353,7.4375 6.52352941,7.68945312 6.46078431,7.93945312 C7.0254902,8.09570312 7.65882353,8.125 7.94117647,8.125 L8,8.125 C8.56470588,8.125 9.38039216,7.97070312 9.7254902,7.62695312 C9.88235294,7.47070312 9.91176471,7.31445312 9.91176471,7.15820312 C9.63838525,5.2767775 10.5828866,4.42327875 11.0196078,4.13085937 C11.1442554,4.41470937 11.2715909,4.70034062 11.4117647,4.98046875 C10.7594714,5.48114531 10.3529412,6.28813406 10.3529412,7.15820312 C10.3529412,8.72070312 11.6078431,9.97070312 13.1764706,9.97070312 C14.745098,9.97070312 16,8.72070312 16,7.15820312 C16,5.59570312 14.745098,4.375 13.1764706,4.375 C12.7372549,4.375 12.327451,4.47070312 11.9509804,4.65820312 C12.1392157,5.03320312 12.3588235,5.40820312 12.5784314,5.75195312 C12.7666667,5.68945312 12.9568627,5.625 13.1764706,5.625 C14.054902,5.625 14.745098,6.3125 14.745098,7.1875 C14.745098,8.0625 14.054902,8.75 13.1764706,8.75 C12.2980392,8.75 11.6078431,8.0625 11.6078431,7.1875 C11.6078431,6.75 11.7666667,6.375 12.0490196,6.09375 C11.8330469,5.75569031 11.6175049,5.38874219 11.4313725,4.99023437 C11.5861493,4.86796094 11.7668292,4.74991906 11.9509804,4.65820312 C11.6686275,4.09570312 11.3843137,3.50390625 11.1960784,2.91015625 C11.1848882,2.88229 11.1736841,2.85539 11.1568627,2.83203125 C10.9045123,2.00752812 10.6603485,0.989800312 10.6372549,0.966796875 C10.6337631,0.949405937 10.624075,0.933768125 10.6176471,0.91796875 C10.5293876,0.535807625 10.3137255,0.166015625 10.3137255,0.166015625 C10.2597423,0.0646899085 10.1543714,0.000964588789 10.0392157,-1.89814202e-13 Z M12.0490196,6.09375 C12.4254902,6.71875 12.8666667,7.27734375 13.2745098,7.71484375 C13.3372549,7.77734375 13.427451,7.8125 13.4901961,7.8125 C13.5529412,7.8125 13.6431373,7.77734375 13.7058824,7.71484375 C13.8313725,7.58984375 13.8313725,7.41015625 13.7058824,7.28515625 C13.3294118,6.87890625 12.9254902,6.34570312 12.5490196,5.75195312 C12.3607843,5.84570312 12.2058824,5.9375 12.0490196,6.09375 Z M12.1078431,1.25 C11.8568627,1.25 11.6117647,1.28515625 11.3921569,1.34765625 C11.5803922,2.03515625 11.8235294,2.93359375 11.9803922,3.33984375 C11.9803922,3.37109375 12.0196078,3.40625 12.0196078,3.4375 L12.1078431,3.4375 C12.5156863,3.4375 12.772549,3.33984375 12.9607843,3.18359375 C13.1803922,2.96484375 13.1764706,2.65234375 13.1764706,2.40234375 L13.1764706,2.34375 L13.1764706,2.28515625 C13.1764706,2.03515625 13.1803922,1.72265625 12.9607843,1.50390625 C12.772549,1.34765625 12.5156863,1.25 12.1078431,1.25 Z M3.1372549,4.375 C1.56862745,4.375 0.31372549,5.625 0.31372549,7.1875 C0.31372549,8.75 1.56862745,10 3.1372549,10 C4.58039216,10 5.7745098,8.90625 5.93137255,7.5 L4.67647059,7.5 C4.51960784,8.21875 3.89019608,8.75 3.1372549,8.75 C2.25882353,8.75 1.56862745,8.0625 1.56862745,7.1875 C1.56862745,6.3125 2.25882353,5.625 3.1372549,5.625 C3.89019608,5.625 4.51960784,6.15625 4.67647059,6.875 L5.93137255,6.875 C5.7745098,5.46875 4.58039216,4.375 3.1372549,4.375 Z M4.67647059,6.875 L4.02941176,6.875 C3.9048182,6.50487125 3.55979545,6.25 3.1372549,6.25 C2.60392157,6.25 2.19607843,6.65625 2.19607843,7.1875 C2.19607843,7.71875 2.60392157,8.125 3.1372549,8.125 C3.55979545,8.125 3.9048182,7.87012875 4.02941176,7.5 L4.67647059,7.5 C4.70784314,7.40625 4.70588235,7.28125 4.70588235,7.1875 C4.70588235,7.09375 4.70784314,6.96875 4.67647059,6.875 Z" id="Shape"></path>
            </g>
        </g>
    </g>
</svg>