<?xml version="1.0" encoding="UTF-8" standalone="no"?>
<svg width="16px" height="9px" viewBox="0 0 16 9" version="1.1" xmlns="http://www.w3.org/2000/svg" xmlns:xlink="http://www.w3.org/1999/xlink">
    <!-- Generator: sketchtool 41.2 (35397) - http://www.bohemiancoding.com/sketch -->
    <title>7F82619E-CCEA-4FEC-913C-6A81ADEEEE93</title>
    <desc>Created with sketchtool.</desc>
    <defs></defs>
    <g id="App-iOS" stroke="none" stroke-width="1" fill="none" fill-rule="evenodd">
        <g id="Detalle-vehiculo---Cambiar-vehiculo" transform="translate(-26.000000, -188.000000)" fill="#999999">
            <g id="Group-6-Copy" transform="translate(16.000000, 164.000000)">
                <g id="Group-5" transform="translate(10.000000, 10.000000)">
                    <g id="sedan" transform="translate(0.000000, 11.000000)">
                        <g id="Sedan-Filled" transform="translate(0.000000, 3.000000)">
                            <path d="M4.87,0 C4.3148,0 3.8044,0.280205357 3.51,0.753348214 L2.37,2.59151786 L1.37,2.7421875 C0.58696,2.85500893 0,3.53499107 0,4.32924107 L0,6.42857143 C0,6.96021429 0.43072,7.39285714 0.96,7.39285714 L1.63,7.39285714 C1.78328,8.30346429 2.57024,9 3.52,9 C4.46976,9 5.25672,8.30346429 5.41,7.39285714 L10.59,7.39285714 C10.74328,8.30346429 11.53056,9 12.48,9 C13.42944,9 14.21704,8.30346429 14.37,7.39285714 L15.04,7.39285714 C15.56928,7.39285714 16,6.96021429 16,6.42857143 L16,4.62053571 C16,3.83207143 15.43472,3.17338393 14.66,3.04352679 L12.02,2.6015625 L10.56,0.642857143 C10.25984,0.240428571 9.78112,0 9.28,0 L4.87,0 Z M4.87,0.642857143 L6.72,0.642857143 L6.72,2.57142857 L3.14,2.57142857 L4.06,1.09486607 C4.23632,0.811044643 4.53688,0.642857143 4.87,0.642857143 Z M7.36,0.642857143 L9.28,0.642857143 C9.58048,0.642857143 9.86984,0.783160714 10.05,1.02455357 L11.2,2.57142857 L7.36,2.57142857 L7.36,0.642857143 Z M3.52,5.78571429 C4.22592,5.78571429 4.8,6.36235714 4.8,7.07142857 C4.8,7.7805 4.22592,8.35714286 3.52,8.35714286 C2.81408,8.35714286 2.24,7.7805 2.24,7.07142857 C2.24,6.36235714 2.81408,5.78571429 3.52,5.78571429 Z M12.48,5.78571429 C13.18592,5.78571429 13.76,6.36235714 13.76,7.07142857 C13.76,7.7805 13.18592,8.35714286 12.48,8.35714286 C11.77408,8.35714286 11.2,7.7805 11.2,7.07142857 C11.2,6.36235714 11.77408,5.78571429 12.48,5.78571429 Z" id="Shape"></path>
                        </g>
                    </g>
                </g>
            </g>
        </g>
    </g>
</svg>