<?xml version="1.0" encoding="UTF-8" standalone="no"?>
<svg width="16px" height="11px" viewBox="0 0 16 11" version="1.1" xmlns="http://www.w3.org/2000/svg" xmlns:xlink="http://www.w3.org/1999/xlink">
    <!-- Generator: sketchtool 41.2 (35397) - http://www.bohemiancoding.com/sketch -->
    <title>E77159A3-A852-4EBD-8A26-F146A295C463</title>
    <desc>Created with sketchtool.</desc>
    <defs></defs>
    <g id="App-iOS" stroke="none" stroke-width="1" fill="none" fill-rule="evenodd">
        <g id="Detalle-vehiculo---Cambiar-vehiculo" transform="translate(-26.000000, -247.000000)" fill="#999999">
            <g id="Group-6-Copy" transform="translate(16.000000, 164.000000)">
                <g id="Group-5-Copy-2" transform="translate(10.000000, 69.000000)">
                    <g id="suv" transform="translate(0.000000, 11.000000)">
                        <g id="SUV" transform="translate(0.000000, 3.000000)">
                            <path d="M2.46153846,0 C1.10215385,0 0,1.0945 0,2.44444444 L0,7.94444444 C0,8.61972222 0.550769231,9.16666667 1.23076923,9.16666667 C1.23076923,7.81672222 2.33292308,6.72222222 3.69230769,6.72222222 C5.05169231,6.72222222 6.15384615,7.81672222 6.15384615,9.16666667 L9.84615385,9.16666667 C9.84615385,7.81672222 10.9483077,6.72222222 12.3076923,6.72222222 C13.6670769,6.72222222 14.7692308,7.81672222 14.7692308,9.16666667 C15.4492308,9.16666667 16,8.61972222 16,7.94444444 L16,6.34027778 C16,5.14555556 15.1287692,4.13019444 13.9423077,3.93402778 L12.3076923,3.66666667 L9.96153846,0.878472222 C9.49384615,0.321138889 8.80738462,0 8.07692308,0 L2.46153846,0 Z M2.46153846,1.22222222 L4.92307692,1.22222222 L4.92307692,3.66666667 L1.23076923,3.66666667 L1.23076923,2.44444444 C1.23076923,1.76916667 1.78153846,1.22222222 2.46153846,1.22222222 Z M6.15384615,1.22222222 L8.28846154,1.22222222 C8.66261538,1.22222222 9.01615385,1.39027778 9.25,1.68055556 L10.8461538,3.66666667 L6.15384615,3.66666667 L6.15384615,1.22222222 Z M3.69230769,7.33333333 C2.67270511,7.33333333 1.84615385,8.15414478 1.84615385,9.16666667 C1.84615385,10.1791886 2.67270511,11 3.69230769,11 C4.71191028,11 5.53846154,10.1791886 5.53846154,9.16666667 C5.53846154,8.15414478 4.71191028,7.33333333 3.69230769,7.33333333 Z M12.3076923,7.33333333 C11.2880898,7.33333333 10.4615385,8.15414478 10.4615385,9.16666667 C10.4615385,10.1791886 11.2880898,11 12.3076923,11 C13.3272948,11 14.1538462,10.1791886 14.1538462,9.16666667 C14.1538462,8.15414478 13.3272948,7.33333333 12.3076923,7.33333333 Z" id="Shape"></path>
                        </g>
                    </g>
                </g>
            </g>
        </g>
    </g>
</svg>