<?xml version="1.0" encoding="UTF-8" standalone="no"?>
<svg width="44px" height="23px" viewBox="0 0 44 23" version="1.1" xmlns="http://www.w3.org/2000/svg" xmlns:xlink="http://www.w3.org/1999/xlink">
    <!-- Generator: sketchtool 41.2 (35397) - http://www.bohemiancoding.com/sketch -->
    <title>CFF44E3C-5D3A-4E4C-94A6-89132EB1F2CE</title>
    <desc>Created with sketchtool.</desc>
    <defs></defs>
    <g id="App-iOS" stroke="none" stroke-width="1" fill="none" fill-rule="evenodd">
        <g id="Home" transform="translate(-165.000000, -30.000000)">
            <g id="Navigation-Bar-Light">
                <g id="inteligas">
                    <g transform="translate(165.000000, 30.000000)">
                        <g id="Layer_1">
                            <g id="Group">
                                <g transform="translate(30.097222, 9.046667)">
                                    <rect id="Rectangle-path" fill="#F6921E" x="0.131388889" y="0.0414" width="3.16402778" height="3.17553333"></rect>
                                    <path d="M1.38722222,1.6238 C1.38722222,1.78786667 1.35208333,1.9136 1.16875,1.9136 C0.964027778,1.9136 0.942638889,1.7664 0.942638889,1.6468 L0.942638889,0.7084 L0.679861111,0.766666667 L0.679861111,1.68513333 C0.679861111,2.03473333 0.922777778,2.16813333 1.15652778,2.16813333 C1.46361111,2.16813333 1.65,1.97033333 1.65,1.72346667 L1.65,0.709933333 L1.38722222,0.7682 L1.38722222,1.6238 L1.38722222,1.6238 Z" id="Shape" fill="#FFFFFF"></path>
                                    <path d="M2.29625,1.93506667 C2.12666667,1.93506667 2.00444444,1.794 2.00444444,1.62686667 C2.00444444,1.46126667 2.12819444,1.31866667 2.29625,1.31866667 C2.46583333,1.31866667 2.58805556,1.45973333 2.58805556,1.62686667 C2.58958333,1.794 2.46583333,1.93506667 2.29625,1.93506667 M2.31305556,1.0902 C2.20763889,1.0902 2.11138889,1.1224 2.02888889,1.17913333 L2.02888889,1.0304 L1.77527778,1.09173333 L1.77527778,2.49473333 L2.02736111,2.43646667 L2.02736111,2.07766667 C2.10833333,2.1344 2.20611111,2.1666 2.31152778,2.1666 C2.59569444,2.1666 2.82638889,1.92586667 2.82638889,1.6284 C2.82791667,1.33093333 2.59722222,1.0902 2.31305556,1.0902" id="Shape" fill="#FFFFFF"></path>
                                    <path d="M12.4255389,0.812666667 L12.4531389,0.812666667 C12.4623389,0.812666667 12.4792056,0.812666667 12.4792056,0.8372 C12.4792056,0.8464 12.4746056,0.861733333 12.4531389,0.861733333 L12.4255389,0.861733333 L12.4255389,0.812666667 Z M12.4270722,0.890866667 L12.4577389,0.890866667 C12.4700056,0.890866667 12.4730722,0.895466667 12.4761389,0.9062 C12.4761389,0.909266667 12.4822722,0.953733333 12.4822722,0.9614 L12.5190722,0.9614 C12.5144722,0.953733333 12.5114056,0.9292 12.5098722,0.9154 C12.5068056,0.8924 12.5052722,0.877066667 12.4807389,0.875533333 C12.4930056,0.870933333 12.5144722,0.8648 12.5144722,0.8326 C12.5144722,0.7866 12.4730722,0.7866 12.4531389,0.7866 L12.3918056,0.7866 L12.3918056,0.962933333 L12.4255389,0.962933333 L12.4255389,0.890866667 L12.4270722,0.890866667 Z" id="Shape" fill="#485756"></path>
                                    <path d="M12.4519611,0.7406 C12.5240278,0.7406 12.5838278,0.798866667 12.5838278,0.872466667 C12.5838278,0.944533333 12.5240278,1.00433333 12.4519611,1.00433333 C12.3798944,1.00433333 12.3200944,0.944533333 12.3200944,0.872466667 C12.3200944,0.798866667 12.3798944,0.7406 12.4519611,0.7406 M12.4519611,1.0304 C12.5393611,1.0304 12.6098944,0.959866667 12.6098944,0.872466667 C12.6098944,0.783533333 12.5378278,0.714533333 12.4519611,0.714533333 C12.3676278,0.714533333 12.2940278,0.783533333 12.2940278,0.872466667 C12.2940278,0.959866667 12.3660944,1.0304 12.4519611,1.0304" id="Shape" fill="#485756"></path>
                                    <path d="M7.83291667,0.207 C7.83291667,0.207 7.49375,0.627133333 7.48,0.7774 C7.48,0.7774 7.59611111,0.808066667 7.9475,0.3634 C7.95666667,0.352666667 7.96583333,0.341933333 7.97347222,0.3312 C7.97347222,0.3312 7.97347222,0.3312 7.97347222,0.329666667 L7.97347222,0.329666667 C8.02236111,0.259133333 8.00708333,0.210066667 7.83291667,0.207" id="Shape" fill="#485756"></path>
                                    <path d="M10.4988889,1.59926667 C10.2361111,1.36926667 9.72583333,2.07 9.515,2.34446667 C9.24763889,2.62966667 9.51041667,1.99946667 9.55319444,1.9044 C10.0359722,0.989 10.51875,1.1638 10.51875,1.1638 C10.5752778,1.01353333 10.065,1.02886667 10.0023611,1.03346667 C9.51958333,1.2144 9.21861111,2.08533333 9.12847222,2.3598 C9.0475,2.66953333 9.36680556,2.61433333 9.42486111,2.57446667 C9.91222222,1.8676 9.98402778,1.8584 10.0405556,1.83846667 C10.1795833,1.8492 10.0405556,2.3598 10.0497222,2.40886667 C10.2788889,2.33526667 10.4988889,1.63913333 10.4988889,1.59926667" id="Shape" fill="#485756"></path>
                                    <path d="M12.5965278,2.05926667 C12.49875,2.1068 11.8922222,2.42113333 11.7822222,2.4978 C11.7822222,2.4978 11.7516667,2.51466667 11.7379167,2.53 C11.7348611,2.53306667 11.7333333,2.5346 11.7333333,2.53766667 C11.7302778,2.54686667 11.7348611,2.553 11.75625,2.55606667 L11.75625,2.55606667 C11.7623611,2.5576 11.77,2.55913333 11.7791667,2.56066667 C11.7791667,2.56066667 12.6102778,2.1252 12.7156944,2.10066667 C12.7538889,2.09453333 12.7340278,2.0148 12.5965278,2.05926667" id="Shape" fill="#485756"></path>
                                    <path d="M9.86944444,0.8832 C10.2223611,0.686933333 10.6043056,0.502933333 10.6043056,0.502933333 C10.6043056,0.502933333 10.2972222,0.260666667 10.0023611,0.502933333 C9.71055556,0.739066667 9.27208333,1.11166667 8.44402778,2.46253333 L8.44402778,2.46253333 C8.41041667,2.5162 8.38138889,2.53306667 8.35847222,2.53306667 C8.29736111,2.53306667 8.27444444,2.4242 8.27138889,2.40886667 C8.26222222,2.34906667 8.27444444,2.28313333 8.29277778,2.14513333 C8.35236111,1.6836 8.59375,1.1868 8.39513889,1.03193333 L8.39513889,1.03193333 C8.39513889,1.03193333 8.32180556,0.9706 8.16291667,0.995133333 C8.16291667,0.995133333 8.17819444,1.26806667 8.17972222,1.40146667 C8.17055556,1.73266667 8.14763889,2.16813333 8.14,2.3 C8.13847222,2.34293333 8.11708333,2.50853333 8.18125,2.58826667 L8.18125,2.58826667 C8.18125,2.58826667 8.18277778,2.5898 8.18430556,2.59286667 C8.18888889,2.59746667 8.19347222,2.60206667 8.19805556,2.60513333 C8.23930556,2.64193333 8.35236111,2.71706667 8.47763889,2.5668 C8.48986111,2.553 8.50513889,2.5346 8.52041667,2.51466667 C8.53263889,2.49933333 8.54027778,2.4886 8.54638889,2.4794 C8.57083333,2.44413333 8.60138889,2.40273333 8.63652778,2.3506 C8.80305556,2.10986667 9.41263889,1.13313333 9.86944444,0.8832" id="Shape" fill="#485756"></path>
                                    <path d="M11.6813889,0.203933333 C11.6813889,0.2024 11.6829167,0.2024 11.6829167,0.200866667 C11.6981944,0.1794 11.7073611,0.1656 11.7119444,0.1564 L11.7119444,0.1564 L11.7119444,0.1564 C11.7165278,0.148733333 11.7180556,0.144133333 11.7180556,0.144133333 C11.7195833,0.130333333 11.7638889,0.0337333333 11.4934722,0.046 C11.2658333,0.0567333333 11.2551389,0.231533333 11.2581944,0.2852 L11.2581944,0.2852 C11.2581944,0.2852 11.2566667,0.387933333 11.1741667,0.5704 L11.1741667,0.5704 C10.9465278,1.07026667 10.1581944,2.82746667 10.1230556,3.17553333 L10.1230556,3.17553333 C10.1230556,3.17553333 10.1215278,3.18473333 10.1215278,3.1924 L10.1215278,3.19546667 L10.1215278,3.19546667 C10.1215278,3.2016 10.1230556,3.2062 10.1261111,3.20773333 C10.1306944,3.20926667 10.1398611,3.19853333 10.1490278,3.1878 C10.1520833,3.1832 10.1566667,3.1786 10.16125,3.17093333 C10.1627778,3.16786667 10.1643056,3.16633333 10.1643056,3.16633333 C10.1918056,3.1234 10.24375,3.02986667 10.3445833,2.8336 C10.54625,2.438 11.6248611,0.295933333 11.6248611,0.295933333 C11.6248611,0.295933333 11.6477778,0.256066667 11.6813889,0.203933333" id="Shape" fill="#485756"></path>
                                    <path d="M13.1938889,2.21106667 C13.1755556,2.16353333 13.0976389,2.1712 13.0976389,2.1712 L13.0976389,2.1712 C12.9051389,2.1712 12.4345833,2.39353333 12.2436111,2.4886 C12.2436111,2.4886 12.2329167,2.4932 12.2191667,2.50086667 C12.1840278,2.5208 12.1290278,2.55913333 12.1886111,2.58826667 C12.2038889,2.5944 12.22375,2.59746667 12.2420833,2.59746667 C12.2726389,2.599 12.3001389,2.59593333 12.3047222,2.59593333 C12.3184722,2.55146667 12.7768056,2.4104 13.0075,2.346 C13.0563889,2.33066667 13.0930556,2.31686667 13.1205556,2.3046 L13.1205556,2.3046 C13.1541667,2.28773333 13.2122222,2.2586 13.1938889,2.21106667" id="Shape" fill="#485756"></path>
                                    <path d="M6.35708333,1.7894 C5.79791667,2.42573333 5.14861111,2.7462 4.89958333,2.8658 C4.80180556,2.91946667 4.74222222,2.9486 4.70555556,2.96393333 C4.7025,2.96546667 4.70097222,2.96546667 4.69791667,2.967 C4.69638889,2.96853333 4.69333333,2.96853333 4.69180556,2.96853333 C4.68875,2.97006667 4.68722222,2.97006667 4.68416667,2.9716 C4.62763889,2.9854 4.65819444,2.90873333 4.66125,2.89953333 C4.90875,2.37666667 6.32347222,1.76026667 6.32347222,1.76026667 C6.34791667,1.74953333 6.36625,1.76946667 6.35708333,1.7894 M7.12097222,1.03806667 C7.06902778,1.18833333 6.93916667,1.49346667 6.90555556,1.49806667 C6.86736111,1.50266667 6.83375,1.48273333 6.7375,1.4076 C6.61375,1.30793333 6.49,1.09786667 5.66347222,1.2328 C5.62986111,1.23586667 5.59319444,1.15766667 5.75972222,1.04726667 C5.90791667,0.9476 6.28069444,0.647066667 6.99263889,0.5014 C6.99263889,0.5014 6.86430556,0.0766666667 6.65805556,0.1702 C6.51597222,0.2576 5.45569444,0.992066667 5.335,1.21133333 C5.24486111,1.35086667 5.3075,1.54253333 5.59777778,1.42906667 C5.77958333,1.35546667 6.35708333,1.22206667 6.56944444,1.46126667 C6.57708333,1.47046667 6.58777778,1.49346667 6.56333333,1.53333333 C6.54194444,1.56553333 6.50222222,1.60233333 6.43652778,1.62073333 C6.28680556,1.656 4.93777778,2.08533333 4.38166667,2.85813333 C4.36638889,2.88113333 4.33277778,2.94246667 4.36027778,3.0038 C4.39694444,3.08813333 4.48861111,3.18933333 4.71472222,3.09733333 C4.98513889,2.98846667 5.54430556,2.76306667 6.75277778,1.72193333 C6.78791667,1.69126667 6.84444444,1.6468 6.78638889,1.80166667 C6.75736111,1.8722 6.46708333,2.48706667 6.62444444,2.57293333 C6.77416667,2.61893333 6.92541667,2.64346667 6.95444444,2.45333333 C6.98347222,2.28773333 7.11638889,1.6468 7.49833333,1.27266667 C7.51666667,1.23433333 7.23555556,0.847933333 7.12097222,1.03806667" id="Shape" fill="#485756"></path>
                                    <path d="M11.9640278,1.19293333 C12.00375,1.173 12.0694444,1.1546 12.1091667,1.20826667 C12.1290278,1.24506667 12.1244444,1.29873333 12.1091667,1.34626667 C12.1076389,1.34933333 12.0648611,1.45053333 11.9105556,1.54406667 C11.7256944,1.65293333 11.4506944,1.77866667 11.4079167,1.7756 C11.5118056,1.472 11.8356944,1.265 11.9640278,1.19293333 M11.3681944,1.8492 C11.3681944,1.8492 11.8815278,1.69893333 12.1366667,1.495 C12.32,1.3616 12.2925,1.18373333 12.2909722,1.18373333 C12.2879167,1.11013333 12.25125,1.03346667 12.1091667,1.012 C12.0373611,1.0074 11.56375,0.941466667 11.2490278,1.587 C11.1436111,1.77406667 10.82125,2.3184 10.8808333,2.50086667 C10.8808333,2.50086667 10.8808333,2.50086667 10.8808333,2.5024 C10.9083333,2.57446667 10.9633333,2.6036 10.9633333,2.6036 C11.2123611,2.71706667 11.67375,2.36286667 11.8402778,2.2264 C11.8402778,2.2264 12.0327778,2.08226667 12.045,2.07306667 C12.1168056,2.02093333 12.1672222,1.98413333 12.1702778,1.9734 C12.1748611,1.94426667 12.1229167,1.909 11.8647222,2.093 C11.7165278,2.19726667 11.5163889,2.33833333 11.3972222,2.40733333 C11.3788889,2.41653333 11.3025,2.4564 11.2215278,2.4564 C11.1588889,2.45333333 11.1084722,2.41653333 11.1863889,2.24326667 C11.2719444,2.0194 11.3391667,1.8492 11.3681944,1.8492" id="Shape" fill="#485756"></path>
                                </g>
                                <path d="M24.0976389,6.923 C23.4284722,5.90026667 23.0083333,4.69966667 22.8570833,4.23046667 C22.8372222,4.1676 22.7501389,4.1676 22.72875,4.22893333 C22.5698611,4.69506667 22.1252778,5.888 21.43625,6.89693333 C20.9931944,7.54553333 20.8938889,8.19413333 20.9030556,8.67866667 C20.9091667,8.96386667 20.9519444,9.19233333 20.9855556,9.3288 C21.0008333,9.37786667 21.0176389,9.4254 21.0359722,9.4714 C21.3094444,10.1414667 21.9633333,10.6152667 22.7302778,10.6229333 C23.4972222,10.6306 24.15875,10.1690667 24.4459722,9.50513333 C24.4658333,9.45913333 24.4826389,9.4116 24.4994444,9.36406667 C24.5361111,9.2276 24.5834722,9.00066667 24.5956944,8.71546667 C24.6140278,8.23093333 24.5269444,7.5808 24.0976389,6.923 Z" id="Shape" fill="#069447"></path>
                                <path d="M2.13430556,12.5886667 L1.07402778,13.6405333 L0.01375,12.5886667 L1.07402778,11.5368 L2.13430556,12.5886667 Z M0.259722222,14.2722667 L1.82569444,14.1235333 L1.82569444,20.5574 L0.259722222,20.6570667 L0.259722222,14.2722667 Z" id="Shape" fill="#485756"></path>
                                <path d="M3.04638889,14.2722667 L4.52527778,14.1235333 L4.52527778,14.9898667 L4.54972222,14.9898667 C5.07986111,14.2722667 5.59777778,14.0744667 6.47319444,14.0744667 C7.76722222,14.0744667 8.63041667,14.904 8.63041667,16.2395333 L8.63041667,20.5574 L7.06444444,20.6570667 L7.06444444,16.6612 C7.06444444,15.9926667 6.75583333,15.4360667 6.05305556,15.4360667 C5.06611111,15.4360667 4.61083333,16.1904667 4.61083333,16.9832 L4.61083333,20.5589333 L3.04486111,20.6586 L3.04486111,14.2722667 L3.04638889,14.2722667 Z" id="Shape" fill="#485756"></path>
                                <path d="M10.2452778,13.1836 L11.81125,12.4782667 L11.81125,14.2722667 L13.2290278,14.2722667 L13.2290278,15.6338667 L11.81125,15.6338667 L11.81125,18.3187333 C11.81125,18.9244 12.0694444,19.3215333 12.9830556,19.3215333 C13.1556944,19.3215333 13.3527778,19.3092667 13.5254167,19.297 L13.1434722,20.7076667 C12.9952778,20.7444667 12.7248611,20.7567333 12.5277778,20.7567333 C11.2093056,20.7567333 10.2468056,20.0514 10.2468056,18.653 L10.2468056,15.6338667 L9.28583333,15.6338667 L9.63111111,14.2722667 L10.2468056,14.2722667 L10.2468056,13.1836 L10.2452778,13.1836 Z" id="Shape" fill="#485756"></path>
                                <path d="M19.7251389,19.9272 C18.96125,20.4592667 18.0231944,20.7567333 17.0988889,20.7567333 C15.2502778,20.7567333 13.6216667,19.3092667 13.6216667,17.4156 C13.6216667,15.5219333 15.24875,14.0744667 17.0988889,14.0744667 C18.3929167,14.0744667 19.5280556,14.8534 20.0826389,16.0172 L15.7926389,18.6898 C15.9163889,18.9489333 16.2616667,19.3215333 17.0133333,19.3215333 C17.8138889,19.3215333 18.4066667,19.0118 19.0605556,18.5794 L19.7251389,19.9272 Z M18.1102778,15.7933333 C17.8138889,15.4958667 17.4319444,15.3854667 17.0133333,15.3854667 C16.0263889,15.3854667 15.2380556,16.1889333 15.1525,17.1549333 C15.1525,17.2914 15.1525,17.4263333 15.1769444,17.5750667 L18.1102778,15.7933333 Z" id="Shape" fill="#485756"></path>
                                <polygon id="Shape" fill="#485756" points="20.8098611 20.6570667 20.8098611 12.0704 22.3758333 11.8726 22.3758333 20.5589333"></polygon>
                                <path d="M25.4206944,12.5886667 L24.3604167,13.6405333 L23.3001389,12.5886667 L24.3604167,11.5368 L25.4206944,12.5886667 Z M23.5461111,14.2722667 L25.1120833,14.1235333 L25.1120833,20.5574 L23.5461111,20.6570667 L23.5461111,14.2722667 Z" id="Shape" fill="#485756"></path>
                                <path d="M27.5152778,18.6146667 C26.4427778,18.1562 26.0363889,17.5996 26.0363889,16.5477333 C26.0363889,15.0757333 27.3059722,14.0729333 28.8963889,14.0729333 C29.2538889,14.0729333 29.5747222,14.0852 29.8329167,14.1097333 C30.0911111,14.122 30.3019444,14.1465333 30.4119444,14.1465333 C31.0276389,14.1465333 31.8908333,13.9487333 32.5936111,13.7264 L32.285,15.0619333 L31.3240278,15.0619333 C31.7181944,15.5081333 31.9534722,15.9650667 31.9534722,16.5968 C31.9534722,17.4754 31.4111111,18.1194 30.62125,18.4398667 C31.4966667,18.86 32.0634722,19.504 32.0634722,20.5068 C32.0634722,22.2149333 30.4241667,22.9816 29.1041667,22.9816 C27.6741667,22.9816 26.7620833,22.6228 25.9355556,21.7196667 L26.8965278,20.7168667 C27.5626389,21.4099333 27.9568056,21.6690667 28.94375,21.6690667 C29.5731944,21.6690667 30.4348611,21.2857333 30.4348611,20.4439333 C30.4348611,19.4794667 29.6831944,19.0332667 28.7711111,19.0332667 C28.22875,19.0332667 27.7108333,19.2310667 27.2540278,19.4917333 L27.5152778,18.6146667 Z M28.9956944,17.8602667 C29.7106944,17.8602667 30.3890278,17.3036667 30.3890278,16.5492667 C30.3890278,15.8071333 29.7106944,15.2505333 28.9956944,15.2505333 C28.2806944,15.2505333 27.6023611,15.8071333 27.6023611,16.5492667 C27.6023611,17.3036667 28.2806944,17.8602667 28.9956944,17.8602667 Z" id="Shape" fill="#485756"></path>
                                <path d="M33.9747222,14.2477333 C34.5659722,14.1358 35.1831944,14.0744667 35.7866667,14.0744667 C36.9080556,14.0744667 38.1409722,14.5697333 38.1409722,15.8439333 L38.1409722,20.5574 L36.7109722,20.7061333 L36.7109722,20.1618 C36.2801389,20.5328667 35.7240278,20.7552 35.145,20.7552 C33.8143056,20.7552 32.7784722,19.9762667 32.7784722,18.5410667 C32.7784722,17.4033333 33.7272222,16.4005333 34.8990278,16.4005333 C35.5773611,16.4005333 36.0204167,16.5124667 36.6254167,16.8206667 C36.6376389,16.6842 36.6620833,16.5615333 36.6620833,16.4005333 C36.6620833,15.5464667 36.0463889,15.3854667 35.3176389,15.3854667 C34.7019444,15.3854667 34.1091667,15.5342 33.5423611,15.7565333 L33.9747222,14.2477333 Z M35.4918056,19.4442 C36.0463889,19.4442 36.6376389,19.1099333 36.6376389,18.5410667 C36.6376389,17.9844667 36.0463889,17.6379333 35.4918056,17.6379333 C34.9372222,17.6379333 34.3459722,17.9844667 34.3459722,18.5410667 C34.3444444,19.1099333 34.9372222,19.4442 35.4918056,19.4442 Z" id="Shape" fill="#485756"></path>
                                <path d="M39.9177778,18.7756667 C40.3241667,19.2080667 40.7320833,19.4442 41.3355556,19.4442 C41.84125,19.4442 42.2109722,19.1222 42.2109722,18.8002 C42.2109722,17.6747333 39.1172222,18.4046 39.1172222,16.0034 C39.1172222,14.7169333 40.2508333,14.0729333 41.4104167,14.0729333 C42.2980556,14.0729333 43.1368056,14.4317333 43.7280556,15.1002667 L42.7044444,16.0156667 C42.3958333,15.6814 42.0016667,15.3839333 41.5204167,15.3839333 C41.0636111,15.3839333 40.76875,15.5572 40.76875,16.0402 C40.76875,17.0675333 43.8625,16.3622 43.8625,18.676 C43.8625,20.1112 42.5684722,20.7552 41.2988889,20.7552 C40.4234722,20.7552 39.5236111,20.4209333 38.9445833,19.7401333 L39.9177778,18.7756667 Z" id="Shape" fill="#485756"></path>
                                <path d="M21.6929167,2.36593333 C21.0802778,1.932 20.3484722,1.95193333 20.3484722,1.95193333 C20.3484722,1.95193333 17.61375,1.96113333 17.5266667,1.99793333 C17.4395833,2.03626667 17.0438889,1.9734 16.9063889,1.81086667 C16.7688889,1.64833333 16.5427778,1.6238 16.4388889,1.62993333 C16.3365278,1.63453333 15.9515278,1.66366667 15.7743056,1.54866667 C15.5970833,1.4352 15.5848611,1.16993333 15.5145833,0.656266667 C15.4427778,0.144133333 15.0104167,0.130333333 15.0104167,0.130333333 C13.4047222,-0.154866667 11.3116667,1.11166667 11.2688889,1.1316 C11.2276389,1.15153333 11,1.39073333 11.0809722,1.7296 C11.1619444,2.07 10.8120833,2.3966 10.8120833,2.3966 C10.8120833,2.3966 7.33791667,4.61073333 7.20652778,4.6828 C7.07666667,4.75486667 7.16222222,4.80393333 7.13472222,4.9864 C7.10722222,5.16886667 7.04916667,5.1704 6.93458333,5.29 C6.91166667,5.31453333 6.89333333,5.34826667 6.87805556,5.38813333 C6.63208333,5.53073333 5.50152778,6.25906667 4.56347222,8.00246667 C3.96916667,9.10646667 3.56583333,10.4006 3.36416667,11.8511333 C3.28166667,12.443 3.23736111,13.0655333 3.22208333,13.7095333 L4.31444444,13.6006667 C4.36638889,11.8894667 4.67805556,10.1230667 5.47708333,8.60046667 C6.20277778,7.21586667 7.06138889,6.5688 7.34097222,6.3848 C7.47236111,6.40626667 7.62208333,6.30046667 7.71069444,6.21613333 C7.82222222,6.11033333 8.14763889,6.2146 8.14763889,6.2146 C8.30041667,6.118 8.44097222,6.32653333 8.44097222,6.32653333 C8.44097222,6.32653333 10.3063889,8.39193333 10.6333333,8.42413333 C10.9602778,8.45633333 11.6477778,7.88593333 11.6477778,7.88593333 C12.6988889,7.06406667 13.8798611,5.80673333 13.8798611,5.80673333 C14.1166667,5.97846667 14.39625,5.70706667 14.39625,5.70706667 C14.39625,5.70706667 14.5933333,5.6074 15.2120833,4.62606667 C15.8293056,3.64626667 16.4113889,3.51746667 16.6604167,3.44386667 C16.9094444,3.37026667 16.885,3.10193333 16.885,3.10193333 C17.1172222,3.03906667 17.38,2.91026667 17.38,2.91026667 C17.5404167,2.84586667 18.9444444,2.806 19.7709722,2.74926667 C20.5975,2.69253333 21.3231944,3.07893333 21.3231944,3.07893333 L22.4568056,3.83793333 L23.0297222,3.3718 C23.0297222,3.3764 22.3055556,2.79986667 21.6929167,2.36593333 Z M13.3329167,5.55526667 C13.1098611,5.8972 12.2726389,7.0656 10.9480556,7.61913333 C10.7861111,7.6866 10.6027778,7.6636 10.4622222,7.55933333 C10.2498611,7.40293333 9.93972222,7.06713333 9.59902778,6.35106667 C9.56847222,6.2882 9.59444444,6.21153333 9.65555556,6.1778 L11.7516667,5.04466667 C11.8234722,5.00633333 11.89375,4.96493333 11.9625,4.922 C12.1168056,4.8254 12.5461111,4.61993333 12.8852778,5.05386667 C12.8852778,5.05386667 13.0456944,5.21333333 13.3008333,5.39733333 C13.3527778,5.4326 13.3665278,5.50313333 13.3329167,5.55526667 Z M13.3726389,4.82693333 C13.2794444,4.81773333 13.1419444,4.7656 12.9708333,4.59693333 C12.6286111,4.26113333 12.045,4.4758 12.045,4.4758 C12.045,4.4758 9.79916667,5.42646667 9.62194444,5.5338 C9.44472222,5.64113333 9.26444444,5.65646667 9.21402778,5.56446667 C9.16361111,5.474 9.28583333,5.38506667 9.28583333,5.38506667 C9.28583333,5.38506667 11.2398611,3.83946667 12.1015278,3.57113333 C12.815,3.3488 13.3191667,4.3424 13.4704167,4.6874 C13.4979167,4.7564 13.4459722,4.8346 13.3726389,4.82693333 Z" id="Shape" fill="#F6921E"></path>
                            </g>
                        </g>
                    </g>
                </g>
            </g>
        </g>
    </g>
</svg>