<svg xmlns="http://www.w3.org/2000/svg" width="309" height="274" viewBox="0 0 309 274">
    <g fill="none" fill-rule="nonzero">
        <path fill="#4A5352" d="M203.39 0C145.38.045 98.376 47.085 98.376 105.097c0 2.923.213 5.813.443 8.67l55.553-18.03s-25.042-26.472-27.03-29c-.82-1.643-1.1-11.496 1.003-10.33 12.743 7.062 49.264 29.312 49.264 29.312s39.97-17.34 53.221-22.168c19.706-7.094 37.129-3.186 40.052 2.463 0 0 12.25.361 14.55 4.926 1.543 3.055-4.352 11.856-9 14.484-15.567 8.835-80.02 29.558-80.02 29.558s-50.907 45.635-54.191 47.885c-6.454 4.335-11.627 1.74-11.627 1.74 7.275-10.296 22.99-39.05 22.99-39.05l-50.758 9.509c15.481 51.798 67.764 83.374 120.816 72.966 53.05-10.408 89.527-59.399 84.289-113.207C302.693 41.017 257.453-.02 203.39 0z"/>
        <path fill="#FFF" d="M130.184 164.537s5.172 2.595 11.626-1.74c3.284-2.25 54.19-47.885 54.19-47.885s64.438-20.74 80.022-29.559c4.647-2.627 10.542-11.495 8.999-14.483-2.316-4.55-14.55-4.927-14.55-4.927-2.906-5.649-20.395-9.557-40.051-2.463-13.252 4.779-53.173 22.12-53.173 22.12s-36.586-22.251-49.264-29.313c-2.102-1.165-1.822 8.753-1.001 10.33 1.987 2.528 27.03 29 27.03 29l-55.636 17.981a104.768 104.768 0 0 0 3.974 21.348l50.758-9.508s-15.666 28.803-22.924 39.099z"/>
        <path fill="#F59100" d="M94.856 136.916c-17.949 4.762-64.24 21.906-91.122 76.36l-3.695-4.237c13.99-64.782 69.643-87.033 90.317-93.142l4.5 21.02zM263.908 230.123h43.234v43.234h-43.234z"/>
        <path fill="#FFF" d="M281.076 251.692c0 2.22-.49 3.934-2.993 3.934-2.8 0-3.097-2.012-3.097-3.637v-12.783l-3.588.804v12.51c0 4.763 3.314 6.573 6.524 6.573 4.184 0 6.742-2.687 6.742-6.058v-13.83l-3.58.805-.008 11.682zM293.49 256.334a4.191 4.191 0 1 1 4.022-4.192 4.07 4.07 0 0 1-4.023 4.192m.226-11.52a6.685 6.685 0 0 0-3.878 1.222v-2.027l-3.467.804v19.091l3.459-.805v-4.89a6.766 6.766 0 0 0 3.886 1.222 7.337 7.337 0 0 0 0-14.666"/>
        <path fill="#4A5352" d="M229.628 235.03a3.974 3.974 0 0 1 3.074-1.214 5.487 5.487 0 0 1 5.39 5.583 5.696 5.696 0 0 1-5.8 5.631c-2.776 0-5.27-2.34-5.27-5.76v-8.817l2.63-.33-.024 4.908zm0 4.369a3.154 3.154 0 0 0 3.106 3.218 3.218 3.218 0 0 0 0-6.38 3.146 3.146 0 0 0-3.106 3.218v-.056zM243.24 248.313l-2.59-.378 2.148-4.578-4.57-9.01 2.583-.531 3.33 6.725 2.824-6.725 2.55.53z"/>
    </g>
</svg>
