<svg xmlns="http://www.w3.org/2000/svg" width="337" height="308" viewBox="0 0 337 308">
    <g fill="none" fill-rule="evenodd">
        <path fill="#F59100" fill-rule="nonzero" d="M292.908 207.123h43.234v43.234h-43.234z"/>
        <path fill="#FFF" fill-rule="nonzero" d="M310.076 228.692c0 2.22-.49 3.934-2.993 3.934-2.8 0-3.097-2.012-3.097-3.637v-12.783l-3.588.804v12.51c0 4.763 3.314 6.573 6.524 6.573 4.184 0 6.742-2.687 6.742-6.058v-13.83l-3.58.805-.008 11.682zM322.49 233.334a4.191 4.191 0 1 1 4.022-4.192 4.07 4.07 0 0 1-4.023 4.192m.226-11.52a6.685 6.685 0 0 0-3.878 1.222v-2.027l-3.467.804v19.091l3.459-.805v-4.89a6.766 6.766 0 0 0 3.886 1.222 7.337 7.337 0 0 0 0-14.666"/>
        <path fill="#4A5352" fill-rule="nonzero" d="M258.628 212.03a3.974 3.974 0 0 1 3.074-1.214 5.487 5.487 0 0 1 5.39 5.583 5.696 5.696 0 0 1-5.8 5.631c-2.776 0-5.27-2.34-5.27-5.76v-8.817l2.63-.33-.024 4.908zm0 4.369a3.154 3.154 0 0 0 3.106 3.218 3.218 3.218 0 0 0 0-6.38 3.146 3.146 0 0 0-3.106 3.218v-.056zM272.24 225.313l-2.59-.378 2.148-4.578-4.57-9.01 2.583-.531 3.33 6.725 2.824-6.725 2.55.53z"/>
        <path fill="#069447" d="M287.488 84.87c-12.668-19.362-20.622-42.091-23.485-50.974-.376-1.19-2.025-1.19-2.43-.029-3.007 8.825-11.424 31.409-24.468 50.51-8.388 12.278-10.268 24.557-10.094 33.73.115 5.399.925 9.724 1.562 12.308.289.928.607 1.828.954 2.7 5.177 12.684 17.556 21.654 32.075 21.8 14.52.144 27.043-8.593 32.48-21.162.377-.871.695-1.77 1.013-2.67.694-2.584 1.59-6.88 1.822-12.28.347-9.173-1.301-21.48-9.429-33.933z"/>
        <path fill="#F6921E" d="M236.186 1.398c-12.716-2.774-24.26 2.5-24.26 2.5s-43.578 18.672-44.718 19.85c-1.13 1.2-7.87 2.878-11.166 1.216-3.295-1.663-7.07-.523-8.686.279-1.602.767-7.549 3.84-11.156 3.205-3.596-.61-5.588-4.76-10.19-12.482-4.614-7.686-11.607-4.978-11.607-4.978-27.556 6.326-52.378 40.715-52.926 41.323-.523.598-2.535 5.957 1.052 10.816 3.598 4.884.227 12.465.227 12.465S22.313 134.46 20.705 136.5c-1.584 2.03.113 2.233.91 5.331.798 3.099-.118 3.516-1.137 6.201-.2.547-.263 1.21-.237 1.949-2.96 3.942-16.067 23.223-19.227 57.398-2.006 21.644.324 45.028 6.931 69.542 2.693 10.003 6.203 20.238 10.321 30.619l16.695-9.137c-10.763-27.66-17.754-57.96-15.317-87.67 2.201-27.01 11.52-43.153 14.735-47.983 2.243-.547 3.915-3.25 4.758-5.196 1.063-2.444 6.962-2.984 6.962-2.984 1.784-2.577 5.44-.2 5.44-.2s43.759 20.323 49.194 18.622c5.436-1.7 12.543-15.46 12.543-15.46 11.207-20.236 21.536-48.3 21.536-48.3 4.942 1.137 7.565-5.088 7.565-5.088s2.47-2.926 5.697-22.777c3.213-19.817 11.63-25.815 15.105-28.677 3.475-2.861 1.267-6.978 1.267-6.978 3.28-2.576 6.601-6.411 6.601-6.411 2.124-2.115 24.26-12.261 37.065-18.765 12.806-6.505 27.004-5.254 27.004-5.254l23.231 4.433 5.985-11.32c.032.074-15.43-4.22-28.146-6.996zM124.38 108.923c-1.243 6.968-6.689 31.284-24.077 49.09a8.563 8.563 0 0 1-8.158 2.337c-4.449-1.058-11.673-4.316-21.96-13.435-.913-.796-1.018-2.195-.271-3.148l25.774-32.281a62.388 62.388 0 0 0 2.533-3.386c1.809-2.586 7.268-8.773 15.62-4.146 0 0 3.64 1.458 8.958 2.666a2.005 2.005 0 0 1 1.581 2.303zm-4.3-11.892c-1.549.485-4.096.584-7.97-.948-7.735-3.04-15.594 4.338-15.594 4.338s-29.4 30.384-31.501 33.297c-2.101 2.913-4.874 4.38-6.302 3.253-1.417-1.103-.07-3.35-.07-3.35s20.714-37.9 32.647-48.02c9.88-8.38 24.655 4.06 29.406 8.541.906.915.607 2.515-.615 2.89z"/>
    </g>
</svg>
