<svg xmlns="http://www.w3.org/2000/svg" width="151" height="87" viewBox="0 0 151 87">
    <g fill="none" fill-rule="nonzero">
        <path fill="#4A5352" d="M6.118 43.492l-2.825 2.783L.47 43.483l2.824-2.791 2.825 2.8zm-4.99 4.469l4.17-.396v17.077l-4.17.262V47.961zM8.88 47.958l3.941-.396v2.288h.066c1.412-1.904 2.791-2.431 5.124-2.431 3.45 0 5.747 2.198 5.747 5.747v11.461l-4.17.262V54.298c0-1.788-.823-3.25-2.682-3.25-2.628 0-3.844 2.002-3.844 4.105v9.492l-4.17.262-.012-16.949zM28.39 45.083l4.172-1.87v4.766h3.775v3.61h-3.775v7.127c0 1.609.688 2.66 3.12 2.66.458 0 .985-.032 1.444-.065l-1.019 3.733a8.31 8.31 0 0 1-1.641.131c-3.513 0-6.075-1.87-6.075-5.583v-8.014h-2.562l.92-3.611h1.642v-2.884zM53.977 62.959a12.435 12.435 0 0 1-6.996 2.198c-4.924 0-9.26-3.84-9.26-8.866s4.336-8.866 9.26-8.866c3.45 0 6.471 2.067 7.946 5.157l-11.428 7.1c.327.69 1.248 1.674 3.25 1.674 2.136 0 3.712-.822 5.452-1.972l1.776 3.575zm-4.302-10.97c-.787-.79-1.806-1.084-2.923-1.084-2.628 0-4.728 2.133-4.957 4.695-.01.373.011.747.065 1.117l7.815-4.728zM57.197 64.904v-22.8l4.171-.528V64.63zM69.818 43.492l-2.83 2.783-2.831-2.783 2.824-2.791 2.837 2.791zm-4.994 4.469l4.171-.396v17.077l-4.17.262V47.961z"/>
        <path fill="#F59100" d="M70.074 47.958l4.138-.724 3.974 9.853 3.975-9.853 4.072.724-8.014 17.208h-.06zM92.344 43.492l-2.825 2.783-2.824-2.792 2.824-2.791 2.825 2.8zm-4.993 4.469l4.17-.396v17.077l-4.17.262V47.961zM97.206 47.892a26.45 26.45 0 0 1 4.826-.458c2.98 0 6.272 1.314 6.272 4.695v12.513l-3.808.402V63.6a6.444 6.444 0 0 1-4.17 1.576c-3.549 0-6.308-2.067-6.308-5.878a5.738 5.738 0 0 1 5.66-5.681 8.991 8.991 0 0 1 4.598 1.117c.053-.37.087-.743.101-1.117 0-2.268-1.641-2.682-3.575-2.682a12.98 12.98 0 0 0-4.731.983l1.135-4.025zm4.04 13.795c1.49 0 3.054-.894 3.054-2.384 0-1.49-1.576-2.383-3.054-2.383-1.478 0-3.054.92-3.054 2.383s1.576 2.384 3.054 2.384z"/>
        <path fill="#F59100" d="M115.898 47.565V65.3c0 3.549-2.267 5.78-5.976 5.78-.528 0-1.02-.033-1.49-.068l-1.281-3.644c.403.058.809.09 1.215.098 1.806 0 3.352-.893 3.352-2.922V47.958l4.18-.393zm.822-4.073l-2.827 2.783-2.824-2.792 2.824-2.791 2.827 2.8zM134.715 62.959a12.432 12.432 0 0 1-6.995 2.198c-4.925 0-9.26-3.84-9.26-8.866s4.335-8.866 9.26-8.866c3.447 0 6.47 2.067 7.945 5.157l-11.425 7.1c.328.69 1.248 1.674 3.25 1.674 2.136 0 3.712-.822 5.452-1.972l1.773 3.575zm-4.302-10.97c-.787-.79-1.806-1.084-2.923-1.084-2.627 0-4.728 2.133-4.96 4.695-.01.373.012.747.065 1.117l7.818-4.728zM139.58 59.914c1.085 1.15 2.17 1.787 3.778 1.787 1.346 0 2.333-.855 2.333-1.71 0-2.979-8.244-1.048-8.244-7.421 0-3.414 3.021-5.121 6.107-5.121a8.184 8.184 0 0 1 6.174 2.699l-2.726 2.43c-.823-.893-1.871-1.673-3.153-1.673-1.215 0-2.002.458-2.002 1.74 0 2.725 8.244.851 8.244 6.995 0 3.81-3.45 5.517-6.831 5.517-2.333 0-4.729-.893-6.272-2.681l2.592-2.562z"/>
        <path fill="#4A5352" d="M103.781.483C93.256.492 84.73 9.026 84.73 19.551c0 .53.039 1.054.08 1.573l10.08-3.271s-4.544-4.803-4.905-5.262c-.149-.298-.2-2.085.182-1.874 2.312 1.281 8.938 5.318 8.938 5.318s7.251-3.146 9.656-4.022c3.575-1.287 6.736-.578 7.266.447 0 0 2.223.066 2.64.894.28.554-.79 2.15-1.633 2.628-2.824 1.602-14.518 5.362-14.518 5.362s-9.236 8.28-9.832 8.688c-1.17.786-2.109.316-2.109.316 1.32-1.868 4.171-7.085 4.171-7.085l-9.209 1.725c2.809 9.397 12.294 15.126 21.92 13.238 9.624-1.888 16.242-10.777 15.292-20.539C121.798 7.925 113.59.48 103.78.483z"/>
        <path fill="#FFF" d="M90.577 30.35s.939.471 2.11-.315c.595-.408 9.831-8.688 9.831-8.688s11.69-3.763 14.518-5.362c.843-.477 1.913-2.086 1.633-2.628-.42-.825-2.64-.894-2.64-.894-.527-1.025-3.7-1.734-7.266-.447-2.405.867-9.647 4.013-9.647 4.013s-6.638-4.037-8.938-5.318c-.381-.211-.33 1.588-.182 1.874.36.459 4.904 5.262 4.904 5.262l-10.094 3.262c.106 1.312.347 2.61.721 3.873l9.21-1.725s-2.843 5.226-4.16 7.094z"/>
        <path fill="#F59100" d="M133.81 70.44h16.01v16.011h-16.01z"/>
        <path fill="#FFF" d="M140.167 78.427c0 .822-.182 1.457-1.108 1.457-1.037 0-1.147-.745-1.147-1.347v-4.734l-1.329.298v4.633c0 1.764 1.227 2.434 2.416 2.434 1.55 0 2.497-.995 2.497-2.243v-5.122l-1.326.298-.003 4.326zM144.764 80.146a1.552 1.552 0 1 1 1.49-1.552 1.508 1.508 0 0 1-1.49 1.552m.084-4.266a2.476 2.476 0 0 0-1.437.453v-.751l-1.284.298v7.07l1.282-.298V80.84c.421.295.924.454 1.439.453a2.717 2.717 0 0 0 0-5.431"/>
        <path fill="#4A5352" d="M121.115 72.257a1.472 1.472 0 0 1 1.138-.45 2.032 2.032 0 0 1 1.996 2.068 2.11 2.11 0 0 1-2.148 2.085c-1.028 0-1.952-.867-1.952-2.133v-3.265l.975-.122-.01 1.817zm0 1.618a1.168 1.168 0 0 0 1.15 1.191 1.192 1.192 0 0 0 0-2.362 1.165 1.165 0 0 0-1.15 1.192v-.021zM126.156 77.176l-.96-.14.796-1.695-1.693-3.337.957-.197 1.233 2.49 1.046-2.49.944.197z"/>
        <path fill="#F59100" d="M84.175 25.289c-3.257.864-11.655 3.974-16.532 13.853l-.67-.768c2.538-11.753 12.634-15.79 16.385-16.899l.817 3.814z"/>
    </g>
</svg>
