<svg xmlns="http://www.w3.org/2000/svg" xmlns:xlink="http://www.w3.org/1999/xlink" width="73" height="19" viewBox="0 0 73 19">
    <defs>
        <path id="a" d="M.344.274h16.841v16.841H.344z"/>
    </defs>
    <g fill="none" fill-rule="evenodd">
        <g transform="translate(-.317 .683)">
            <mask id="b" fill="#fff">
                <use xlink:href="#a"/>
            </mask>
            <use fill="#FFF" xlink:href="#a"/>
            <path fill="#ED9875" d="M11.942 5.824c-.574 0-1.072.153-1.493.459v-.804l-1.34.345v7.425l1.34-.306v-1.914c.421.306.957.46 1.531.46 1.531 0 2.756-1.264 2.756-2.871-.038-1.493-1.263-2.794-2.794-2.794m-.077 4.478c-.918 0-1.569-.766-1.569-1.646 0-.88.65-1.646 1.57-1.646.918 0 1.569.766 1.569 1.646 0 .919-.69 1.646-1.57 1.646M7.043 8.656c0 .88-.192 1.53-1.149 1.53-1.071 0-1.224-.765-1.224-1.415V3.795L3.253 4.1v4.861c0 1.837 1.302 2.565 2.527 2.565 1.645 0 2.64-1.034 2.64-2.374V3.757l-1.416.306v4.593h.039z" mask="url(#b)"/>
        </g>
        <path fill="#F59100" d="M68.464 5.052h.191c.077 0 .077.039.115.077 0 0 .039.268.039.306h.23C69 5.397 69 5.244 69 5.167c0-.115-.038-.23-.153-.23.076-.038.191-.076.191-.23 0-.267-.23-.267-.344-.267h-.345v.995h.192v-.383h-.077zm0-.42h.153c.038 0 .153 0 .153.152 0 .039-.038.154-.153.154h-.153V4.63z"/>
        <path fill="#F59100" d="M68.617 5.856c.498 0 .88-.383.88-.88a.89.89 0 0 0-.88-.88.89.89 0 0 0-.88.88c-.038.497.383.88.88.88zm0-1.646c.421 0 .766.345.766.728a.768.768 0 0 1-.766.765.768.768 0 0 1-.765-.765c0-.383.344-.728.765-.728z"/>
        <path fill="#FFF" d="M42.322 1.187S40.408 3.56 40.293 4.44c0 0 .651.191 2.68-2.335.038-.076.115-.115.153-.191.268-.421.191-.69-.804-.727zM57.48 9.071c-1.494-1.301-4.403 2.68-5.59 4.249-1.53 1.607-.037-1.952.23-2.488 2.756-5.206 5.512-4.21 5.512-4.21.306-.842-2.603-.766-2.947-.728-2.756 1.034-4.478 5.971-4.976 7.54-.46 1.761 1.378 1.455 1.684 1.225 2.756-4.018 3.177-4.057 3.522-4.172.803.039 0 2.948.038 3.254 1.301-.46 2.526-4.44 2.526-4.67zM69.421 11.712c-.574.268-4.019 2.067-4.631 2.488 0 0-.192.115-.23.192l-.038.038c-.039.038 0 .076.115.115.038 0 .076 0 .114.038 0 0 4.747-2.488 5.32-2.603.269-.076.154-.536-.65-.268z"/>
        <path fill="#FFF" d="M53.92 5.014a105.045 105.045 0 0 1 4.171-2.143s-1.76-1.378-3.444 0c-1.646 1.34-4.172 3.444-8.88 11.1-.192.306-.345.382-.498.42-.344 0-.46-.612-.497-.688-.039-.345.038-.728.114-1.493.345-2.603 1.723-5.435.575-6.316 0 0-.421-.344-1.34-.191 0 0 .077 1.531.077 2.297-.039 1.875-.192 4.363-.23 5.09 0 .23-.115 1.187.23 1.646v.038l.076.077c.23.23.88.65 1.608-.23.076-.076.153-.191.23-.306.076-.077.114-.153.152-.191.153-.192.307-.421.498-.728 1.072-1.416 4.555-6.966 7.157-8.382zM64.216 1.187c.114-.115.153-.23.19-.268.04-.039.04-.077.04-.077 0-.076.267-.612-1.264-.574-1.301.038-1.34 1.033-1.34 1.34 0 0 0 .574-.459 1.607-1.301 2.833-5.78 12.822-5.97 14.774v.115c0 .039 0 .077.037.077.039 0 .077-.038.115-.115 0-.038.039-.038.077-.077v-.038c.153-.23.46-.765 1.033-1.875 1.149-2.259 7.273-14.392 7.273-14.392s.076-.23.268-.497zM72.827 12.554c-.114-.268-.535-.23-.535-.23-1.11 0-3.79 1.264-4.861 1.8l-.153.076c-.192.115-.498.345-.192.498.077.038.192.038.306.038h.345c.076-.268 2.68-1.033 3.98-1.416.268-.077.498-.153.651-.23.23-.076.574-.268.46-.536zM38.265 5.894c-.306.842-1.034 2.603-1.225 2.603-.23.038-.421-.076-.957-.497-.689-.575-1.416-1.761-6.124-.996-.191 0-.383-.42.536-1.033.842-.574 2.947-2.258 7.004-3.1 0 0-.727-2.412-1.913-1.876-.804.498-6.852 4.67-7.54 5.895-.498.803-.154 1.875 1.492 1.224 1.033-.42 4.325-1.186 5.55.192.038.038.115.191-.038.42-.115.192-.345.384-.728.498-.842.192-8.535 2.641-11.712 7.005-.076.115-.268.46-.115.842.23.46.728 1.033 2.029.536 1.531-.613 4.708-1.914 11.597-7.809.192-.153.536-.42.192.46-.153.383-1.837 3.904-.919 4.363.842.268 1.723.383 1.876-.689.153-.957.918-4.593 3.1-6.698.153-.23-1.454-2.411-2.105-1.34zM33.9 10.181c-3.176 3.598-6.89 5.435-8.305 6.124-.574.307-.88.46-1.11.574H24.37c-.306.077-.153-.344-.115-.42 1.416-2.948 9.454-6.47 9.454-6.47.153-.037.23.077.191.192zM62.455 10.526s2.909-.842 4.363-1.99c1.034-.766.88-1.761.88-1.761 0-.421-.23-.842-1.033-.957-.42-.038-3.1-.383-4.9 3.253-.611 1.072-2.449 4.134-2.104 5.167.153.421.46.575.46.575 1.415.65 4.056-1.378 4.975-2.144 0 0 1.11-.804 1.148-.88.421-.306.69-.498.727-.574.039-.153-.268-.383-1.722.689-.842.574-1.99 1.378-2.68 1.799-.114.038-.535.268-.994.268-.345 0-.651-.23-.192-1.225.498-1.263.88-2.22 1.072-2.22zm3.368-3.751c.23-.115.613-.23.842.076.115.192.077.498 0 .804 0 0-.23.574-1.148 1.11-1.034.612-2.603 1.34-2.87 1.301.612-1.684 2.449-2.87 3.176-3.291z"/>
    </g>
</svg>
