<?xml version="1.0" encoding="UTF-8" standalone="no"?>
<svg width="90px" height="23px" viewBox="0 0 90 23" version="1.1" xmlns="http://www.w3.org/2000/svg" xmlns:xlink="http://www.w3.org/1999/xlink">
    <!-- Generator: sketchtool 40.3 (33839) - http://www.bohemiancoding.com/sketch -->
    <title>DA71EBD8-1B2C-48C7-88FB-7AB1B2A76966</title>
    <desc>Created with sketchtool.</desc>
    <defs></defs>
    <g id="App-iOS" stroke="none" stroke-width="1" fill="none" fill-rule="evenodd">
        <g id="Iniciar-viaje" transform="translate(-143.000000, -30.000000)">
            <g id="Navigation-Bar-Light">
                <g id="sivale-logo">
                    <g transform="translate(140.000000, 29.562034)">
                        <g id="logo" transform="translate(3.000000, 0.000000)">
                            <g id="Capa_1">
                                <rect id="Rectangle-path" fill="#F59100" x="0.420610955" y="1.29375" width="20.5632022" height="21.0833333"></rect>
                                <g id="Group" transform="translate(3.738764, 5.750000)" fill="#FFFFFF">
                                    <path d="M4.86039326,6.08541667 C4.86039326,7.1875 4.62672051,8.00208333 3.45835674,8.00208333 C2.14978933,8.00208333 1.96285112,7.04375 1.96285112,6.22916667 L1.96285112,0 L0.233672753,0.383333333 L0.233672753,6.46875 C0.233672753,8.76875 1.82264747,9.67916667 3.31815309,9.67916667 C5.32773876,9.67916667 6.54283708,8.38541667 6.54283708,6.70833333 L6.54283708,0 L4.81365871,0.383333333 L4.81365871,6.08541667 L4.86039326,6.08541667 Z" id="Shape"></path>
                                    <path d="M10.8891503,2.53958333 C10.188132,2.53958333 9.58058287,2.73125 9.06650281,3.11458333 L9.06650281,2.10833333 L7.43079354,2.53958333 L7.43079354,11.8354167 L9.06650281,11.4520833 L9.06650281,9.05625 C9.58058287,9.43958333 10.2348666,9.63125 10.9358848,9.63125 C12.8052669,9.63125 14.3007725,8.05 14.3007725,6.0375 C14.2073034,4.12083333 12.7117978,2.53958333 10.8891503,2.53958333 M10.7489466,8.14583333 C9.62731742,8.14583333 8.83283006,7.1875 8.83283006,6.08541667 C8.83283006,4.98333333 9.62731742,4.025 10.7489466,4.025 C11.8705758,4.025 12.6650632,4.98333333 12.6650632,6.08541667 C12.6650632,7.1875 11.8705758,8.14583333 10.7489466,8.14583333" id="Shape"></path>
                                </g>
                                <g id="Group" transform="translate(27.573385, 0.000000)" fill="#525B58">
                                    <path d="M56.4553371,6.46875 L56.6890098,6.46875 C56.7824789,6.46875 56.7824789,6.51666667 56.8292135,6.56458333 C56.8292135,6.56458333 56.875948,6.9 56.875948,6.94791667 L57.1563553,6.94791667 C57.1096208,6.9 57.1096208,6.70833333 57.1096208,6.6125 C57.1096208,6.46875 57.0628862,6.325 56.9226826,6.325 C57.0161517,6.27708333 57.1563553,6.22916667 57.1563553,6.0375 C57.1563553,5.70208333 56.875948,5.70208333 56.7357444,5.70208333 L56.3151334,5.70208333 L56.3151334,6.94791667 L56.5488062,6.94791667 L56.5488062,6.46875 L56.4553371,6.46875 Z M56.4553371,5.89375 L56.6422753,5.89375 C56.6890098,5.89375 56.8292135,5.89375 56.8292135,6.08541667 C56.8292135,6.13333333 56.7824789,6.27708333 56.6422753,6.27708333 L56.4553371,6.27708333 L56.4553371,5.89375 L56.4553371,5.89375 Z" id="Shape"></path>
                                    <path d="M56.5955407,7.42708333 C57.2030899,7.42708333 57.6704354,6.94791667 57.6704354,6.325 C57.6704354,5.70208333 57.1563553,5.22291667 56.5955407,5.22291667 C56.0347261,5.22291667 55.5206461,5.70208333 55.5206461,6.325 C55.5206461,6.94791667 56.0347261,7.42708333 56.5955407,7.42708333 L56.5955407,7.42708333 Z M56.5955407,5.41458333 C57.1096208,5.41458333 57.5302317,5.84583333 57.5302317,6.325 C57.5302317,6.85208333 57.1096208,7.28333333 56.5955407,7.28333333 C56.0814607,7.28333333 55.6608497,6.85208333 55.6608497,6.325 C55.7075843,5.79791667 56.1281952,5.41458333 56.5955407,5.41458333 L56.5955407,5.41458333 Z" id="Shape"></path>
                                    <path d="M24.4889045,1.58125 C24.4889045,1.58125 22.152177,4.55208333 22.0119733,5.65416667 C22.0119733,5.65416667 22.8064607,5.89375 25.2833919,2.73125 C25.3301264,2.63541667 25.4235955,2.5875 25.4703301,2.49166667 L25.4703301,2.49166667 L25.4703301,2.49166667 C25.8442065,1.96458333 25.7040028,1.62916667 24.4889045,1.58125 L24.4889045,1.58125 Z" id="Shape"></path>
                                    <path d="M43.0425211,11.5 C41.2198736,9.87083333 37.6680478,14.8541667 36.2192767,16.81875 C34.3498947,18.83125 36.1725421,14.375 36.499684,13.7041667 C39.8645716,7.1875 43.2294593,8.43333333 43.2294593,8.43333333 C43.6033357,7.37916667 40.0515098,7.475 39.6308989,7.52291667 C36.2660112,8.81666667 34.1629565,14.9979167 33.5554073,16.9625 C32.9945927,19.1666667 35.2378511,18.7833333 35.6117275,18.4958333 C38.9766152,13.4645833 39.4906952,13.4166667 39.9113062,13.2729167 C40.8927317,13.3208333 39.9113062,16.9625 39.9580407,17.3458333 C41.5002809,16.7229167 43.0425211,11.7875 43.0425211,11.5 L43.0425211,11.5 Z" id="Shape"></path>
                                    <path d="M57.6237008,14.7583333 C56.9226826,15.09375 52.716573,17.3458333 51.9688202,17.8729167 L51.9688202,17.8729167 C51.9688202,17.8729167 51.7351475,18.0166667 51.6884129,18.1125 L51.6416784,18.1604167 C51.5949438,18.2083333 51.6416784,18.25625 51.781882,18.3041667 L51.781882,18.3041667 C51.8286166,18.3041667 51.8753511,18.3041667 51.9220857,18.3520833 C51.9220857,18.3520833 57.7171699,15.2375 58.4181882,15.09375 C58.6985955,14.9979167 58.5583919,14.4229167 57.6237008,14.7583333 L57.6237008,14.7583333 Z" id="Shape"></path>
                                    <path d="M38.6494733,6.42083333 C41.1264045,5.03125 43.7435393,3.7375 43.7435393,3.7375 C43.7435393,3.7375 41.59375,2.0125 39.5374298,3.7375 C37.5278441,5.41458333 34.4433638,8.05 28.695014,17.6333333 L28.695014,17.6333333 C28.4613413,18.0166667 28.2744031,18.1125 28.0874649,18.1604167 C27.6668539,18.1604167 27.5266503,17.39375 27.4799157,17.2979167 C27.4331812,16.8666667 27.5266503,16.3875 27.6201194,15.4291667 C28.0407303,12.1708333 29.7231742,8.625 28.3211376,7.52291667 L28.3211376,7.52291667 C28.3211376,7.52291667 27.8070576,7.09166667 26.6854284,7.28333333 C26.6854284,7.28333333 26.7788975,9.2 26.7788975,10.1583333 C26.7321629,12.50625 26.5452247,15.6208333 26.4984902,16.53125 C26.4984902,16.81875 26.3582865,18.0166667 26.7788975,18.5916667 L26.7788975,18.5916667 C26.7788975,18.5916667 26.7788975,18.5916667 26.7788975,18.6395833 C26.825632,18.6875 26.825632,18.6875 26.8723666,18.7354167 C27.1527739,19.0229167 27.9472612,19.55 28.8352177,18.4479167 C28.9286868,18.3520833 29.0221559,18.2083333 29.115625,18.0645833 C29.2090941,17.96875 29.2558287,17.8729167 29.3025632,17.825 C29.4895014,17.5854167 29.6764396,17.2979167 29.9101124,16.9145833 C31.2654143,15.09375 35.4715239,8.19375 38.6494733,6.42083333 L38.6494733,6.42083333 Z" id="Shape"></path>
                                    <path d="M51.267802,1.58125 L51.267802,1.58125 C51.4080056,1.4375 51.4547402,1.29375 51.5014747,1.24583333 L51.5014747,1.24583333 L51.5014747,1.24583333 C51.5482093,1.19791667 51.5482093,1.15 51.5482093,1.15 C51.5482093,1.05416667 51.8753511,0.383333333 50.0059691,0.43125 C48.4169944,0.479166667 48.3702598,1.725 48.3702598,2.10833333 L48.3702598,2.10833333 C48.3702598,2.10833333 48.3702598,2.82708333 47.8094452,4.12083333 L47.8094452,4.12083333 C46.2204705,7.66666667 40.7525281,20.1729167 40.5188553,22.6166667 L40.5188553,22.6166667 L40.5188553,22.7604167 L40.5188553,22.7604167 L40.5188553,22.7604167 C40.5188553,22.8083333 40.5188553,22.85625 40.5655899,22.85625 C40.6123244,22.85625 40.659059,22.8083333 40.7057935,22.7125 C40.7057935,22.6645833 40.7525281,22.6645833 40.7992626,22.6166667 L40.7992626,22.56875 C40.9862008,22.28125 41.3600772,21.6104167 42.0610955,20.2208333 C43.463132,17.39375 50.9406601,2.20416667 50.9406601,2.20416667 C50.9406601,2.20416667 51.0341292,1.96458333 51.267802,1.58125 L51.267802,1.58125 Z" id="Shape"></path>
                                    <path d="M61.7830758,15.8125 C61.6428722,15.4770833 61.1287921,15.525 61.1287921,15.525 L61.1287921,15.525 C59.7734902,15.525 56.5020716,17.10625 55.1935042,17.7770833 C55.1935042,17.7770833 55.1000351,17.825 55.006566,17.8729167 C54.7728933,18.0166667 54.3990169,18.3041667 54.7728933,18.4958333 C54.8663624,18.54375 55.006566,18.54375 55.1467697,18.54375 L55.5673806,18.54375 C55.6608497,18.2083333 58.8387992,17.25 60.4277739,16.7708333 C60.7549157,16.675 61.035323,16.5791667 61.2222612,16.4833333 L61.2222612,16.4833333 C61.5026685,16.3875 61.9232795,16.1958333 61.7830758,15.8125 L61.7830758,15.8125 Z" id="Shape"></path>
                                    <path d="M19.5350421,7.52291667 C19.1611657,8.57708333 18.2732093,10.78125 18.0395365,10.78125 C17.7591292,10.8291667 17.5254565,10.6854167 16.8711728,10.1583333 C16.0299508,9.43958333 15.1419944,7.95416667 9.39364466,8.9125 C9.15997191,8.9125 8.92629916,8.38541667 10.0479284,7.61875 C11.0760885,6.9 13.6464888,4.79166667 18.6003511,3.7375 C18.6003511,3.7375 17.7123947,0.71875 16.2636236,1.38958333 C15.282198,2.0125 7.89813904,7.23541667 7.05691713,8.76875 C6.44936798,9.775 6.86997893,11.1166667 8.87956461,10.3020833 C10.1413975,9.775 14.1605688,8.81666667 15.6560744,10.5416667 C15.702809,10.5895833 15.7962781,10.78125 15.6093399,11.06875 C15.4691362,11.3083333 15.1887289,11.5479167 14.7213834,11.6916667 C13.6932233,11.93125 4.29957865,14.9979167 0.420610955,20.4604167 C0.327141854,20.6041667 0.0934691011,21.0354167 0.280407303,21.5145833 C0.560814607,22.0895833 1.16836376,22.8083333 2.75733848,22.1854167 C4.62672051,21.41875 8.5056882,19.7895833 16.9179073,12.4104167 C17.1515801,12.21875 17.572191,11.8833333 17.1515801,12.9854167 C16.9646419,13.4645833 14.9083216,17.8729167 16.0299508,18.4479167 C17.058111,18.7833333 18.1330056,18.9270833 18.3199438,17.5854167 C18.506882,16.3875 19.441573,11.8354167 22.1054424,9.2 C22.2923806,8.9125 20.3295295,6.13333333 19.5350421,7.52291667 L19.5350421,7.52291667 Z M14.2540379,12.8416667 C10.3750702,17.3458333 5.84181882,19.6458333 4.11264045,20.5083333 C3.41162219,20.8916667 3.03774579,21.0833333 2.75733848,21.2270833 L2.71060393,21.2270833 L2.66386938,21.2270833 L2.61713483,21.2270833 C2.24325843,21.3229167 2.43019663,20.7958333 2.47693118,20.7 C4.20610955,17.0104167 14.0203652,12.6020833 14.0203652,12.6020833 C14.1605688,12.5541667 14.3007725,12.6979167 14.2540379,12.8416667 L14.2540379,12.8416667 Z" id="Shape"></path>
                                    <path d="M49.0712781,13.2729167 C49.0712781,13.2729167 52.6231039,12.21875 54.3990169,10.78125 C55.6608497,9.82291667 55.4739115,8.57708333 55.4739115,8.57708333 C55.4739115,8.05 55.1935042,7.52291667 54.2120787,7.37916667 C53.6979986,7.33125 50.4265801,6.9 48.2300562,11.4520833 C47.4823034,12.79375 45.2390449,16.6270833 45.6596559,17.9208333 L45.6596559,17.9208333 C45.8465941,18.4479167 46.2204705,18.6395833 46.2204705,18.6395833 C47.9496489,19.4541667 51.1743329,16.9145833 52.2959621,15.95625 C52.2959621,15.95625 53.651264,14.95 53.6979986,14.8541667 C54.2120787,14.4708333 54.5392205,14.23125 54.5859551,14.1354167 C54.6326896,13.94375 54.2588132,13.65625 52.4829003,14.9979167 C51.4547402,15.7166667 50.0527037,16.7229167 49.2114817,17.25 C49.0712781,17.2979167 48.557198,17.5854167 47.9963834,17.5854167 C47.5757725,17.5854167 47.2018961,17.2979167 47.7627107,16.0520833 C48.4169944,14.4708333 48.8843399,13.2729167 49.0712781,13.2729167 L49.0712781,13.2729167 Z M53.2306531,8.57708333 C53.5110604,8.43333333 53.9784059,8.28958333 54.2588132,8.67291667 C54.3990169,8.9125 54.3522823,9.29583333 54.2588132,9.67916667 C54.2588132,9.67916667 53.9784059,10.3979167 52.8567767,11.06875 C51.5949438,11.8354167 49.6788272,12.7458333 49.3516854,12.6979167 C50.0994382,10.5895833 52.3426966,9.10416667 53.2306531,8.57708333 L53.2306531,8.57708333 Z" id="Shape"></path>
                                </g>
                            </g>
                        </g>
                    </g>
                </g>
            </g>
        </g>
    </g>
</svg>