<?xml version="1.0" encoding="UTF-8" standalone="no"?>
<svg width="92px" height="23px" viewBox="0 0 92 23" version="1.1" xmlns="http://www.w3.org/2000/svg" xmlns:xlink="http://www.w3.org/1999/xlink">
    <!-- Generator: sketchtool 41.1 (35376) - http://www.bohemiancoding.com/sketch -->
    <title>C036F7EF-7126-4E37-BF6B-CD8E3412C81A</title>
    <desc>Created with sketchtool.</desc>
    <defs></defs>
    <g id="App-iOS" stroke="none" stroke-width="1" fill="none" fill-rule="evenodd">
        <g id="Navegacion" transform="translate(-140.000000, -30.000000)">
            <g id="Navigation-Bar-Light">
                <g id="sivale-logo-white">
                    <g transform="translate(140.000000, 30.000000)">
                        <rect id="Rectangle-path" fill="#FFFFFF" x="0.43125" y="1.19791667" width="21.0833333" height="21.0833333"></rect>
                        <g id="Group" transform="translate(3.833333, 5.270833)" fill="#F59100">
                            <path d="M4.98333333,6.42083333 C4.98333333,7.52291667 4.74375,8.3375 3.54583333,8.3375 C2.20416667,8.3375 2.0125,7.37916667 2.0125,6.56458333 L2.0125,0.335416667 L0.239583333,0.71875 L0.239583333,6.80416667 C0.239583333,9.10416667 1.86875,10.0145833 3.40208333,10.0145833 C5.4625,10.0145833 6.70833333,8.72083333 6.70833333,7.04375 L6.70833333,0.2875 L4.93541667,0.670833333 L4.93541667,6.42083333 L4.98333333,6.42083333 Z" id="Shape"></path>
                            <path d="M11.1166667,2.875 C10.3979167,2.875 9.775,3.06666667 9.24791667,3.45 L9.24791667,2.44375 L7.57083333,2.875 L7.57083333,12.1708333 L9.24791667,11.7875 L9.24791667,9.39166667 C9.775,9.775 10.4458333,9.96666667 11.1645833,9.96666667 C13.08125,9.96666667 14.6145833,8.38541667 14.6145833,6.37291667 C14.5666667,4.50416667 13.0333333,2.875 11.1166667,2.875 M11.0208333,8.48125 C9.87083333,8.48125 9.05625,7.52291667 9.05625,6.42083333 C9.05625,5.31875 9.87083333,4.36041667 11.0208333,4.36041667 C12.1708333,4.36041667 12.9854167,5.31875 12.9854167,6.42083333 C12.9854167,7.57083333 12.1229167,8.48125 11.0208333,8.48125" id="Shape"></path>
                        </g>
                        <g id="Group" transform="translate(28.270833, 0.000000)" fill="#FFFFFF">
                            <path d="M57.8354167,6.325 L58.075,6.325 C58.1708333,6.325 58.1708333,6.37291667 58.21875,6.42083333 C58.21875,6.42083333 58.2666667,6.75625 58.2666667,6.80416667 L58.5541667,6.80416667 C58.50625,6.75625 58.50625,6.56458333 58.50625,6.46875 C58.50625,6.325 58.4583333,6.18125 58.3145833,6.18125 C58.4104167,6.13333333 58.5541667,6.08541667 58.5541667,5.89375 C58.5541667,5.55833333 58.2666667,5.55833333 58.1229167,5.55833333 L57.6916667,5.55833333 L57.6916667,6.80416667 L57.93125,6.80416667 L57.93125,6.325 L57.8354167,6.325 Z M57.8354167,5.79791667 L58.0270833,5.79791667 C58.075,5.79791667 58.21875,5.79791667 58.21875,5.98958333 C58.21875,6.0375 58.1708333,6.18125 58.0270833,6.18125 L57.8354167,6.18125 L57.8354167,5.79791667 L57.8354167,5.79791667 Z" id="Shape"></path>
                            <path d="M58.0270833,7.33125 C58.65,7.33125 59.1291667,6.85208333 59.1291667,6.22916667 C59.1291667,5.60625 58.6020833,5.12708333 58.0270833,5.12708333 C57.4520833,5.12708333 56.925,5.60625 56.925,6.22916667 C56.8770833,6.85208333 57.4041667,7.33125 58.0270833,7.33125 L58.0270833,7.33125 Z M58.0270833,5.27083333 C58.5541667,5.27083333 58.9854167,5.70208333 58.9854167,6.18125 C58.9854167,6.70833333 58.5541667,7.13958333 58.0270833,7.13958333 C57.5,7.13958333 57.06875,6.70833333 57.06875,6.18125 C57.06875,5.70208333 57.5,5.27083333 58.0270833,5.27083333 L58.0270833,5.27083333 Z" id="Shape"></path>
                            <path d="M25.1083333,1.48541667 C25.1083333,1.48541667 22.7125,4.45625 22.56875,5.55833333 C22.56875,5.55833333 23.3833333,5.79791667 25.9229167,2.63541667 C25.9708333,2.53958333 26.0666667,2.49166667 26.1145833,2.39583333 L26.1145833,2.39583333 L26.1145833,2.39583333 C26.45,1.86875 26.3541667,1.53333333 25.1083333,1.48541667 L25.1083333,1.48541667 Z" id="Shape"></path>
                            <path d="M44.0833333,11.35625 C42.2145833,9.72708333 38.5729167,14.7104167 37.0875,16.675 C35.1708333,18.6875 37.0395833,14.23125 37.375,13.5604167 C40.825,7.04375 44.275,8.28958333 44.275,8.28958333 C44.6583333,7.23541667 41.0166667,7.33125 40.5854167,7.37916667 C37.1354167,8.67291667 34.9791667,14.8541667 34.35625,16.81875 C33.78125,19.0229167 36.08125,18.6395833 36.4645833,18.3520833 C39.9145833,13.3208333 40.4416667,13.2729167 40.8729167,13.1291667 C41.8791667,13.1770833 40.8729167,16.81875 40.9208333,17.2020833 C42.55,16.6270833 44.0833333,11.64375 44.0833333,11.35625 L44.0833333,11.35625 Z" id="Shape"></path>
                            <path d="M59.0333333,14.6625 C58.3145833,14.9979167 54.0020833,17.25 53.2354167,17.7770833 L53.2354167,17.7770833 C53.2354167,17.7770833 52.9958333,17.9208333 52.9479167,18.0166667 L52.9,18.0645833 C52.8520833,18.1125 52.9,18.1604167 53.04375,18.2083333 L53.04375,18.2083333 C53.0916667,18.2083333 53.1395833,18.2083333 53.1875,18.25625 C53.1875,18.25625 59.1291667,15.1416667 59.8479167,14.9979167 C60.1833333,14.9020833 60.0395833,14.3270833 59.0333333,14.6625 L59.0333333,14.6625 Z" id="Shape"></path>
                            <path d="M39.6270833,6.27708333 C42.1666667,4.8875 44.85,3.59375 44.85,3.59375 C44.85,3.59375 42.6458333,1.86875 40.5375,3.59375 C38.4770833,5.27083333 35.3145833,7.90625 29.4208333,17.4895833 L29.4208333,17.4895833 C29.18125,17.8729167 28.9895833,17.96875 28.7979167,18.0166667 C28.3666667,18.0166667 28.2229167,17.25 28.175,17.1541667 C28.1270833,16.7229167 28.2229167,16.24375 28.31875,15.2854167 C28.75,12.0270833 30.475,8.48125 29.0375,7.37916667 L29.0375,7.37916667 C29.0375,7.37916667 28.5104167,6.94791667 27.3604167,7.13958333 C27.3604167,7.13958333 27.45625,9.05625 27.45625,10.0145833 C27.4083333,12.3625 27.2166667,15.4770833 27.16875,16.3875 C27.16875,16.675 27.025,17.8729167 27.45625,18.4479167 L27.45625,18.4479167 C27.45625,18.4479167 27.45625,18.4479167 27.45625,18.4958333 C27.5041667,18.54375 27.5041667,18.54375 27.5520833,18.5916667 C27.8395833,18.8791667 28.6541667,19.40625 29.5645833,18.3041667 C29.6604167,18.2083333 29.75625,18.0645833 29.8520833,17.9208333 C29.9479167,17.825 29.9958333,17.7291667 30.04375,17.68125 C30.2354167,17.4416667 30.4270833,17.1541667 30.6666667,16.7708333 C32.0083333,14.9979167 36.36875,8.05 39.6270833,6.27708333 L39.6270833,6.27708333 Z" id="Shape"></path>
                            <path d="M52.5166667,1.48541667 L52.5166667,1.48541667 C52.6604167,1.34166667 52.7083333,1.19791667 52.75625,1.15 L52.75625,1.15 L52.75625,1.15 C52.8041667,1.10208333 52.8041667,1.05416667 52.8041667,1.05416667 C52.8041667,0.958333333 53.1395833,0.2875 51.2229167,0.335416667 C49.59375,0.383333333 49.5458333,1.62916667 49.5458333,2.0125 L49.5458333,2.0125 C49.5458333,2.0125 49.5458333,2.73125 48.9708333,4.025 L48.9708333,4.025 C47.3416667,7.57083333 41.7354167,20.0770833 41.4958333,22.5208333 L41.4958333,22.5208333 L41.4958333,22.6645833 L41.4958333,22.6645833 L41.4958333,22.6645833 C41.4958333,22.7125 41.4958333,22.7604167 41.54375,22.7604167 C41.5916667,22.7604167 41.6395833,22.7125 41.6875,22.6166667 C41.6875,22.56875 41.7354167,22.56875 41.7833333,22.5208333 L41.7833333,22.4729167 C41.975,22.1854167 42.3583333,21.5145833 43.0770833,20.125 C44.5145833,17.2979167 52.18125,2.10833333 52.18125,2.10833333 C52.18125,2.10833333 52.2770833,1.82083333 52.5166667,1.48541667 L52.5166667,1.48541667 Z" id="Shape"></path>
                            <path d="M63.2979167,15.7166667 C63.1541667,15.38125 62.6270833,15.4291667 62.6270833,15.4291667 L62.6270833,15.4291667 C61.2375,15.4291667 57.8833333,17.0104167 56.5416667,17.68125 C56.5416667,17.68125 56.4458333,17.7291667 56.35,17.7770833 C56.1104167,17.9208333 55.7270833,18.2083333 56.1104167,18.4 C56.20625,18.4479167 56.35,18.4479167 56.49375,18.4479167 L56.925,18.4479167 C57.0208333,18.1125 60.2791667,17.1541667 61.9083333,16.675 C62.24375,16.5791667 62.53125,16.4833333 62.7229167,16.3875 L62.7229167,16.3875 C63.0104167,16.2916667 63.4416667,16.0520833 63.2979167,15.7166667 L63.2979167,15.7166667 Z" id="Shape"></path>
                            <path d="M20.0291667,7.37916667 C19.6458333,8.43333333 18.7354167,10.6375 18.4958333,10.6375 C18.2083333,10.6854167 17.96875,10.5416667 17.2979167,10.0145833 C16.4354167,9.29583333 15.525,7.81041667 9.63125,8.76875 C9.39166667,8.76875 9.15208333,8.24166667 10.3020833,7.475 C11.35625,6.75625 13.9916667,4.64791667 19.0708333,3.59375 C19.0708333,3.59375 18.1604167,0.575 16.675,1.24583333 C15.66875,1.86875 8.09791667,7.09166667 7.23541667,8.625 C6.6125,9.63125 7.04375,10.9729167 9.10416667,10.1583333 C10.3979167,9.63125 14.51875,8.67291667 16.0520833,10.3979167 C16.1,10.4458333 16.1958333,10.6375 16.0041667,10.925 C15.8604167,11.1645833 15.5729167,11.4041667 15.09375,11.5479167 C14.0395833,11.7875 4.40833333,14.8541667 0.43125,20.3166667 C0.335416667,20.4604167 0.0958333333,20.8916667 0.2875,21.3708333 C0.575,21.9458333 1.19791667,22.6645833 2.82708333,22.0416667 C4.74375,21.275 8.72083333,19.6458333 17.3458333,12.2666667 C17.5854167,12.075 18.0166667,11.7395833 17.5854167,12.8416667 C17.39375,13.3208333 15.2854167,17.7291667 16.4354167,18.3041667 C17.4895833,18.6395833 18.5916667,18.7833333 18.7833333,17.4416667 C18.975,16.24375 19.9333333,11.6916667 22.6645833,9.05625 C22.85625,8.76875 20.84375,6.0375 20.0291667,7.37916667 L20.0291667,7.37916667 Z M14.5666667,12.7458333 C10.5895833,17.25 5.94166667,19.55 4.16875,20.4125 C3.45,20.7958333 3.06666667,20.9875 2.77916667,21.13125 L2.73125,21.13125 L2.68333333,21.13125 L2.63541667,21.13125 C2.25208333,21.2270833 2.44375,20.7 2.49166667,20.6041667 C4.26458333,16.9145833 14.3270833,12.50625 14.3270833,12.50625 C14.51875,12.4583333 14.6145833,12.6020833 14.5666667,12.7458333 L14.5666667,12.7458333 Z" id="Shape"></path>
                            <path d="M50.3125,13.1770833 C50.3125,13.1770833 53.9541667,12.1229167 55.775,10.6854167 C57.06875,9.72708333 56.8770833,8.48125 56.8770833,8.48125 C56.8770833,7.95416667 56.5895833,7.42708333 55.5833333,7.28333333 C55.05625,7.23541667 51.7020833,6.80416667 49.45,11.35625 C48.6833333,12.6979167 46.3833333,16.53125 46.8145833,17.825 L46.8145833,17.825 C47.00625,18.3520833 47.3895833,18.54375 47.3895833,18.54375 C49.1625,19.3583333 52.46875,16.81875 53.61875,15.8604167 C53.61875,15.8604167 55.0083333,14.8541667 55.05625,14.7583333 C55.5833333,14.375 55.91875,14.1354167 55.9666667,14.0395833 C56.0145833,13.8479167 55.63125,13.5604167 53.8104167,14.9020833 C52.75625,15.6208333 51.31875,16.6270833 50.45625,17.1541667 C50.3125,17.2020833 49.7854167,17.4895833 49.2104167,17.4895833 C48.7791667,17.4895833 48.3958333,17.2020833 48.9708333,15.95625 C49.59375,14.375 50.0729167,13.1770833 50.3125,13.1770833 L50.3125,13.1770833 Z M54.5291667,8.48125 C54.8166667,8.3375 55.2958333,8.19375 55.5833333,8.57708333 C55.7270833,8.81666667 55.6791667,9.2 55.5833333,9.58333333 C55.5833333,9.58333333 55.2958333,10.3020833 54.1458333,10.9729167 C52.8520833,11.7395833 50.8875,12.65 50.5520833,12.6020833 C51.31875,10.49375 53.61875,9.00833333 54.5291667,8.48125 L54.5291667,8.48125 Z" id="Shape"></path>
                        </g>
                    </g>
                </g>
            </g>
        </g>
    </g>
</svg>