<?xml version="1.0" encoding="UTF-8" standalone="no"?>
<svg width="179px" height="45px" viewBox="0 0 179 45" version="1.1" xmlns="http://www.w3.org/2000/svg" xmlns:xlink="http://www.w3.org/1999/xlink">
    <!-- Generator: sketchtool 41 (35326) - http://www.bohemiancoding.com/sketch -->
    <title>6C63F138-D50D-4F4F-B374-DC9C83A1F69B</title>
    <desc>Created with sketchtool.</desc>
    <defs></defs>
    <g id="App-iOS" stroke="none" stroke-width="1" fill="none" fill-rule="evenodd">
        <g id="Login-App" transform="translate(-98.000000, -106.000000)">
            <g id="logo" transform="translate(98.000000, 106.000000)">
                <g id="Capa_1">
                    <rect id="Rectangle-path" fill="#F59100" x="0.84122191" y="2.53125" width="41.1264045" height="41.25"></rect>
                    <g id="Group" transform="translate(7.477528, 11.250000)" fill="#FFFFFF">
                        <path d="M9.72078652,11.90625 C9.72078652,14.0625 9.25344101,15.65625 6.91671348,15.65625 C4.29957865,15.65625 3.92570225,13.78125 3.92570225,12.1875 L3.92570225,0 L0.467345506,0.75 L0.467345506,12.65625 C0.467345506,17.15625 3.64529494,18.9375 6.63630618,18.9375 C10.6554775,18.9375 13.0856742,16.40625 13.0856742,13.125 L13.0856742,0 L9.62731742,0.75 L9.62731742,11.90625 L9.72078652,11.90625 Z" id="Shape"></path>
                        <path d="M21.7783006,4.96875 C20.376264,4.96875 19.1611657,5.34375 18.1330056,6.09375 L18.1330056,4.125 L14.8615871,4.96875 L14.8615871,23.15625 L18.1330056,22.40625 L18.1330056,17.71875 C19.1611657,18.46875 20.4697331,18.84375 21.8717697,18.84375 C25.6105337,18.84375 28.6015449,15.75 28.6015449,11.8125 C28.4146067,8.0625 25.4235955,4.96875 21.7783006,4.96875 M21.4978933,15.9375 C19.2546348,15.9375 17.6656601,14.0625 17.6656601,11.90625 C17.6656601,9.75 19.2546348,7.875 21.4978933,7.875 C23.7411517,7.875 25.3301264,9.75 25.3301264,11.90625 C25.3301264,14.0625 23.7411517,15.9375 21.4978933,15.9375" id="Shape"></path>
                    </g>
                    <g id="Group" transform="translate(55.146770, 0.000000)" fill="#525B58">
                        <path d="M112.910674,12.65625 L113.37802,12.65625 C113.564958,12.65625 113.564958,12.75 113.658427,12.84375 C113.658427,12.84375 113.751896,13.5 113.751896,13.59375 L114.312711,13.59375 C114.219242,13.5 114.219242,13.125 114.219242,12.9375 C114.219242,12.65625 114.125772,12.375 113.845365,12.375 C114.032303,12.28125 114.312711,12.1875 114.312711,11.8125 C114.312711,11.15625 113.751896,11.15625 113.471489,11.15625 L112.630267,11.15625 L112.630267,13.59375 L113.097612,13.59375 L113.097612,12.65625 L112.910674,12.65625 Z M112.910674,11.53125 L113.284551,11.53125 C113.37802,11.53125 113.658427,11.53125 113.658427,11.90625 C113.658427,12 113.564958,12.28125 113.284551,12.28125 L112.910674,12.28125 L112.910674,11.53125 L112.910674,11.53125 Z" id="Shape"></path>
                        <path d="M113.191081,14.53125 C114.40618,14.53125 115.340871,13.59375 115.340871,12.375 C115.340871,11.15625 114.312711,10.21875 113.191081,10.21875 C112.069452,10.21875 111.041292,11.15625 111.041292,12.375 C111.041292,13.59375 112.069452,14.53125 113.191081,14.53125 L113.191081,14.53125 Z M113.191081,10.59375 C114.219242,10.59375 115.060463,11.4375 115.060463,12.375 C115.060463,13.40625 114.219242,14.25 113.191081,14.25 C112.162921,14.25 111.321699,13.40625 111.321699,12.375 C111.415169,11.34375 112.25639,10.59375 113.191081,10.59375 L113.191081,10.59375 Z" id="Shape"></path>
                        <path d="M48.977809,3.09375 C48.977809,3.09375 44.3043539,8.90625 44.0239466,11.0625 C44.0239466,11.0625 45.6129213,11.53125 50.5667837,5.34375 C50.6602528,5.15625 50.847191,5.0625 50.9406601,4.875 L50.9406601,4.875 L50.9406601,4.875 C51.6884129,3.84375 51.4080056,3.1875 48.977809,3.09375 L48.977809,3.09375 Z" id="Shape"></path>
                        <path d="M86.0850421,22.5 C82.4397472,19.3125 75.3360955,29.0625 72.4385534,32.90625 C68.6997893,36.84375 72.3450843,28.125 72.999368,26.8125 C79.7291433,14.0625 86.4589185,16.5 86.4589185,16.5 C87.2066713,14.4375 80.1030197,14.625 79.2617978,14.71875 C72.5320225,17.25 68.3259129,29.34375 67.1108146,33.1875 C65.9891854,37.5 70.4757022,36.75 71.2234551,36.1875 C77.9532303,26.34375 78.9813904,26.25 79.8226124,25.96875 C81.7854635,26.0625 79.8226124,33.1875 79.9160815,33.9375 C83.0005618,32.71875 86.0850421,23.0625 86.0850421,22.5 L86.0850421,22.5 Z" id="Shape"></path>
                        <path d="M115.247402,28.875 C113.845365,29.53125 105.433146,33.9375 103.93764,34.96875 L103.93764,34.96875 C103.93764,34.96875 103.470295,35.25 103.376826,35.4375 L103.283357,35.53125 C103.189888,35.625 103.283357,35.71875 103.563764,35.8125 L103.563764,35.8125 C103.657233,35.8125 103.750702,35.8125 103.844171,35.90625 C103.844171,35.90625 115.43434,29.8125 116.836376,29.53125 C117.397191,29.34375 117.116784,28.21875 115.247402,28.875 L115.247402,28.875 Z" id="Shape"></path>
                        <path d="M77.2989466,12.5625 C82.252809,9.84375 87.4870787,7.3125 87.4870787,7.3125 C87.4870787,7.3125 83.1875,3.9375 79.0748596,7.3125 C75.0556882,10.59375 68.8867275,15.75 57.3900281,34.5 L57.3900281,34.5 C56.9226826,35.25 56.5488062,35.4375 56.1749298,35.53125 C55.3337079,35.53125 55.0533006,34.03125 54.9598315,33.84375 C54.8663624,33 55.0533006,32.0625 55.2402388,30.1875 C56.0814607,23.8125 59.4463483,16.875 56.6422753,14.71875 L56.6422753,14.71875 C56.6422753,14.71875 55.6141152,13.875 53.3708567,14.25 C53.3708567,14.25 53.5577949,18 53.5577949,19.875 C53.4643258,24.46875 53.0904494,30.5625 52.9969803,32.34375 C52.9969803,32.90625 52.716573,35.25 53.5577949,36.375 L53.5577949,36.375 C53.5577949,36.375 53.5577949,36.375 53.5577949,36.46875 C53.651264,36.5625 53.651264,36.5625 53.7447331,36.65625 C54.3055478,37.21875 55.8945225,38.25 57.6704354,36.09375 C57.8573736,35.90625 58.0443118,35.625 58.23125,35.34375 C58.4181882,35.15625 58.5116573,34.96875 58.6051264,34.875 C58.9790028,34.40625 59.3528792,33.84375 59.8202247,33.09375 C62.5308287,29.53125 70.9430478,16.03125 77.2989466,12.5625 L77.2989466,12.5625 Z" id="Shape"></path>
                        <path d="M102.535604,3.09375 L102.535604,3.09375 C102.816011,2.8125 102.90948,2.53125 103.002949,2.4375 L103.002949,2.4375 L103.002949,2.4375 C103.096419,2.34375 103.096419,2.25 103.096419,2.25 C103.096419,2.0625 103.750702,0.75 100.011938,0.84375 C96.8339888,0.9375 96.7405197,3.375 96.7405197,4.125 L96.7405197,4.125 C96.7405197,4.125 96.7405197,5.53125 95.6188904,8.0625 L95.6188904,8.0625 C92.440941,15 81.5050562,39.46875 81.0377107,44.25 L81.0377107,44.25 L81.0377107,44.53125 L81.0377107,44.53125 L81.0377107,44.53125 C81.0377107,44.625 81.0377107,44.71875 81.1311798,44.71875 C81.2246489,44.71875 81.318118,44.625 81.4115871,44.4375 C81.4115871,44.34375 81.5050562,44.34375 81.5985253,44.25 L81.5985253,44.15625 C81.9724017,43.59375 82.7201545,42.28125 84.122191,39.5625 C86.926264,34.03125 101.88132,4.3125 101.88132,4.3125 C101.88132,4.3125 102.068258,3.84375 102.535604,3.09375 L102.535604,3.09375 Z" id="Shape"></path>
                        <path d="M123.566152,30.9375 C123.285744,30.28125 122.257584,30.375 122.257584,30.375 L122.257584,30.375 C119.54698,30.375 113.004143,33.46875 110.387008,34.78125 L110.013132,34.96875 C109.545787,35.25 108.798034,35.8125 109.545787,36.1875 C109.732725,36.28125 110.013132,36.28125 110.293539,36.28125 L111.134761,36.28125 C111.321699,35.625 117.677598,33.75 120.855548,32.8125 C121.509831,32.625 122.070646,32.4375 122.444522,32.25 L122.444522,32.25 C123.005337,32.0625 123.846559,31.6875 123.566152,30.9375 L123.566152,30.9375 Z" id="Shape"></path>
                        <path d="M39.0700843,14.71875 C38.3223315,16.78125 36.5464185,21.09375 36.079073,21.09375 C35.5182584,21.1875 35.0509129,20.90625 33.7423455,19.875 C32.0599017,18.46875 30.2839888,15.5625 18.7872893,17.4375 C18.3199438,17.4375 17.8525983,16.40625 20.0958567,14.90625 C22.152177,13.5 27.2929775,9.375 37.2007022,7.3125 C37.2007022,7.3125 35.4247893,1.40625 32.5272472,2.71875 C30.5643961,3.9375 15.7962781,14.15625 14.1138343,17.15625 C12.898736,19.125 13.7399579,21.75 17.7591292,20.15625 C20.2827949,19.125 28.3211376,17.25 31.3121489,20.625 C31.405618,20.71875 31.5925562,21.09375 31.2186798,21.65625 C30.9382725,22.125 30.3774579,22.59375 29.4427669,22.875 C27.3864466,23.34375 8.5991573,29.34375 0.84122191,40.03125 C0.654283708,40.3125 0.186938202,41.15625 0.560814607,42.09375 C1.12162921,43.21875 2.33672753,44.625 5.51467697,43.40625 C9.25344101,41.90625 17.0113764,38.71875 33.8358146,24.28125 C34.3031601,23.90625 35.144382,23.25 34.3031601,25.40625 C33.9292837,26.34375 29.8166433,34.96875 32.0599017,36.09375 C34.1162219,36.75 36.2660112,37.03125 36.6398876,34.40625 C37.013764,32.0625 38.8831461,23.15625 44.2108848,18 C44.5847612,17.4375 40.659059,12 39.0700843,14.71875 L39.0700843,14.71875 Z M28.5080758,25.125 C20.7501404,33.9375 11.6836376,38.4375 8.2252809,40.125 C6.82324438,40.875 6.07549157,41.25 5.51467697,41.53125 L5.42120787,41.53125 L5.32773876,41.53125 L5.23426966,41.53125 C4.48651685,41.71875 4.86039326,40.6875 4.95386236,40.5 C8.4122191,33.28125 28.0407303,24.65625 28.0407303,24.65625 C28.3211376,24.5625 28.6015449,24.84375 28.5080758,25.125 L28.5080758,25.125 Z" id="Shape"></path>
                        <path d="M98.1425562,25.96875 C98.1425562,25.96875 105.246208,23.90625 108.798034,21.09375 C111.321699,19.21875 110.947823,16.78125 110.947823,16.78125 C110.947823,15.75 110.387008,14.71875 108.424157,14.4375 C107.395997,14.34375 100.85316,13.5 96.4601124,22.40625 C94.9646067,25.03125 90.4780899,32.53125 91.3193118,35.0625 L91.3193118,35.0625 C91.6931882,36.09375 92.440941,36.46875 92.440941,36.46875 C95.8992978,38.0625 102.348666,33.09375 104.591924,31.21875 C104.591924,31.21875 107.302528,29.25 107.395997,29.0625 C108.424157,28.3125 109.078441,27.84375 109.17191,27.65625 C109.265379,27.28125 108.517626,26.71875 104.965801,29.34375 C102.90948,30.75 100.105407,32.71875 98.4229635,33.75 C98.1425562,33.84375 97.1143961,34.40625 95.9927669,34.40625 C95.1515449,34.40625 94.4037921,33.84375 95.5254213,31.40625 C96.8339888,28.3125 97.7686798,25.96875 98.1425562,25.96875 L98.1425562,25.96875 Z M106.461306,16.78125 C107.022121,16.5 107.956812,16.21875 108.517626,16.96875 C108.798034,17.4375 108.704565,18.1875 108.517626,18.9375 C108.517626,18.9375 107.956812,20.34375 105.713553,21.65625 C103.189888,23.15625 99.3576545,24.9375 98.7033708,24.84375 C100.198876,20.71875 104.685393,17.8125 106.461306,16.78125 L106.461306,16.78125 Z" id="Shape"></path>
                    </g>
                </g>
            </g>
        </g>
    </g>
</svg>