<svg xmlns="http://www.w3.org/2000/svg" width="57" height="14" viewBox="0 0 57 14">
    <g fill="none" fill-rule="evenodd">
        <path fill="#FFF" d="M.172.176h13.676v13.489H.172z"/>
        <path fill="#757575" d="M5.6 6.898c0 .697-.152 1.23-.944 1.23-.885 0-.977-.625-.977-1.133V3.01l-1.136.248v3.901c0 1.485 1.05 2.052 2.06 2.052 1.327 0 2.133-.84 2.133-1.889V3.016L5.6 3.263v3.635zM9.53 8.22c-.734 0-1.262-.6-1.262-1.31 0-.703.535-1.308 1.261-1.308.733 0 1.262.599 1.262 1.309.006.71-.529 1.309-1.262 1.309m.073-3.589a2.17 2.17 0 0 0-1.228.378v-.632l-1.096.26v5.96l1.09-.247V8.826c.35.24.772.377 1.228.377 1.228 0 2.225-1.022 2.225-2.286.007-1.263-.99-2.286-2.219-2.286"/>
        <path fill="#FFF" d="M53.47 3.509h.247c.082 0 .233 0 .233.158 0 .059-.04.157-.233.157h-.248V3.51zm.013.503h.275c.11 0 .137.03.165.098 0 .02.055.306.055.355h.33c-.041-.05-.069-.207-.083-.296-.027-.148-.041-.246-.26-.256.11-.03.302-.069.302-.276 0-.296-.372-.296-.55-.296h-.55v1.134h.302v-.463h.014z"/>
        <path fill="#FFF" d="M53.427 3.146c.311 0 .57.247.57.56a.57.57 0 0 1-.57.56.57.57 0 0 1-.57-.56c0-.313.258-.56.57-.56m0 1.231c.378 0 .682-.3.682-.67a.676.676 0 0 0-.682-.672.68.68 0 0 0-.683.671c0 .371.312.671.683.671M33.461.88s-1.466 1.784-1.525 2.422c0 0 .502.13 2.02-1.758.04-.046.08-.092.113-.137V1.4c.211-.3.145-.508-.608-.52M44.985 6.793c-1.136-.977-3.342 2-4.253 3.166-1.156 1.211-.02-1.466.165-1.87 2.087-3.888 4.174-3.145 4.174-3.145.244-.639-1.962-.574-2.232-.554-2.087.769-3.388 4.468-3.778 5.634-.35 1.316 1.03 1.081 1.281.912 2.107-3.003 2.417-3.042 2.662-3.126.6.045 0 2.214.04 2.423.99-.313 1.94-3.27 1.94-3.44M54.052 8.748c-.423.201-3.045 1.537-3.52 1.862 0 0-.132.072-.192.137-.013.013-.02.02-.02.033-.013.039.007.065.1.078.026.006.059.013.099.02 0 0 3.592-1.85 4.048-1.955.165-.026.079-.364-.515-.175"/>
        <path fill="#FFF" d="M42.264 3.752c1.525-.834 3.176-1.616 3.176-1.616s-1.327-1.029-2.601 0c-1.262 1.003-3.157 2.586-6.736 8.325-.146.228-.271.3-.37.3-.264 0-.363-.463-.376-.528-.04-.254.013-.535.092-1.12.258-1.961 1.3-4.072.442-4.73 0 0-.317-.26-1.003-.156 0 0 .066 1.16.072 1.726-.04 1.407-.138 3.257-.171 3.817-.007.182-.1.886.178 1.225 0 0 .007.006.013.02.02.019.04.038.06.051.178.157.667.476 1.208-.163a4.207 4.207 0 0 0 .297-.37c.106-.15.238-.326.39-.548.72-1.023 3.355-5.172 5.329-6.233M50.096.866c0-.006.007-.006.007-.013.066-.09.105-.15.125-.189a.295.295 0 0 0 .026-.052c.007-.058.199-.469-.97-.417-.984.046-1.03.789-1.017 1.016 0 0-.007.437-.363 1.212-.984 2.123-4.392 9.588-4.544 11.066 0 0-.006.04-.006.072v.013c0 .026.006.046.02.052.02.007.059-.039.098-.085.014-.02.034-.039.053-.071a.08.08 0 0 1 .014-.02c.118-.182.343-.58.779-1.413.871-1.68 5.534-10.78 5.534-10.78s.099-.17.244-.39M56.634 9.392c-.08-.202-.416-.169-.416-.169-.832 0-2.866.944-3.692 1.348 0 0-.046.02-.105.052-.152.085-.39.248-.133.372.066.026.152.039.232.039.132.006.25-.007.27-.007.06-.189 2.04-.788 3.038-1.061.211-.066.37-.124.489-.176.145-.072.396-.196.317-.398M27.082 7.601c-2.417 2.703-5.223 4.065-6.3 4.573-.422.228-.68.351-.838.416-.014.007-.02.007-.034.013-.006.007-.02.007-.026.007-.013.006-.02.006-.033.013-.244.059-.112-.267-.099-.306 1.07-2.221 7.185-4.84 7.185-4.84.105-.045.185.04.145.124m3.302-3.191c-.225.638-.786 1.934-.931 1.954-.165.02-.31-.066-.727-.385-.534-.423-1.07-1.315-4.642-.742-.145.013-.304-.32.416-.788.64-.424 2.252-1.7 5.33-2.32 0 0-.555-1.803-1.447-1.406-.614.371-5.197 3.491-5.719 4.423-.39.592-.119 1.406 1.136.924.786-.312 3.282-.879 4.2.137.033.04.08.137-.026.306a.948.948 0 0 1-.548.372c-.648.15-6.479 1.973-8.882 5.256-.067.098-.212.358-.093.619.159.358.555.788 1.532.397 1.169-.462 3.586-1.42 8.81-5.842.151-.13.396-.32.145.338-.126.3-1.38 2.912-.7 3.277.647.195 1.3.3 1.426-.509.126-.703.7-3.426 2.351-5.015.08-.163-1.136-1.804-1.631-.996M51.318 5.067c.171-.084.455-.162.627.066.086.156.066.384 0 .586-.007.013-.191.443-.858.84-.8.462-1.988.997-2.173.984.449-1.29 1.849-2.17 2.404-2.476m-2.576 2.788s2.22-.638 3.322-1.504c.792-.567.673-1.323.667-1.323-.013-.312-.172-.638-.786-.73-.31-.019-2.357-.299-3.718 2.443-.455.795-1.849 3.107-1.591 3.882v.007c.119.306.356.43.356.43 1.077.482 3.071-1.023 3.79-1.603l.886-.65c.31-.222.528-.379.541-.424.02-.124-.205-.274-1.32.508-.641.443-1.506 1.042-2.021 1.335-.08.04-.41.208-.76.208-.27-.013-.488-.169-.152-.905.37-.95.66-1.674.786-1.674"/>
    </g>
</svg>
